STARTFONT 2.3
FONT -FontForge-Roboto Condensed-Book-R-Condensed---32-320-72-72-P-158-ISO10646-1
SIZE 32 72 72  2
FONTBOUNDINGBOX 56 41 -24 -8
COMMENT "Generated by fontforge, http://fontforge.sourceforge.net"
COMMENT "Copyright 2011 Google Inc. All Rights Reserved."
STARTPROPERTIES 42
FOUNDRY "FontForge"
FAMILY_NAME "Roboto Condensed"
WEIGHT_NAME "Book"
SLANT "R"
SETWIDTH_NAME "Condensed"
ADD_STYLE_NAME ""
PIXEL_SIZE 32
POINT_SIZE 320
RESOLUTION_X 72
RESOLUTION_Y 72
SPACING "P"
AVERAGE_WIDTH 158
CHARSET_REGISTRY "ISO10646"
CHARSET_ENCODING "1"
FONTNAME_REGISTRY ""
CHARSET_COLLECTIONS "ISO8859-2 ISO8859-5 ISO8859-7 ISO8859-9 ISO8859-4 ISO10646-1"
BITS_PER_PIXEL 2
FONT_NAME "RobotoCondensed-Regular"
FACE_NAME "Roboto Condensed"
COPYRIGHT "Copyright 2011 Google Inc. All Rights Reserved."
FONT_VERSION "2.137; 2017"
FONT_ASCENT 24
FONT_DESCENT 8
UNDERLINE_POSITION -3
UNDERLINE_THICKNESS 2
X_HEIGHT 16
CAP_HEIGHT 22
DEFAULT_CHAR 1
RAW_ASCENT 750
RAW_DESCENT 250
NORM_SPACE 7
RELATIVE_WEIGHT 40
RELATIVE_SETWIDTH 50
SUPERSCRIPT_X 0
SUPERSCRIPT_Y 15
SUPERSCRIPT_SIZE 20
SUBSCRIPT_X 0
SUBSCRIPT_Y 4
SUBSCRIPT_SIZE 20
FIGURE_WIDTH 16
AVG_LOWERCASE_WIDTH 153
AVG_UPPERCASE_WIDTH 184
ENDPROPERTIES
CHARS 1296
STARTCHAR uni0000
ENCODING 0
SWIDTH 0 0
DWIDTH 0 0
BBX 1 1 0 0
BITMAP
00
ENDCHAR
STARTCHAR uni0002
ENCODING 2
SWIDTH 0 0
DWIDTH 0 0
BBX 1 1 0 0
BITMAP
00
ENDCHAR
STARTCHAR uni000D
ENCODING 13
SWIDTH 229 0
DWIDTH 7 0
BBX 1 1 0 0
BITMAP
00
ENDCHAR
STARTCHAR space
ENCODING 32
SWIDTH 229 0
DWIDTH 7 0
BBX 1 1 0 0
BITMAP
00
ENDCHAR
STARTCHAR exclam
ENCODING 33
SWIDTH 245 0
DWIDTH 8 0
BBX 4 23 2 0
BITMAP
7D
7D
7D
7D
7D
7D
7D
7D
7D
7D
7D
7D
7D
7D
7D
7D
14
00
00
04
7D
BE
7D
ENDCHAR
STARTCHAR quotedbl
ENCODING 34
SWIDTH 319 0
DWIDTH 10 0
BBX 7 8 2 16
BITMAP
F4B8
F4B8
F4B8
F4B4
F0B4
F0B4
F0B4
F0B0
ENDCHAR
STARTCHAR numbersign
ENCODING 35
SWIDTH 547 0
DWIDTH 18 0
BBX 15 23 2 0
BITMAP
001E03C0
001E03C0
002D0780
002D0B80
003C0B40
007C0F40
3FFFFFF8
3FFFFFF8
05B95E50
00F42E00
00F02D00
00F03D00
01E03C00
01E03C00
FFFFFFE0
FFFFFFE0
03D0B800
03C0B400
0780F000
0780F000
0B81F000
0B41E000
0F42E000
ENDCHAR
STARTCHAR dollar
ENCODING 36
SWIDTH 493 0
DWIDTH 16 0
BBX 13 30 1 -3
BITMAP
00050000
000F4000
000F4000
000F4000
007FE000
02FFFC00
0BFAFE00
0FC02F40
1F401F80
1F400F80
1F400FC0
1F800540
0FC00000
0BF40000
03FF4000
00BFF400
001BFE00
0000BF40
00002F80
00000FC0
7E000BC0
3E000BC0
3F000FC0
2F402F80
1FE6BF00
07FFFD00
01BFE000
001F0000
001F0000
001F0000
ENDCHAR
STARTCHAR percent
ENCODING 37
SWIDTH 632 0
DWIDTH 20 0
BBX 18 23 1 0
BITMAP
06F4000000
1FFE000000
3D1F006000
7C0B40B400
780781E000
780782D000
7807878000
7C0B4B4000
3D1F5E0000
1FFE3D0000
06F4780000
0000F40000
0001E1BE00
0003C3FF80
00078B83D0
000F0F01E0
001E0F01E0
003C0F01E0
00B80F01E0
00F00F01E0
00500B83D0
000003FF80
000001BE00
ENDCHAR
STARTCHAR ampersand
ENCODING 38
SWIDTH 543 0
DWIDTH 17 0
BBX 16 23 1 0
BITMAP
006F9000
02FFF800
07F9FD00
0BD03E00
0BC03E00
0FC03E00
0BC07D00
07E0FC00
03F7F400
01FFD000
00FF4000
02FF4000
0BEFC068
1F8BE0BC
3F03F4B8
7E01FCF8
7D00BFF4
7D002FF0
3E000FE0
2F401FE0
1FE5BFF4
07FFFDFC
00BF907E
ENDCHAR
STARTCHAR quotesingle
ENCODING 39
SWIDTH 174 0
DWIDTH 6 0
BBX 3 7 1 17
BITMAP
7C
7C
7C
7C
78
78
78
ENDCHAR
STARTCHAR parenleft
ENCODING 40
SWIDTH 313 0
DWIDTH 10 0
BBX 7 33 2 -7
BITMAP
0008
003C
00B8
01F0
03D0
0B80
0F40
1F00
2E00
3E00
7D00
BC00
BC00
BC00
FC00
F800
F800
F800
FC00
BC00
BC00
7C00
7D00
3E00
2E00
1F00
0F40
0B80
03D0
01F0
00B8
003C
0008
ENDCHAR
STARTCHAR parenright
ENCODING 41
SWIDTH 318 0
DWIDTH 10 0
BBX 7 33 1 -7
BITMAP
8000
F000
B800
3E00
1F00
0F80
07C0
03D0
02E0
02F0
01F4
00F8
00F8
00FC
00FC
00BC
00BC
00BC
00BC
00FC
00F8
00F8
01F4
01F0
02E0
03D0
07C0
0B80
1F00
2E00
B800
F000
8000
ENDCHAR
STARTCHAR asterisk
ENCODING 42
SWIDTH 430 0
DWIDTH 14 0
BBX 13 13 0 10
BITMAP
001F0000
001F0000
001F0000
001F0000
390F07C0
7FEFBFC0
1BFFFE40
007F9000
00BFD000
01F6F000
03E0F800
0BC07D00
02402800
ENDCHAR
STARTCHAR plus
ENCODING 43
SWIDTH 496 0
DWIDTH 16 0
BBX 14 17 1 2
BITMAP
001A4000
001F4000
001F4000
001F4000
001F4000
001F4000
001F4000
BFFFFFD0
BFFFFFD0
6ABFAA90
001F4000
001F4000
001F4000
001F4000
001F4000
001F4000
001F4000
ENDCHAR
STARTCHAR comma
ENCODING 44
SWIDTH 196 0
DWIDTH 6 0
BBX 5 9 0 -5
BITMAP
0540
0F80
0F80
0F80
0F80
1F40
2F00
7D00
2800
ENDCHAR
STARTCHAR hyphen
ENCODING 45
SWIDTH 248 0
DWIDTH 8 0
BBX 8 3 0 8
BITMAP
7FFD
7FFD
1554
ENDCHAR
STARTCHAR period
ENCODING 46
SWIDTH 263 0
DWIDTH 8 0
BBX 4 4 2 0
BITMAP
14
BE
BE
7D
ENDCHAR
STARTCHAR slash
ENCODING 47
SWIDTH 370 0
DWIDTH 12 0
BBX 11 25 0 -2
BITMAP
0000B8
0000F4
0001F0
0002E0
0003D0
0007C0
000B80
000F40
001F00
002E00
003D00
007C00
00B800
00F400
00F400
01F000
02E000
03D000
07C000
0B8000
0F4000
1F0000
2E0000
3D0000
7C0000
ENDCHAR
STARTCHAR zero
ENCODING 48
SWIDTH 493 0
DWIDTH 16 0
BBX 13 23 1 0
BITMAP
00BF9000
03FFF800
0BE5FE00
1F803F00
2F401F40
2F000F80
3E000F80
3E000FC0
3E000BC0
7E000BC0
7E000BC0
7E000BC0
7E000BC0
7E000BC0
3E000BC0
3E000FC0
3E000F80
2F000F80
2F401F40
1F803F00
0BE5FE00
03FFF800
006F9000
ENDCHAR
STARTCHAR one
ENCODING 49
SWIDTH 493 0
DWIDTH 16 0
BBX 8 23 2 0
BITMAP
000B
01BF
1FFF
BFFF
B92F
502F
002F
002F
002F
002F
002F
002F
002F
002F
002F
002F
002F
002F
002F
002F
002F
002F
002F
ENDCHAR
STARTCHAR two
ENCODING 50
SWIDTH 493 0
DWIDTH 16 0
BBX 14 23 1 0
BITMAP
00BF9000
07FFF800
1FE5FE00
2F403F40
7E001F80
7D001F80
7D000F80
00001F80
00001F40
00003F00
00007D00
0000FC00
0002F400
000BE000
001F8000
003F0000
00BD0000
02F80000
07E00000
0FC00000
2F955550
7FFFFFE0
7FFFFFE0
ENDCHAR
STARTCHAR three
ENCODING 51
SWIDTH 493 0
DWIDTH 16 0
BBX 13 23 1 0
BITMAP
01BF9000
07FFF800
1FE6FD00
2F403F00
3E002F40
7E001F40
14001F40
00002F40
00003F00
0001BD00
00BFF400
00BFF400
0056FD00
00003F00
00001F40
00000F80
14000F80
7D000F80
7E001F40
3F403F00
1FE5FE00
0BFFF800
01BF9000
ENDCHAR
STARTCHAR four
ENCODING 52
SWIDTH 493 0
DWIDTH 16 0
BBX 14 23 1 0
BITMAP
0000FD00
0001FD00
0003FD00
000BFD00
000FFD00
002FBD00
003D7D00
00BC7D00
01F47D00
02F07D00
07D07D00
0B807D00
1F407D00
3E007D00
7D007D00
FFFFFFE0
FFFFFFE0
5555BE50
00007D00
00007D00
00007D00
00007D00
00007D00
ENDCHAR
STARTCHAR five
ENCODING 53
SWIDTH 493 0
DWIDTH 16 0
BBX 13 23 2 0
BITMAP
0FFFFE00
1FFFFE00
1FAAAA00
1F400000
1F000000
2F000000
2F000000
2F000000
2E6F9000
3FFFF400
3FEBFD00
2E00BE00
00003F00
00002F40
00001F40
00001F40
54001F40
BC002F40
7D003F00
3F007E00
2FE6FC00
0BFFF400
01BF8000
ENDCHAR
STARTCHAR six
ENCODING 54
SWIDTH 493 0
DWIDTH 16 0
BBX 13 23 2 0
BITMAP
001BD000
01FFD000
07FE9000
0FE00000
1F800000
3F000000
7D000000
7D000000
BC7F9000
BEFFF400
FFE6FC00
FF00BE00
FD003F00
FC002F00
FC002F00
FC002F40
BC002F00
BD002F00
7E003E00
2F40BD00
1FE6FC00
07FFF000
01BF8000
ENDCHAR
STARTCHAR seven
ENCODING 55
SWIDTH 493 0
DWIDTH 16 0
BBX 14 23 1 0
BITMAP
BFFFFFD0
BFFFFFD0
55555BC0
00000F80
00001F40
00002F00
00003E00
00007D00
0000FC00
0001F400
0002F000
0003E000
0007D000
000BC000
000F8000
002F4000
003F0000
007E0000
00BD0000
00F80000
01F40000
02F00000
03E00000
ENDCHAR
STARTCHAR eight
ENCODING 56
SWIDTH 493 0
DWIDTH 16 0
BBX 12 23 2 0
BITMAP
02FE40
0FFFE0
2F97F8
7E00FC
BD00BD
BC007D
BC007D
BD007D
7E00BC
2F42F4
0BFFE0
0BFFD0
2F97F4
7E00BC
BC007E
F8003E
F8002F
F8003F
FC003E
BD00BD
3F96FC
1FFFF0
02FE40
ENDCHAR
STARTCHAR nine
ENCODING 57
SWIDTH 493 0
DWIDTH 16 0
BBX 13 23 1 0
BITMAP
00BF8000
07FFF400
0FE6FC00
2F40BE00
3F003F00
3E002F40
7D001F40
7D000F80
7D000F80
7E000F80
3E001F80
2F403F80
1FD1FF80
0BFFEF80
02FF9F40
00141F40
00002F00
00003E00
0000BD00
0002F800
01AFF000
02FF8000
02E90000
ENDCHAR
STARTCHAR colon
ENCODING 58
SWIDTH 233 0
DWIDTH 7 0
BBX 4 18 2 0
BITMAP
14
BE
BE
7D
00
00
00
00
00
00
00
00
00
00
14
BE
BE
7D
ENDCHAR
STARTCHAR semicolon
ENCODING 59
SWIDTH 202 0
DWIDTH 6 0
BBX 5 23 1 -5
BITMAP
0500
3F40
3F40
2E00
0000
0000
0000
0000
0000
0000
0000
0000
0000
0000
1500
2F00
2F00
2F00
3F00
7E00
BC00
F800
6000
ENDCHAR
STARTCHAR less
ENCODING 60
SWIDTH 445 0
DWIDTH 14 0
BBX 11 14 1 3
BITMAP
000018
0000BC
000BFC
007FE4
07FE40
6FE400
BE4000
BE4000
6FE400
07FE40
007FE4
000BFC
0000BC
000018
ENDCHAR
STARTCHAR equal
ENCODING 61
SWIDTH 479 0
DWIDTH 15 0
BBX 12 10 2 6
BITMAP
BFFFFD
BFFFFD
6AAAA8
000000
000000
000000
000000
BFFFFD
BFFFFD
6AAAA8
ENDCHAR
STARTCHAR greater
ENCODING 62
SWIDTH 459 0
DWIDTH 15 0
BBX 12 14 2 3
BITMAP
900000
F90000
FF9000
2FF900
02FF80
001FF8
0001FD
0002FD
002FF8
02FF80
6FF800
FF9000
F90000
900000
ENDCHAR
STARTCHAR question
ENCODING 63
SWIDTH 421 0
DWIDTH 14 0
BBX 11 23 1 0
BITMAP
02FE40
1FFFE0
3FEBF4
7E01F8
BD00FC
6800BC
0000BC
0000FC
0001F8
0003F0
000BD0
002F80
007E00
00BD00
00FC00
00F800
005400
000000
000000
001000
00F800
00FC00
00B800
ENDCHAR
STARTCHAR at
ENCODING 64
SWIDTH 769 0
DWIDTH 25 0
BBX 22 29 1 -7
BITMAP
00006FF90000
0007FFFFD000
001FD416F400
007D00007D00
01F400001F00
02E000000B80
07C0000003C0
0B400BF402D0
0F002FFE01E0
1E00BD1F00E0
2D01F41F00F0
3D02E01E00F0
3D03D01E00F0
3C07C02E00F0
7C07C02E00F0
7C07C02D00F0
7C0BC02D00E0
3C0BC03D01E0
3C07C0BD03C0
3D03E6FE0B80
2E02FF9FFF00
1E00BE06F800
0F4000000000
0B8000000000
03D000000000
01F400000000
00BE401A0000
001FFFFE0000
0001BFE40000
ENDCHAR
STARTCHAR A
ENCODING 65
SWIDTH 576 0
DWIDTH 18 0
BBX 18 23 0 0
BITMAP
0000F80000
0001FC0000
0002FD0000
0003FE0000
0007EF0000
000B9F4000
000F4F8000
001F0BC000
002F07C000
003E03D000
007D02E000
00BC01F000
00F800F400
01F400B800
02FFFFFC00
03FFFFFD00
07E5557E00
0BC0002F00
0F80001F40
1F80000F80
2F40000BC0
3F00000BD0
7E000007E0
ENDCHAR
STARTCHAR B
ENCODING 66
SWIDTH 545 0
DWIDTH 17 0
BBX 14 23 2 0
BITMAP
BFFFE400
BFFFFD00
BE56BF40
BD001F80
BD000FC0
BD000BC0
BD000BC0
BD000FC0
BD001F80
BD007F00
BFFFFD00
BFFFF900
BE55BF40
BD000FC0
BD000BD0
BD0007E0
BD0007E0
BD0007E0
BD000BD0
BD001FC0
BE55BF80
BFFFFE00
BFFFE400
ENDCHAR
STARTCHAR C
ENCODING 67
SWIDTH 566 0
DWIDTH 18 0
BBX 15 23 2 0
BITMAP
006FE800
02FFFF40
0FF9AFC0
2F800BE0
3F0003F0
BD0002F4
BC0001F8
FC0000A4
FC000000
FC000000
F8000000
F8000000
F8000000
F8000000
FC000000
FC0000A4
BC0001F8
BD0002F4
3F0002F0
2F8007E0
0FF9AFC0
02FFFF40
006FE400
ENDCHAR
STARTCHAR D
ENCODING 68
SWIDTH 570 0
DWIDTH 18 0
BBX 15 23 2 0
BITMAP
BFFF9000
BFFFF800
BE5AFF00
BD002F80
BD000BD0
BD0007E0
BD0003F0
BD0002F0
BD0002F4
BD0002F4
BD0002F4
BD0002F4
BD0002F4
BD0002F4
BD0002F4
BD0002F0
BD0003F0
BD0007E0
BD000BD0
BD002F80
BE5AFF00
BFFFF800
BFFE9000
ENDCHAR
STARTCHAR E
ENCODING 69
SWIDTH 496 0
DWIDTH 16 0
BBX 13 23 2 0
BITMAP
BFFFFF80
BFFFFF80
BE555540
BD000000
BD000000
BD000000
BD000000
BD000000
BD000000
BD000000
BFFFFD00
BFFFFD00
BE555400
BD000000
BD000000
BD000000
BD000000
BD000000
BD000000
BD000000
BE555540
BFFFFF80
BFFFFF80
ENDCHAR
STARTCHAR F
ENCODING 70
SWIDTH 480 0
DWIDTH 15 0
BBX 13 23 2 0
BITMAP
BFFFFF40
BFFFFF40
BE555500
BD000000
BD000000
BD000000
BD000000
BD000000
BD000000
BD000000
BFFFFC00
BFFFFC00
BE555400
BD000000
BD000000
BD000000
BD000000
BD000000
BD000000
BD000000
BD000000
BD000000
BD000000
ENDCHAR
STARTCHAR G
ENCODING 71
SWIDTH 590 0
DWIDTH 19 0
BBX 15 23 2 0
BITMAP
006FE800
07FFFF40
1FF9BFD0
3F800BE0
7E0003F4
BD0001F4
BC0001F8
FC000000
FC000000
F8000000
F8000000
F8000000
F801FFF8
F801FFF8
FC0056F8
FC0001F8
BC0001F8
BD0001F8
7F0001F8
2F8002F8
0FF96FF4
02FFFFD0
006FF900
ENDCHAR
STARTCHAR H
ENCODING 72
SWIDTH 620 0
DWIDTH 20 0
BBX 16 23 2 0
BITMAP
BD0000BD
BD0000BD
BD0000BD
BD0000BD
BD0000BD
BD0000BD
BD0000BD
BD0000BD
BD0000BD
BD0000BD
BFFFFFFD
BFFFFFFD
BE5555BD
BD0000BD
BD0000BD
BD0000BD
BD0000BD
BD0000BD
BD0000BD
BD0000BD
BD0000BD
BD0000BD
BD0000BD
ENDCHAR
STARTCHAR I
ENCODING 73
SWIDTH 250 0
DWIDTH 8 0
BBX 4 23 2 0
BITMAP
7D
7D
7D
7D
7D
7D
7D
7D
7D
7D
7D
7D
7D
7D
7D
7D
7D
7D
7D
7D
7D
7D
7D
ENDCHAR
STARTCHAR J
ENCODING 74
SWIDTH 483 0
DWIDTH 15 0
BBX 13 23 1 0
BITMAP
00002F40
00002F40
00002F40
00002F40
00002F40
00002F40
00002F40
00002F40
00002F40
00002F40
00002F40
00002F40
00002F40
00002F40
00002F40
00002F40
A4002F00
FC003F00
FD007F00
BE00BE00
3FABFC00
1FFFF400
02FF8000
ENDCHAR
STARTCHAR K
ENCODING 75
SWIDTH 544 0
DWIDTH 17 0
BBX 15 23 2 0
BITMAP
BD0003F4
BD000BE0
BD001FC0
BD007F40
BD00FD00
BD02F800
BD07F000
BD0FD000
BD2F8000
BD7E0000
BEFE0000
BFFF4000
BFEF8000
BF8BD000
BE07F000
BD02F800
BD00FD00
BD007F00
BD002F80
BD001FD0
BD000BE0
BD0003F4
BD0001FC
ENDCHAR
STARTCHAR L
ENCODING 76
SWIDTH 475 0
DWIDTH 15 0
BBX 13 23 2 0
BITMAP
BD000000
BD000000
BD000000
BD000000
BD000000
BD000000
BD000000
BD000000
BD000000
BD000000
BD000000
BD000000
BD000000
BD000000
BD000000
BD000000
BD000000
BD000000
BD000000
BD000000
BE555500
BFFFFF40
BFFFFF40
ENDCHAR
STARTCHAR M
ENCODING 77
SWIDTH 755 0
DWIDTH 24 0
BBX 20 23 2 0
BITMAP
BF400000FE
BF800001FE
BFC00002FE
BFD00003FE
BFE00007FE
BFF0000BFE
BEF4000FBE
BDF8001F7E
BCF8002F3E
BDBC003E3E
BD7D007D3E
BD3E00BC3E
BD2F00F83E
BD1F41F43E
BD0F82F03E
BD0BC3E03E
BD07D7D03E
BD03EBC03E
BD02FF803E
BD01FF403E
BD00FF003E
BD00BE003E
BD007D003E
ENDCHAR
STARTCHAR N
ENCODING 78
SWIDTH 619 0
DWIDTH 20 0
BBX 16 23 2 0
BITMAP
BE0000BD
BF0000BD
BF8000BD
BFC000BD
BFE000BD
BFF000BD
BDF800BD
BDBD00BD
BD3E00BD
BD2F40BD
BD0F80BD
BD07D0BD
BD03E0BD
BD01F4BD
BD00F8BD
BD007DBD
BD003EBD
BD001FFD
BD000FFD
BD0007FD
BD0003FD
BD0001FD
BD0000BD
ENDCHAR
STARTCHAR O
ENCODING 79
SWIDTH 600 0
DWIDTH 19 0
BBX 16 23 2 0
BITMAP
006FE400
02FFFF40
0FFABFD0
2F800BF0
3F0002F4
7D0001F8
BC0000FC
FC0000BC
FC0000BD
F80000BD
F80000BD
F80000BD
F80000BD
F80000BD
FC0000BD
FC0000BC
BC0000FC
BD0001F8
3F0002F4
2F800BF0
0FFABFD0
02FFFF40
006FE400
ENDCHAR
STARTCHAR P
ENCODING 80
SWIDTH 554 0
DWIDTH 18 0
BBX 15 23 2 0
BITMAP
BFFFE400
BFFFFF40
BE55BFC0
BD000BE0
BD0003F0
BD0002F4
BD0001F4
BD0001F4
BD0001F4
BD0002F4
BD0007F0
BD001FD0
BFFFFF80
BFFFFE00
BE555000
BD000000
BD000000
BD000000
BD000000
BD000000
BD000000
BD000000
BD000000
ENDCHAR
STARTCHAR Q
ENCODING 81
SWIDTH 600 0
DWIDTH 19 0
BBX 16 27 1 -4
BITMAP
001BF900
01FFFFD0
03FEAFF0
0BE002F8
1F8000BD
2F40007E
3F00003E
3E00003F
3E00002F
7E00002F
7E00002F
7E00002F
7E00002F
7E00002F
3E00002F
3E00003F
3F00003E
2F40007E
1F8000BD
0BE002F8
03FEAFF0
01FFFFD0
001BFFF0
000002FD
000000BF
0000002E
00000004
ENDCHAR
STARTCHAR R
ENCODING 82
SWIDTH 530 0
DWIDTH 17 0
BBX 15 23 2 0
BITMAP
BFFFE400
BFFFFE00
BE56BF40
BD001FC0
BD000BD0
BD0007E0
BD0007E0
BD0007E0
BD000BD0
BD000FC0
BD007F80
BFFFFE00
BFFFF800
BE56F400
BD01F800
BD00BD00
BD007E00
BD003F00
BD002F80
BD000FC0
BD000BD0
BD0007F0
BD0003F4
ENDCHAR
STARTCHAR S
ENCODING 83
SWIDTH 518 0
DWIDTH 17 0
BBX 15 23 1 0
BITMAP
006FE400
02FFFE00
0FF9BF80
2F800BD0
3F0003F0
3F0002F0
3F0002F4
3F000000
2FC00000
0FF80000
07FF9000
00BFFD00
0007FF40
00006FD0
00000BE0
000003F0
BD0002F4
BD0002F4
7E0003F0
2F800BE0
0FF9BFD0
06FFFF40
006FE800
ENDCHAR
STARTCHAR T
ENCODING 84
SWIDTH 520 0
DWIDTH 17 0
BBX 15 23 1 0
BITMAP
FFFFFFF8
FFFFFFF8
556FD554
000F8000
000F8000
000F8000
000F8000
000F8000
000F8000
000F8000
000F8000
000F8000
000F8000
000F8000
000F8000
000F8000
000F8000
000F8000
000F8000
000F8000
000F8000
000F8000
000F8000
ENDCHAR
STARTCHAR U
ENCODING 85
SWIDTH 561 0
DWIDTH 18 0
BBX 14 23 2 0
BITMAP
FC0003F0
FC0003F0
FC0003F0
FC0003F0
FC0003F0
FC0003F0
FC0003F0
FC0003F0
FC0003F0
FC0003F0
FC0003F0
FC0003F0
FC0003F0
FC0003F0
FC0003F0
FC0003F0
FC0003F0
FC0003F0
BD0007E0
7F000FD0
2FE5BF80
0BFFFE00
01BFE400
ENDCHAR
STARTCHAR V
ENCODING 86
SWIDTH 560 0
DWIDTH 18 0
BBX 17 23 0 0
BITMAP
7F00000FC0
3F40001FC0
2F40002F80
1F80002F40
0FC0003F00
0BD0007E00
07E000BD00
03F000FC00
02F001F800
01F402F400
00F802F000
00BC03E000
00BD07D000
007E0BC000
003E0FC000
002F1F8000
001F5F4000
000FAF0000
000BFE0000
0007FD0000
0003FC0000
0002F80000
0001F40000
ENDCHAR
STARTCHAR W
ENCODING 87
SWIDTH 761 0
DWIDTH 24 0
BBX 23 23 1 0
BITMAP
BC000F8001F4
BD000FC002F4
7D001FC002F0
7E002FD003F0
3E003FE003E0
2F003EE007D0
2F007DF007D0
1F40BCF40BC0
1F40B8F40FC0
0F80F4B80F80
0FC1F07C1F40
0BC1F07C1F40
07D2E03D2F00
07D3D02E2F00
03E3D02E3E00
03E7C01F3D00
02FB800F7D00
01FB800BBC00
01FF400BFC00
00FF0007F800
00FE0003F400
00BE0003F400
007D0002F000
ENDCHAR
STARTCHAR X
ENCODING 88
SWIDTH 550 0
DWIDTH 18 0
BBX 16 23 1 0
BITMAP
BE0000FD
3F4002F8
2F8003F4
0FD00BE0
07E00FC0
03F42F80
01F83F00
00FDBE00
007EFC00
003FF800
001FF000
000FE000
001FF000
003FF800
007EFD00
00FC7E00
02F83F40
03F01F80
0BE00FD0
0FD007E0
2F8003F4
3F4002F8
BE0000FD
ENDCHAR
STARTCHAR Y
ENCODING 89
SWIDTH 524 0
DWIDTH 17 0
BBX 16 23 0 0
BITMAP
7F00007F
3F4000BE
1F8000FC
0FC001F8
0BE002F4
03F007E0
02F40BD0
01F80FC0
00BC1F40
007E2F00
002F7E00
001FFC00
000FF800
0007F400
0003F000
0003E000
0003E000
0003E000
0003E000
0003E000
0003E000
0003E000
0003E000
ENDCHAR
STARTCHAR Z
ENCODING 90
SWIDTH 522 0
DWIDTH 17 0
BBX 15 23 1 0
BITMAP
7FFFFFF0
7FFFFFF0
55555BE0
00000BD0
00001F80
00003F00
0000BE00
0000FC00
0002F400
0007E000
000BD000
001F8000
003F0000
007E0000
00FC0000
02F40000
07F00000
0BD00000
1F800000
3F400000
7F555554
BFFFFFF4
BFFFFFF4
ENDCHAR
STARTCHAR bracketleft
ENCODING 91
SWIDTH 250 0
DWIDTH 8 0
BBX 6 31 2 -5
BITMAP
FFD0
FFD0
FD40
FC00
FC00
FC00
FC00
FC00
FC00
FC00
FC00
FC00
FC00
FC00
FC00
FC00
FC00
FC00
FC00
FC00
FC00
FC00
FC00
FC00
FC00
FC00
FC00
FC00
FD40
FFD0
FFD0
ENDCHAR
STARTCHAR backslash
ENCODING 92
SWIDTH 369 0
DWIDTH 12 0
BBX 11 25 1 -2
BITMAP
F80000
BC0000
7D0000
3E0000
2F0000
1F0000
0F4000
0B8000
07C000
07D000
03E000
02F000
01F400
00F800
00BC00
007D00
003E00
002F00
001F40
000F80
000BC0
0007D0
0003E0
0002F0
0001F4
ENDCHAR
STARTCHAR bracketright
ENCODING 93
SWIDTH 250 0
DWIDTH 8 0
BBX 6 31 0 -5
BITMAP
BFE0
BFE0
57E0
03E0
03E0
03E0
03E0
03E0
03E0
03E0
03E0
03E0
03E0
03E0
03E0
03E0
03E0
03E0
03E0
03E0
03E0
03E0
03E0
03E0
03E0
03E0
03E0
03E0
57E0
BFE0
BFE0
ENDCHAR
STARTCHAR asciicircum
ENCODING 94
SWIDTH 371 0
DWIDTH 12 0
BBX 10 11 1 12
BITMAP
00F000
02F400
03F800
07FC00
0BBD00
0F6E00
1F1F00
2E0F80
3D0BC0
7C07D0
B803E0
ENDCHAR
STARTCHAR underscore
ENCODING 95
SWIDTH 404 0
DWIDTH 13 0
BBX 13 3 0 -3
BITMAP
BFFFFF80
BFFFFF80
55555540
ENDCHAR
STARTCHAR grave
ENCODING 96
SWIDTH 309 0
DWIDTH 10 0
BBX 6 5 1 19
BITMAP
BE00
3F40
0FC0
07E0
01E0
ENDCHAR
STARTCHAR a
ENCODING 97
SWIDTH 479 0
DWIDTH 15 0
BBX 13 17 1 0
BITMAP
00BF9000
07FFF800
0FE5FE00
2F403F00
3F002F00
00002F00
00002F00
00AFFF00
07FFFF00
1FE42F00
3F002F00
3E002F00
7E002F00
3F007F00
2FEAFF40
1FFFAF40
02FE1F80
ENDCHAR
STARTCHAR b
ENCODING 98
SWIDTH 493 0
DWIDTH 16 0
BBX 13 24 2 0
BITMAP
F8000000
F8000000
F8000000
F8000000
F8000000
F8000000
F8000000
F86F9000
FEFFF800
FFE6FD00
FE007E00
FC003F00
F8002F00
F8002F40
F8001F40
F8001F40
F8001F40
F8001F40
F8002F00
FC003F00
FE007E00
FFA6FD00
FAFFF400
F86F9000
ENDCHAR
STARTCHAR c
ENCODING 99
SWIDTH 461 0
DWIDTH 15 0
BBX 13 17 1 0
BITMAP
01BF9000
07FFF800
1FE5BE00
2F402F40
3E001F40
7D000F80
7D000000
7D000000
BD000000
7D000000
7D000000
7D000540
3E000F80
2F402F40
1FE5BE00
07FFF800
01BF9000
ENDCHAR
STARTCHAR d
ENCODING 100
SWIDTH 496 0
DWIDTH 16 0
BBX 13 24 1 0
BITMAP
00000F80
00000F80
00000F80
00000F80
00000F80
00000F80
00000F80
01BE4F80
0BFFEF80
1FE6FF80
3F402F80
3E000F80
7D000F80
7D000F80
BD000F80
BD000F80
BD000F80
7D000F80
7D000F80
3E000F80
2F402F80
1FE6FF80
0BFFEF80
01BE4F80
ENDCHAR
STARTCHAR e
ENCODING 101
SWIDTH 468 0
DWIDTH 15 0
BBX 13 17 1 0
BITMAP
00BF9000
07FFF800
0FE6FE00
2F402F00
3E001F40
7D000F80
7D000F80
7FFFFF80
7FFFFF80
7E555540
7D000000
7D000000
3E000000
2F400A00
1FE5BF40
07FFFE00
00BFE400
ENDCHAR
STARTCHAR f
ENCODING 102
SWIDTH 316 0
DWIDTH 10 0
BBX 9 24 1 0
BITMAP
006F80
01FF80
03FA40
07E000
0BC000
0BC000
0BC000
FFFF00
FFFF00
5BD500
0BC000
0BC000
0BC000
0BC000
0BC000
0BC000
0BC000
0BC000
0BC000
0BC000
0BC000
0BC000
0BC000
0BC000
ENDCHAR
STARTCHAR g
ENCODING 103
SWIDTH 492 0
DWIDTH 16 0
BBX 13 24 1 -7
BITMAP
01BE4B80
0BFFEF80
1FE6FF80
2F402F80
3E000F80
7D000F80
7D000F80
7D000F80
7D000F80
7D000F80
7D000F80
7D000F80
3E000F80
2F402F80
1FE6FF80
0BFFEF80
01BE4F80
00000F80
00000F80
00001F40
0E003F40
1FD6FE00
0BFFF800
00BF9000
ENDCHAR
STARTCHAR h
ENCODING 104
SWIDTH 482 0
DWIDTH 15 0
BBX 12 24 2 0
BITMAP
F80000
F80000
F80000
F80000
F80000
F80000
F80000
F86F90
FEFFF4
FFEBF8
FE00FC
FC00BD
F8007D
F8007D
F8007D
F8007D
F8007D
F8007D
F8007D
F8007D
F8007D
F8007D
F8007D
F8007D
ENDCHAR
STARTCHAR i
ENCODING 105
SWIDTH 229 0
DWIDTH 7 0
BBX 4 24 2 0
BITMAP
10
BC
FD
78
00
00
00
BC
BC
BC
BC
BC
BC
BC
BC
BC
BC
BC
BC
BC
BC
BC
BC
BC
ENDCHAR
STARTCHAR j
ENCODING 106
SWIDTH 223 0
DWIDTH 7 0
BBX 6 31 -1 -7
BITMAP
0040
03E0
03F0
02E0
0000
0000
0000
03F0
03F0
03F0
03F0
03F0
03F0
03F0
03F0
03F0
03F0
03F0
03F0
03F0
03F0
03F0
03F0
03F0
03F0
03F0
03F0
03E0
6BE0
7FC0
7E40
ENDCHAR
STARTCHAR k
ENCODING 107
SWIDTH 450 0
DWIDTH 14 0
BBX 12 24 2 0
BITMAP
FC0000
FC0000
FC0000
FC0000
FC0000
FC0000
FC0000
FC01FC
FC03F4
FC0BE0
FC1F80
FC3F00
FCBD00
FEF800
FFF400
FFFC00
FFBE00
FD3F00
FC1F80
FC0BD0
FC07F0
FC02F8
FC00FD
FC007E
ENDCHAR
STARTCHAR l
ENCODING 108
SWIDTH 229 0
DWIDTH 7 0
BBX 3 24 2 0
BITMAP
BC
BC
BC
BC
BC
BC
BC
BC
BC
BC
BC
BC
BC
BC
BC
BC
BC
BC
BC
BC
BC
BC
BC
BC
ENDCHAR
STARTCHAR m
ENCODING 109
SWIDTH 752 0
DWIDTH 24 0
BBX 20 17 2 0
BITMAP
F86F906FD0
FAFFF5FFF8
FF9BFFEAFD
FD00FF407E
FC00BE003F
F8007D002F
F8007D002F
F8007D002F
F8007D002F
F8007D002F
F8007D002F
F8007D002F
F8007D002F
F8007D002F
F8007D002F
F8007D002F
F8007D002F
ENDCHAR
STARTCHAR n
ENCODING 110
SWIDTH 483 0
DWIDTH 15 0
BBX 12 17 2 0
BITMAP
F86F90
FAFFF4
FFEBF8
FE00FC
FC00BD
F8007D
F8007D
F8007D
F8007D
F8007D
F8007D
F8007D
F8007D
F8007D
F8007D
F8007D
F8007D
ENDCHAR
STARTCHAR o
ENCODING 111
SWIDTH 501 0
DWIDTH 16 0
BBX 14 17 1 0
BITMAP
00AFA000
07FFFD00
0FE5BF00
2F802F80
3F000FC0
7E0007D0
7D0007D0
7D0007E0
BD0007E0
BD0007E0
7D0007D0
7E0007D0
3F000BC0
2F801F80
0FE5BF00
07FFFD00
00AFE000
ENDCHAR
STARTCHAR p
ENCODING 112
SWIDTH 493 0
DWIDTH 16 0
BBX 13 24 2 -7
BITMAP
F87F9000
FAFFF400
FFAAFD00
FD00BE00
FC003F00
F8002F00
F8002F40
F8001F40
F8001F40
F8001F40
F8002F40
F8002F00
FC003F00
FD00BE00
FF96FD00
FEFFF400
F8BF9000
F8000000
F8000000
F8000000
F8000000
F8000000
F8000000
F8000000
ENDCHAR
STARTCHAR q
ENCODING 113
SWIDTH 500 0
DWIDTH 16 0
BBX 13 24 1 -7
BITMAP
01BE4F80
0BFFEF80
1FE5BF80
3F402F80
3E000F80
7D000F80
7D000F80
BD000F80
BD000F80
BD000F80
7D000F80
7D000F80
3E000F80
3F402F80
1FE5BF80
0BFFEF80
01BE4F80
00000F80
00000F80
00000F80
00000F80
00000F80
00000F80
00000F80
ENDCHAR
STARTCHAR r
ENCODING 114
SWIDTH 304 0
DWIDTH 10 0
BBX 7 17 2 0
BITMAP
F8BC
FAFC
FFFC
FE00
FC00
F800
F800
F800
F800
F800
F800
F800
F800
F800
F800
F800
F800
ENDCHAR
STARTCHAR s
ENCODING 115
SWIDTH 455 0
DWIDTH 15 0
BBX 12 17 1 0
BITMAP
01BF90
0BFFF4
1FE6FD
2F007E
3F003E
3F0000
2FD000
0BFE00
01FFE0
001BFC
0001FE
14003F
7D002F
3F003F
2FE6FD
0BFFF8
01BF90
ENDCHAR
STARTCHAR t
ENCODING 116
SWIDTH 295 0
DWIDTH 9 0
BBX 9 21 0 0
BITMAP
03E000
03E000
03E000
03E000
BFFF40
BFFF40
17E500
03E000
03E000
03E000
03E000
03E000
03E000
03E000
03E000
03E000
03E000
03E000
02FA00
01FF40
007F00
ENDCHAR
STARTCHAR u
ENCODING 117
SWIDTH 483 0
DWIDTH 15 0
BBX 12 17 2 0
BITMAP
F8007D
F8007D
F8007D
F8007D
F8007D
F8007D
F8007D
F8007D
F8007D
F8007D
F8007D
FC007D
FC00BD
BD01FD
7F9BFD
2FFFBD
07F97D
ENDCHAR
STARTCHAR v
ENCODING 118
SWIDTH 427 0
DWIDTH 14 0
BBX 12 17 1 0
BITMAP
F8003E
FC007D
BD00BC
7D00BC
3E00F8
2F01F4
1F42F0
0F42E0
0B83D0
07C7C0
03DB80
03EB40
02FF40
01FF00
00FE00
00BD00
007C00
ENDCHAR
STARTCHAR w
ENCODING 119
SWIDTH 649 0
DWIDTH 21 0
BBX 19 17 1 0
BITMAP
F800F800FC
F800FC00F8
BC01FC01F4
7D02FD02F0
3D03FE02F0
3E07EF03E0
2F07DF43D0
1F0B8F47C0
0F4F4B8BC0
0F9F07CB80
0BAE03DF40
07FE03EF00
07FD02FF00
03FC01FE00
02F800FD00
01F800BD00
01F400BC00
ENDCHAR
STARTCHAR x
ENCODING 120
SWIDTH 438 0
DWIDTH 14 0
BBX 12 17 1 0
BITMAP
BD007E
7E00FD
2F41F8
1F82F0
0BD7E0
03EBC0
02FF40
00FF00
00BE00
00FF00
02FF80
07EBC0
0BC3E0
1F82F4
2F41F8
7E00BD
FD007F
ENDCHAR
STARTCHAR y
ENCODING 121
SWIDTH 416 0
DWIDTH 13 0
BBX 13 24 0 -7
BITMAP
7E001F80
3F002F40
2F403F00
1F403E00
0F807D00
0FC0BC00
0BD0FC00
07D0F800
03E1F400
02F2F000
01F7E000
00FBD000
00BFC000
00BFC000
007F8000
003F4000
002F0000
002E0000
003D0000
007D0000
00B80000
1BF40000
2FE00000
2F800000
ENDCHAR
STARTCHAR z
ENCODING 122
SWIDTH 438 0
DWIDTH 14 0
BBX 12 17 1 0
BITMAP
7FFFFD
7FFFFD
5555FD
0001F8
0003F0
000BD0
001F80
003F00
00BD00
01F800
02F400
07E000
0FC000
2F4000
7F5555
BFFFFE
BFFFFE
ENDCHAR
STARTCHAR braceleft
ENCODING 123
SWIDTH 306 0
DWIDTH 10 0
BBX 8 31 1 -6
BITMAP
000A
007F
00FD
02F4
03F0
03E0
03E0
07E0
07E0
07E0
07E0
07D0
0BD0
1F80
FF00
FE00
6F80
0BC0
07D0
07E0
07E0
07E0
07E0
07E0
03E0
03E0
02F0
01F4
00BD
003F
000A
ENDCHAR
STARTCHAR bar
ENCODING 124
SWIDTH 243 0
DWIDTH 8 0
BBX 3 27 2 -4
BITMAP
7C
7C
7C
7C
7C
7C
7C
7C
7C
7C
7C
7C
7C
7C
7C
7C
7C
7C
7C
7C
7C
7C
7C
7C
7C
7C
7C
ENDCHAR
STARTCHAR braceright
ENCODING 125
SWIDTH 306 0
DWIDTH 10 0
BBX 9 31 0 -6
BITMAP
240000
7E0000
1F8000
0BD000
07E000
03E000
03F000
02F000
02F000
02F000
02F000
02F000
01F400
00FD00
007F80
002F80
00BE40
01F800
02F000
02F000
02F000
02F000
02F000
02F000
03F000
03E000
07E000
0BC000
1F8000
7E0000
240000
ENDCHAR
STARTCHAR asciitilde
ENCODING 126
SWIDTH 589 0
DWIDTH 19 0
BBX 15 7 2 6
BITMAP
01900000
1FF8007C
3FFF00B8
BD2F80F4
F80BFBF0
F402FFD0
00006F40
ENDCHAR
STARTCHAR uni00A0
ENCODING 160
SWIDTH 229 0
DWIDTH 7 0
BBX 1 1 0 0
BITMAP
00
ENDCHAR
STARTCHAR exclamdown
ENCODING 161
SWIDTH 231 0
DWIDTH 7 0
BBX 4 23 2 -6
BITMAP
78
FD
BC
10
00
00
54
7C
BC
BC
BC
BC
BC
BC
BC
BC
BC
BC
BC
BD
BD
BD
BD
ENDCHAR
STARTCHAR cent
ENCODING 162
SWIDTH 479 0
DWIDTH 15 0
BBX 13 25 1 -4
BITMAP
001A0000
002F4000
002F4000
002F4000
00BFE000
03FFFC00
0BE5BE00
1F802F40
2F001F80
3E000F80
7D000000
7D000000
7D000000
7D000000
7D000000
3E000540
3F000F80
1F402F40
0FE5BE00
07FFFC00
00BFE000
002F4000
002F4000
002F4000
001A4000
ENDCHAR
STARTCHAR sterling
ENCODING 163
SWIDTH 510 0
DWIDTH 16 0
BBX 15 23 1 0
BITMAP
001BF800
00BFFF40
01FEBFC0
03F40BD0
07E007E0
0BD003F0
0BD00000
0BD00000
0BD00000
0BD00000
0BD00000
BFFFD000
BFFFD000
5BE55000
07D00000
07D00000
07E00000
07D00000
0BD00000
0BC00000
6FD55550
7FFFFFF4
7FFFFFF4
ENDCHAR
STARTCHAR currency
ENCODING 164
SWIDTH 712 0
DWIDTH 23 0
BBX 20 21 2 0
BITMAP
1000000010
7806FE40B4
FE7FFFF6FD
BFFFAFFFF8
2FF800BFE0
1FD0001FD0
2F400007E0
7E000002F4
BD000001F4
BC000000F8
BC000000F8
BC000000F8
BC000000F8
BD000001F4
7E000002F4
2F400007E0
1FD0001FD0
3FF800BFF0
FFFFABFFFC
BD7FFFF5F8
2406FE4060
ENDCHAR
STARTCHAR yen
ENCODING 165
SWIDTH 463 0
DWIDTH 15 0
BBX 14 23 0 0
BITMAP
7F0003F0
3F4007E0
1F800BD0
0FC00FC0
0BD02F40
03E03F00
02F07E00
01F8BC00
00FCF800
007EF400
003FE000
0FFFFFC0
0FFFFFC0
000F8000
000F8000
000F8000
0FFFFFC0
0FFFFF80
000F8000
000F8000
000F8000
000F8000
000F8000
ENDCHAR
STARTCHAR brokenbar
ENCODING 166
SWIDTH 239 0
DWIDTH 8 0
BBX 4 27 2 -4
BITMAP
BD
BD
BD
BD
BD
BD
BD
BD
BD
BD
BD
BD
00
00
00
BD
BD
BD
BD
BD
BD
BD
BD
BD
BD
BD
BD
ENDCHAR
STARTCHAR section
ENCODING 167
SWIDTH 537 0
DWIDTH 17 0
BBX 15 31 1 -8
BITMAP
006FE400
03FFFF40
0FF97FC0
1F800BE0
2F0003F0
3F0002F0
3F0001A0
2F400000
1FD00000
0BFE0000
07FFE400
1FEFFF40
3E01FFD0
7D001FE0
7D0003F4
7D0001F4
7F0001F4
3F9001F4
1FF903F0
07FFEFD0
007FFF40
0006FF80
00002FD0
000007E0
690003E0
7D0003F0
7E0003E0
3F400BD0
1FE5BFC0
07FFFF00
00AFE400
ENDCHAR
STARTCHAR dieresis
ENCODING 168
SWIDTH 417 0
DWIDTH 13 0
BBX 11 4 1 20
BITMAP
040050
7E01F4
7F02F8
2D01F4
ENDCHAR
STARTCHAR copyright
ENCODING 169
SWIDTH 785 0
DWIDTH 25 0
BBX 23 23 1 0
BITMAP
0001AFE90000
001BFFFF9000
007E4006F400
01F400007E00
07D000001F40
0F406FE407C0
1E02FFFD02D0
3C07E46F00F0
780B800F40B4
740F40064074
B40F40000078
B40F00000078
B40F40000078
740F400A4074
780B800F40B4
3C07E06F00F0
1E02FFFD02D0
0F406FE407C0
07D000001F40
01F400007D00
007E4006F400
001BFFFF9000
0001AFE90000
ENDCHAR
STARTCHAR ordfeminine
ENCODING 170
SWIDTH 395 0
DWIDTH 13 0
BBX 9 12 2 11
BITMAP
0BF800
3FFE00
7D6F00
680F40
000F40
1BFF40
7FAF40
BC0F40
B80F40
BD6F40
7FFF40
1FDF80
ENDCHAR
STARTCHAR guillemotleft
ENCODING 171
SWIDTH 417 0
DWIDTH 13 0
BBX 11 13 1 2
BITMAP
00F478
01E0F0
03D2E0
0B87C0
1F0F80
3E1F00
7D3E00
3E2F00
1F0F80
0B87C0
03D2E0
01E0F0
00F478
ENDCHAR
STARTCHAR logicalnot
ENCODING 172
SWIDTH 487 0
DWIDTH 16 0
BBX 11 7 2 6
BITMAP
FFFFFC
FFFFFC
AAAAFC
0000BC
0000BC
0000BC
0000BC
ENDCHAR
STARTCHAR uni00AD
ENCODING 173
SWIDTH 248 0
DWIDTH 8 0
BBX 8 3 0 8
BITMAP
7FFD
7FFD
1554
ENDCHAR
STARTCHAR registered
ENCODING 174
SWIDTH 786 0
DWIDTH 25 0
BBX 23 23 1 0
BITMAP
0001AFE90000
001BFFFF9000
007E4006F400
02F400007D00
07D000001F40
0F43FFE407C0
2E03FFFD02D0
3C03D02F00F0
7803D00F40B4
7403D00F4074
B403D02F0078
B403FFFD0078
B403FFFD0078
7403D02F0074
7803D00F40B4
3C03D00F40F0
1E03D00F42D0
0F43D00F47C0
07D000001F40
01F400007D00
007E4006F400
001BFFFF9000
0001AFE90000
ENDCHAR
STARTCHAR macron
ENCODING 175
SWIDTH 414 0
DWIDTH 13 0
BBX 10 3 2 20
BITMAP
BFFFD0
BFFFD0
555540
ENDCHAR
STARTCHAR degree
ENCODING 176
SWIDTH 373 0
DWIDTH 12 0
BBX 8 8 2 15
BITMAP
0BE0
3FFC
B82E
F00F
F00F
B82E
3FFC
0BE0
ENDCHAR
STARTCHAR plusminus
ENCODING 177
SWIDTH 469 0
DWIDTH 15 0
BBX 13 20 1 0
BITMAP
00150000
001F0000
001F0000
001F0000
001F0000
001F0000
001F0000
7FFFFF80
7FFFFF80
156F5540
001F0000
001F0000
001F0000
001F0000
001F0000
001A0000
00000000
15555500
3FFFFF00
3FFFFF00
ENDCHAR
STARTCHAR uni00B2
ENCODING 178
SWIDTH 329 0
DWIDTH 11 0
BBX 9 13 1 10
BITMAP
0BE400
3FFD00
BD2E00
B81F00
101F00
003E00
00BC00
01F400
07E000
1F8000
3E0000
BFFF40
BFFF40
ENDCHAR
STARTCHAR uni00B3
ENCODING 179
SWIDTH 329 0
DWIDTH 11 0
BBX 8 13 1 10
BITMAP
1BE4
7FFD
B82F
541F
002D
07F8
06FD
002F
001F
F41F
BC2E
7FFD
1BE4
ENDCHAR
STARTCHAR acute
ENCODING 180
SWIDTH 313 0
DWIDTH 10 0
BBX 6 5 2 19
BITMAP
07F0
0FD0
2F40
7E00
B800
ENDCHAR
STARTCHAR mu
ENCODING 181
SWIDTH 498 0
DWIDTH 16 0
BBX 12 24 2 -7
BITMAP
BC003E
BC003E
BC003E
BC003E
BC003E
BC003E
BC003E
BC003E
BC003E
BC003E
BC003E
BC003E
BD007E
BE00BE
BF96FE
BFFFBE
BDBE3E
BC0000
BC0000
BC0000
BC0000
BC0000
BC0000
BC0000
ENDCHAR
STARTCHAR paragraph
ENCODING 182
SWIDTH 434 0
DWIDTH 14 0
BBX 11 23 1 0
BITMAP
006AA4
07FFF4
1FFFF4
3FFFF4
7FFFF4
BFFFF4
BFFFF4
FFFFF4
BFFFF4
BFFFF4
7FFFF4
3FFFF4
1FFFF4
07FFF4
00AFF4
0001F4
0001F4
0001F4
0001F4
0001F4
0001F4
0001F4
0001F4
ENDCHAR
STARTCHAR periodcentered
ENCODING 183
SWIDTH 243 0
DWIDTH 8 0
BBX 4 4 2 9
BITMAP
78
BD
BD
14
ENDCHAR
STARTCHAR cedilla
ENCODING 184
SWIDTH 229 0
DWIDTH 7 0
BBX 4 7 2 -7
BITMAP
B4
FD
6E
0F
1F
BD
E4
ENDCHAR
STARTCHAR uni00B9
ENCODING 185
SWIDTH 329 0
DWIDTH 11 0
BBX 5 13 2 10
BITMAP
01C0
6FC0
FFC0
97C0
07C0
07C0
07C0
07C0
07C0
07C0
07C0
07C0
07C0
ENDCHAR
STARTCHAR ordmasculine
ENCODING 186
SWIDTH 402 0
DWIDTH 13 0
BBX 9 12 2 11
BITMAP
0BF800
2FFE00
BE6F40
F80B80
F407C0
F407C0
F407C0
F407C0
F80B80
BD6F40
2FFE00
0BF800
ENDCHAR
STARTCHAR guillemotright
ENCODING 187
SWIDTH 417 0
DWIDTH 13 0
BBX 11 13 1 2
BITMAP
7C1E00
2E0F40
0F47C0
0B83D0
03D1F0
02F0F8
01F4BC
02F0F8
03D1F0
0B83D0
0F47C0
2E0F40
7C1E00
ENDCHAR
STARTCHAR onequarter
ENCODING 188
SWIDTH 637 0
DWIDTH 20 0
BBX 18 23 1 0
BITMAP
0190000000
2FD0000000
BFD0006000
A7D000B400
03D001F000
03D002D000
03D0078000
03D00B4000
03D01E0000
03D02D0000
03D0780BC0
03D0F41FC0
03D1E03FC0
0003D0BFC0
000780FBC0
000F02D7C0
001E0787C0
003C0B47C0
00781FFFF0
00F01FFFF0
00600007C0
00000007C0
00000007C0
ENDCHAR
STARTCHAR onehalf
ENCODING 189
SWIDTH 677 0
DWIDTH 22 0
BBX 19 23 1 0
BITMAP
0190000000
2FD0000000
BFD0009000
A7D001E000
03D002D000
03D0078000
03D00B4000
03D01E0000
03D03D0000
03D0780000
03D0F06F80
03D1E1FFF0
03D3C3E1F4
000787D0B8
000F0140F8
002E0001F4
003C0003E0
00B8000BC0
00F0002F40
02D0007D00
018001F400
000003FFFC
000003FFFC
ENDCHAR
STARTCHAR threequarters
ENCODING 190
SWIDTH 673 0
DWIDTH 22 0
BBX 20 23 1 0
BITMAP
06F8000000
2FFF000000
3E1F800900
140B800F00
001F402D00
02FD003C00
01BE00B400
000F41F000
000B82D000
680B878000
3E1F8B42F0
2FFF1E07F0
07F82D0FF0
0000781FF0
0000B43DF0
0001E0B5F0
0003D1F1F0
000782D1F0
000F07FFFD
001E07FFFD
00080001F0
00000001F0
00000001F0
ENDCHAR
STARTCHAR questiondown
ENCODING 191
SWIDTH 421 0
DWIDTH 13 0
BBX 11 23 1 -6
BITMAP
007800
00BD00
00BC00
001000
000000
000000
005400
00BC00
00BC00
01F800
02F400
0BE000
1F8000
3F0000
7E0000
BC0000
BC0000
FC00BC
BC00FC
BE01F8
3FABF4
1FFFD0
06FE40
ENDCHAR
STARTCHAR Agrave
ENCODING 192
SWIDTH 576 0
DWIDTH 18 0
BBX 18 30 0 0
BITMAP
007F400000
001FC00000
000BE00000
0002F40000
0000E40000
0000000000
0000000000
0000F80000
0001FC0000
0002FD0000
0003FE0000
0007EF0000
000B9F4000
000F4F8000
001F0BC000
002F07C000
003E03D000
007D02E000
00BC01F000
00F800F400
01F400B800
02FFFFFC00
03FFFFFD00
07E5557E00
0BC0002F00
0F80001F40
1F80000F80
2F40000BC0
3F00000BD0
7E000007E0
ENDCHAR
STARTCHAR Aacute
ENCODING 193
SWIDTH 576 0
DWIDTH 18 0
BBX 18 30 0 0
BITMAP
00000BE000
00001FC000
00003F0000
0000BD0000
0000B40000
0000000000
0000000000
0000F80000
0001FC0000
0002FD0000
0003FE0000
0007EF0000
000B9F4000
000F4F8000
001F0BC000
002F07C000
003E03D000
007D02E000
00BC01F000
00F800F400
01F400B800
02FFFFFC00
03FFFFFD00
07E5557E00
0BC0002F00
0F80001F40
1F80000F80
2F40000BC0
3F00000BD0
7E000007E0
ENDCHAR
STARTCHAR Acircumflex
ENCODING 194
SWIDTH 576 0
DWIDTH 18 0
BBX 18 29 0 0
BITMAP
0000F80000
0003FE0000
000F8F8000
001A078000
0000000000
0000000000
0000F80000
0001FC0000
0002FD0000
0003FE0000
0007EF0000
000B9F4000
000F4F8000
001F0BC000
002F07C000
003E03D000
007D02E000
00BC01F000
00F800F400
01F400B800
02FFFFFC00
03FFFFFD00
07E5557E00
0BC0002F00
0F80001F40
1F80000F80
2F40000BC0
3F00000BD0
7E000007E0
ENDCHAR
STARTCHAR Atilde
ENCODING 195
SWIDTH 576 0
DWIDTH 18 0
BBX 18 29 0 0
BITMAP
0001005000
001FE5F000
003FFFE000
00786F8000
0000000000
0000000000
0000F80000
0001FC0000
0002FD0000
0003FE0000
0007EF0000
000B9F4000
000F4F8000
001F0BC000
002F07C000
003E03D000
007D02E000
00BC01F000
00F800F400
01F400B800
02FFFFFC00
03FFFFFD00
07E5557E00
0BC0002F00
0F80001F40
1F80000F80
2F40000BC0
3F00000BD0
7E000007E0
ENDCHAR
STARTCHAR Adieresis
ENCODING 196
SWIDTH 576 0
DWIDTH 18 0
BBX 18 29 0 0
BITMAP
0014004000
007D02F000
00BE03F400
007D02E000
0000000000
0000000000
0000F80000
0001FC0000
0002FD0000
0003FE0000
0007EF0000
000B9F4000
000F4F8000
001F0BC000
002F07C000
003E03D000
007D02E000
00BC01F000
00F800F400
01F400B800
02FFFFFC00
03FFFFFD00
07E5557E00
0BC0002F00
0F80001F40
1F80000F80
2F40000BC0
3F00000BD0
7E000007E0
ENDCHAR
STARTCHAR Aring
ENCODING 197
SWIDTH 576 0
DWIDTH 18 0
BBX 18 31 0 0
BITMAP
0001F90000
000B9F0000
000E038000
000E038000
000B9B4000
0002F90000
0000000000
0000000000
0000F80000
0001FC0000
0002FD0000
0003FE0000
0007EF0000
000B9F4000
000F4F8000
001F0BC000
002F07C000
003E03D000
007D02E000
00BC01F000
00F800F400
01F400B800
02FFFFFC00
03FFFFFD00
07E5557E00
0BC0002F00
0F80001F40
1F80000F80
2F40000BC0
3F00000BD0
7E000007E0
ENDCHAR
STARTCHAR AE
ENCODING 198
SWIDTH 812 0
DWIDTH 26 0
BBX 26 23 0 0
BITMAP
000002FFFFFF40
000007FFFFFF40
00000BFE555500
00001FFD000000
00002F7D000000
00007E7D000000
0000BC7E000000
0001F87E000000
0002F47E000000
0007E03E000000
000BD03FFFFD00
001FC03FFFFD00
002F403E555400
007F003E000000
00BD003E000000
01FFFFFE000000
02FFFFFF000000
07FAAABF000000
0BE0003F000000
1FC0002F000000
2F80002F555540
7F00002FFFFFD0
BE00002FFFFFD0
ENDCHAR
STARTCHAR Ccedilla
ENCODING 199
SWIDTH 566 0
DWIDTH 18 0
BBX 15 30 2 -7
BITMAP
006FE800
02FFFF40
0FF9AFC0
2F800BE0
3F0003F0
BD0002F4
BC0001F8
FC0000A4
FC000000
FC000000
F8000000
F8000000
F8000000
F8000000
FC000000
FC0000A4
BC0001F8
BD0002F4
3F0002F0
2F8007E0
0FF9AFC0
02FFFF40
006FE400
000B4000
000FD000
0006F000
0000F000
0001F000
000BE000
000E4000
ENDCHAR
STARTCHAR Egrave
ENCODING 200
SWIDTH 496 0
DWIDTH 16 0
BBX 13 30 2 0
BITMAP
0FD00000
07F00000
01F80000
00BD0000
002A0000
00000000
00000000
BFFFFF80
BFFFFF80
BE555540
BD000000
BD000000
BD000000
BD000000
BD000000
BD000000
BD000000
BFFFFD00
BFFFFD00
BE555400
BD000000
BD000000
BD000000
BD000000
BD000000
BD000000
BD000000
BE555540
BFFFFF80
BFFFFF80
ENDCHAR
STARTCHAR Eacute
ENCODING 201
SWIDTH 496 0
DWIDTH 16 0
BBX 13 30 2 0
BITMAP
0001FC00
0007F000
000BD000
001F4000
002E0000
00000000
00000000
BFFFFF80
BFFFFF80
BE555540
BD000000
BD000000
BD000000
BD000000
BD000000
BD000000
BD000000
BFFFFD00
BFFFFD00
BE555400
BD000000
BD000000
BD000000
BD000000
BD000000
BD000000
BD000000
BE555540
BFFFFF80
BFFFFF80
ENDCHAR
STARTCHAR Ecircumflex
ENCODING 202
SWIDTH 496 0
DWIDTH 16 0
BBX 13 29 2 0
BITMAP
002E0000
00BF8000
02E2E000
06C0E400
00000000
00000000
BFFFFF80
BFFFFF80
BE555540
BD000000
BD000000
BD000000
BD000000
BD000000
BD000000
BD000000
BFFFFD00
BFFFFD00
BE555400
BD000000
BD000000
BD000000
BD000000
BD000000
BD000000
BD000000
BE555540
BFFFFF80
BFFFFF80
ENDCHAR
STARTCHAR Edieresis
ENCODING 203
SWIDTH 496 0
DWIDTH 16 0
BBX 13 29 2 0
BITMAP
01001000
1F80BD00
2F80FE00
1F407C00
00000000
00000000
BFFFFF80
BFFFFF80
BE555540
BD000000
BD000000
BD000000
BD000000
BD000000
BD000000
BD000000
BFFFFD00
BFFFFD00
BE555400
BD000000
BD000000
BD000000
BD000000
BD000000
BD000000
BD000000
BE555540
BFFFFF80
BFFFFF80
ENDCHAR
STARTCHAR Igrave
ENCODING 204
SWIDTH 250 0
DWIDTH 8 0
BBX 7 30 -1 0
BITMAP
7F00
2F80
0BD0
03F0
01E4
0000
0000
01F4
01F4
01F4
01F4
01F4
01F4
01F4
01F4
01F4
01F4
01F4
01F4
01F4
01F4
01F4
01F4
01F4
01F4
01F4
01F4
01F4
01F4
01F4
ENDCHAR
STARTCHAR Iacute
ENCODING 205
SWIDTH 250 0
DWIDTH 8 0
BBX 7 30 2 0
BITMAP
03F4
0BE0
1F80
3F00
6D00
0000
0000
7D00
7D00
7D00
7D00
7D00
7D00
7D00
7D00
7D00
7D00
7D00
7D00
7D00
7D00
7D00
7D00
7D00
7D00
7D00
7D00
7D00
7D00
7D00
ENDCHAR
STARTCHAR Icircumflex
ENCODING 206
SWIDTH 250 0
DWIDTH 8 0
BBX 8 29 0 0
BITMAP
07D0
1FF4
7D7D
B82E
0000
0000
07D0
07D0
07D0
07D0
07D0
07D0
07D0
07D0
07D0
07D0
07D0
07D0
07D0
07D0
07D0
07D0
07D0
07D0
07D0
07D0
07D0
07D0
07D0
ENDCHAR
STARTCHAR Idieresis
ENCODING 207
SWIDTH 250 0
DWIDTH 8 0
BBX 10 29 -1 0
BITMAP
100040
BC03E0
FD07F0
B802E0
000000
000000
01F400
01F400
01F400
01F400
01F400
01F400
01F400
01F400
01F400
01F400
01F400
01F400
01F400
01F400
01F400
01F400
01F400
01F400
01F400
01F400
01F400
01F400
01F400
ENDCHAR
STARTCHAR Eth
ENCODING 208
SWIDTH 585 0
DWIDTH 19 0
BBX 17 23 0 0
BITMAP
03FFF90000
03FFFFD000
03F56BF400
03E001FD00
03E0007E00
03E0002F00
03E0001F40
03E0001F80
03E0000F80
03E0000F80
BFFF800F80
BFFF800F80
57F5400F80
03E0000F80
03E0000F80
03E0001F80
03E0001F40
03E0002F00
03E0007E00
03E001FD00
03F56FF400
03FFFFD000
03FFF90000
ENDCHAR
STARTCHAR Ntilde
ENCODING 209
SWIDTH 619 0
DWIDTH 20 0
BBX 16 29 2 0
BITMAP
00000140
00BE5B40
02FFFF00
02D1B900
00000000
00000000
BE0000BD
BF0000BD
BF8000BD
BFC000BD
BFE000BD
BFF000BD
BDF800BD
BDBD00BD
BD3E00BD
BD2F40BD
BD0F80BD
BD07D0BD
BD03E0BD
BD01F4BD
BD00F8BD
BD007DBD
BD003EBD
BD001FFD
BD000FFD
BD0007FD
BD0003FD
BD0001FD
BD0000BD
ENDCHAR
STARTCHAR Ograve
ENCODING 210
SWIDTH 600 0
DWIDTH 19 0
BBX 16 30 2 0
BITMAP
02F80000
00FD0000
007F0000
001F8000
000B8000
00000000
00000000
006FE400
02FFFF40
0FFABFD0
2F800BF0
3F0002F4
7D0001F8
BC0000FC
FC0000BC
FC0000BD
F80000BD
F80000BD
F80000BD
F80000BD
F80000BD
FC0000BD
FC0000BC
BC0000FC
BD0001F8
3F0002F4
2F800BF0
0FFABFD0
02FFFF40
006FE400
ENDCHAR
STARTCHAR Oacute
ENCODING 211
SWIDTH 600 0
DWIDTH 19 0
BBX 16 30 2 0
BITMAP
00007F40
0000FD00
0002F400
0007E000
00068000
00000000
00000000
006FE400
02FFFF40
0FFABFD0
2F800BF0
3F0002F4
7D0001F8
BC0000FC
FC0000BC
FC0000BD
F80000BD
F80000BD
F80000BD
F80000BD
F80000BD
FC0000BD
FC0000BC
BC0000FC
BD0001F8
3F0002F4
2F800BF0
0FFABFD0
02FFFF40
006FE400
ENDCHAR
STARTCHAR Ocircumflex
ENCODING 212
SWIDTH 600 0
DWIDTH 19 0
BBX 16 29 2 0
BITMAP
000BC000
002FF000
00BCB800
01B42900
00000000
00000000
006FE400
02FFFF40
0FFABFD0
2F800BF0
3F0002F4
7D0001F8
BC0000FC
FC0000BC
FC0000BD
F80000BD
F80000BD
F80000BD
F80000BD
F80000BD
FC0000BD
FC0000BC
BC0000FC
BD0001F8
3F0002F4
2F800BF0
0FFABFD0
02FFFF40
006FE400
ENDCHAR
STARTCHAR Otilde
ENCODING 213
SWIDTH 600 0
DWIDTH 19 0
BBX 16 29 2 0
BITMAP
00000500
00BE5B40
02FFFF00
03C1F800
00000000
00000000
006FE400
02FFFF40
0FFABFD0
2F800BF0
3F0002F4
7D0001F8
BC0000FC
FC0000BC
FC0000BD
F80000BD
F80000BD
F80000BD
F80000BD
F80000BD
FC0000BD
FC0000BC
BC0000FC
BD0001F8
3F0002F4
2F800BF0
0FFABFD0
02FFFF40
006FE400
ENDCHAR
STARTCHAR Odieresis
ENCODING 214
SWIDTH 600 0
DWIDTH 19 0
BBX 16 29 2 0
BITMAP
00400500
03E01F40
07F02F80
02E01F40
00000000
00000000
006FE400
02FFFF40
0FFABFD0
2F800BF0
3F0002F4
7D0001F8
BC0000FC
FC0000BC
FC0000BD
F80000BD
F80000BD
F80000BD
F80000BD
F80000BD
FC0000BD
FC0000BC
BC0000FC
BD0001F8
3F0002F4
2F800BF0
0FFABFD0
02FFFF40
006FE400
ENDCHAR
STARTCHAR multiply
ENCODING 215
SWIDTH 470 0
DWIDTH 15 0
BBX 12 15 1 3
BITMAP
180009
7D001F
7F407F
1FC0FD
0BE2F4
02FFE0
00FFC0
007F40
00FF80
02FFE0
0BE3F4
1FC1FD
7F407F
3D002F
180008
ENDCHAR
STARTCHAR Oslash
ENCODING 216
SWIDTH 600 0
DWIDTH 19 0
BBX 17 25 1 -1
BITMAP
0000000640
001BF90F00
00BFFFAE00
02FEAFFC00
07F402F800
0FD001FC00
1F8002FE00
2F4007FF00
3F000B6F00
3E001E2F40
3E002D2F40
3E00781F40
7E00B41F40
3E01E01F40
3E03C02F40
3E07802F40
3F0F002F00
2F6E003F00
1FBC007E00
0FF400FD00
07F402F800
02FEAFF000
07FFFF8000
0B5BF90000
1E00000000
ENDCHAR
STARTCHAR Ugrave
ENCODING 217
SWIDTH 561 0
DWIDTH 18 0
BBX 14 30 2 0
BITMAP
07F00000
02F80000
00BD0000
003F0000
001E4000
00000000
00000000
FC0003F0
FC0003F0
FC0003F0
FC0003F0
FC0003F0
FC0003F0
FC0003F0
FC0003F0
FC0003F0
FC0003F0
FC0003F0
FC0003F0
FC0003F0
FC0003F0
FC0003F0
FC0003F0
FC0003F0
FC0003F0
BD0007E0
7F000FD0
2FE5BF80
0BFFFE00
01BFE400
ENDCHAR
STARTCHAR Uacute
ENCODING 218
SWIDTH 561 0
DWIDTH 18 0
BBX 14 30 2 0
BITMAP
0000FD00
0002F800
0007E000
000FC000
001B4000
00000000
00000000
FC0003F0
FC0003F0
FC0003F0
FC0003F0
FC0003F0
FC0003F0
FC0003F0
FC0003F0
FC0003F0
FC0003F0
FC0003F0
FC0003F0
FC0003F0
FC0003F0
FC0003F0
FC0003F0
FC0003F0
FC0003F0
BD0007E0
7F000FD0
2FE5BF80
0BFFFE00
01BFE400
ENDCHAR
STARTCHAR Ucircumflex
ENCODING 219
SWIDTH 561 0
DWIDTH 18 0
BBX 14 29 2 0
BITMAP
001F4000
007FD000
01F5F400
02D0B800
00000000
00000000
FC0003F0
FC0003F0
FC0003F0
FC0003F0
FC0003F0
FC0003F0
FC0003F0
FC0003F0
FC0003F0
FC0003F0
FC0003F0
FC0003F0
FC0003F0
FC0003F0
FC0003F0
FC0003F0
FC0003F0
FC0003F0
BD0007E0
7F000FD0
2FE5BF80
0BFFFE00
01BFE400
ENDCHAR
STARTCHAR Udieresis
ENCODING 220
SWIDTH 561 0
DWIDTH 18 0
BBX 14 29 2 0
BITMAP
01000400
0BC03E00
0FD07F00
0B802E00
00000000
00000000
FC0003F0
FC0003F0
FC0003F0
FC0003F0
FC0003F0
FC0003F0
FC0003F0
FC0003F0
FC0003F0
FC0003F0
FC0003F0
FC0003F0
FC0003F0
FC0003F0
FC0003F0
FC0003F0
FC0003F0
FC0003F0
BD0007E0
7F000FD0
2FE5BF80
0BFFFE00
01BFE400
ENDCHAR
STARTCHAR Yacute
ENCODING 221
SWIDTH 524 0
DWIDTH 17 0
BBX 16 30 0 0
BITMAP
00001FC0
00007F00
0000BD00
0001F400
0002E000
00000000
00000000
7F00007F
3F4000BE
1F8000FC
0FC001F8
0BE002F4
03F007E0
02F40BD0
01F80FC0
00BC1F40
007E2F00
002F7E00
001FFC00
000FF800
0007F400
0003F000
0003E000
0003E000
0003E000
0003E000
0003E000
0003E000
0003E000
0003E000
ENDCHAR
STARTCHAR Thorn
ENCODING 222
SWIDTH 515 0
DWIDTH 16 0
BBX 13 23 2 0
BITMAP
BD000000
BD000000
BD000000
BD000000
BD000000
BFFF9000
BFFFF800
BD55FE00
BD002F40
BD001F80
BD000FC0
BD000BC0
BD000BC0
BD000FC0
BD002F80
BD00BF00
BFFFFD00
BFFFE400
BD550000
BD000000
BD000000
BD000000
BD000000
ENDCHAR
STARTCHAR germandbls
ENCODING 223
SWIDTH 521 0
DWIDTH 17 0
BBX 14 24 2 0
BITMAP
02FE4000
1FFFD000
3F9BF000
7E02F400
BC01F400
FC00F400
FC01F400
F802F000
F803E000
F80BD000
F80FC000
F80FC000
F80BD000
F807F000
F802FC00
F800BE00
F8002F80
F8000FC0
F8000BD0
F8000BD0
F8100BC0
F8796F80
F8BFFF40
F81BF800
ENDCHAR
STARTCHAR agrave
ENCODING 224
SWIDTH 479 0
DWIDTH 15 0
BBX 13 24 1 0
BITMAP
0BF00000
02F80000
00FD0000
003F0000
001E4000
00000000
00000000
00BF9000
07FFF800
0FE5FE00
2F403F00
3F002F00
00002F00
00002F00
00AFFF00
07FFFF00
1FE42F00
3F002F00
3E002F00
7E002F00
3F007F00
2FEAFF40
1FFFAF40
02FE1F80
ENDCHAR
STARTCHAR aacute
ENCODING 225
SWIDTH 479 0
DWIDTH 15 0
BBX 13 24 1 0
BITMAP
0000FD00
0002F800
0007E000
000FC000
001B0000
00000000
00000000
00BF9000
07FFF800
0FE5FE00
2F403F00
3F002F00
00002F00
00002F00
00AFFF00
07FFFF00
1FE42F00
3F002F00
3E002F00
7E002F00
3F007F00
2FEAFF40
1FFFAF40
02FE1F80
ENDCHAR
STARTCHAR acircumflex
ENCODING 226
SWIDTH 479 0
DWIDTH 15 0
BBX 13 23 1 0
BITMAP
001F4000
007FD000
01F5F400
02D0B800
00000000
00000000
00BF9000
07FFF800
0FE5FE00
2F403F00
3F002F00
00002F00
00002F00
00AFFF00
07FFFF00
1FE42F00
3F002F00
3E002F00
7E002F00
3F007F00
2FEAFF40
1FFFAF40
02FE1F80
ENDCHAR
STARTCHAR atilde
ENCODING 227
SWIDTH 479 0
DWIDTH 15 0
BBX 13 23 1 0
BITMAP
00000500
02FD6E00
07FFFD00
0B46F400
00000000
00000000
00BF9000
07FFF800
0FE5FE00
2F403F00
3F002F00
00002F00
00002F00
00AFFF00
07FFFF00
1FE42F00
3F002F00
3E002F00
7E002F00
3F007F00
2FEAFF40
1FFFAF40
02FE1F80
ENDCHAR
STARTCHAR adieresis
ENCODING 228
SWIDTH 479 0
DWIDTH 15 0
BBX 13 23 1 0
BITMAP
01000400
0BC03E00
0FD07F00
0B802E00
00000000
00000000
00BF9000
07FFF800
0FE5FE00
2F403F00
3F002F00
00002F00
00002F00
00AFFF00
07FFFF00
1FE42F00
3F002F00
3E002F00
7E002F00
3F007F00
2FEAFF40
1FFFAF40
02FE1F80
ENDCHAR
STARTCHAR aring
ENCODING 229
SWIDTH 479 0
DWIDTH 15 0
BBX 13 25 1 0
BITMAP
002F8000
00F6E000
01D07400
01D07400
00F6E000
002F8000
00000000
00000000
00BF9000
07FFF800
0FE5FE00
2F403F00
3F002F00
00002F00
00002F00
00AFFF00
07FFFF00
1FE42F00
3F002F00
3E002F00
7E002F00
3F007F00
2FEAFF40
1FFFAF40
02FE1F80
ENDCHAR
STARTCHAR ae
ENCODING 230
SWIDTH 728 0
DWIDTH 23 0
BBX 21 17 1 0
BITMAP
01BF806FE000
0BFFF5FFFD00
2FE6FFF9BF00
3F00BFC01F40
7E007F400F80
00003F000BC0
00003F000BC0
02BFFFFFFFC0
1FFFFFFFFFC0
3F957E555540
7E003E000000
BD003F000000
BC003F400000
BD00BFD00200
7F9BFBF96F80
2FFFE1FFFF40
06FE402FE800
ENDCHAR
STARTCHAR ccedilla
ENCODING 231
SWIDTH 461 0
DWIDTH 15 0
BBX 13 24 1 -7
BITMAP
01BF9000
07FFF800
1FE5BE00
2F402F40
3E001F40
7D000F80
7D000000
7D000000
BD000000
7D000000
7D000000
7D000540
3E000F80
2F402F40
1FE5BE00
07FFF800
01BF9000
002D0000
003F4000
001BC000
0003C000
0007C000
002F8000
00390000
ENDCHAR
STARTCHAR egrave
ENCODING 232
SWIDTH 468 0
DWIDTH 15 0
BBX 13 24 1 0
BITMAP
0BE00000
03F40000
01FC0000
007E0000
002E0000
00000000
00000000
00BF9000
07FFF800
0FE6FE00
2F402F00
3E001F40
7D000F80
7D000F80
7FFFFF80
7FFFFF80
7E555540
7D000000
7D000000
3E000000
2F400A00
1FE5BF40
07FFFE00
00BFE400
ENDCHAR
STARTCHAR eacute
ENCODING 233
SWIDTH 468 0
DWIDTH 15 0
BBX 13 24 1 0
BITMAP
0001FD00
0003F400
000BE000
001F8000
001A0000
00000000
00000000
00BF9000
07FFF800
0FE6FE00
2F402F00
3E001F40
7D000F80
7D000F80
7FFFFF80
7FFFFF80
7E555540
7D000000
7D000000
3E000000
2F400A00
1FE5BF40
07FFFE00
00BFE400
ENDCHAR
STARTCHAR ecircumflex
ENCODING 234
SWIDTH 468 0
DWIDTH 15 0
BBX 13 23 1 0
BITMAP
002F0000
00BFC000
02F2F000
02D0A400
00000000
00000000
00BF9000
07FFF800
0FE6FE00
2F402F00
3E001F40
7D000F80
7D000F80
7FFFFF80
7FFFFF80
7E555540
7D000000
7D000000
3E000000
2F400A00
1FE5BF40
07FFFE00
00BFE400
ENDCHAR
STARTCHAR edieresis
ENCODING 235
SWIDTH 468 0
DWIDTH 15 0
BBX 13 23 1 0
BITMAP
01000400
0F807E00
1FC0BE00
0B807D00
00000000
00000000
00BF9000
07FFF800
0FE6FE00
2F402F00
3E001F40
7D000F80
7D000F80
7FFFFF80
7FFFFF80
7E555540
7D000000
7D000000
3E000000
2F400A00
1FE5BF40
07FFFE00
00BFE400
ENDCHAR
STARTCHAR igrave
ENCODING 236
SWIDTH 234 0
DWIDTH 8 0
BBX 6 24 -1 0
BITMAP
BE00
3F40
0FC0
07E0
01E0
0000
0000
02F0
02F0
02F0
02F0
02F0
02F0
02F0
02F0
02F0
02F0
02F0
02F0
02F0
02F0
02F0
02F0
02F0
ENDCHAR
STARTCHAR iacute
ENCODING 237
SWIDTH 234 0
DWIDTH 8 0
BBX 7 24 2 0
BITMAP
07F4
0BD0
2F80
7E00
6800
0000
0000
BC00
BC00
BC00
BC00
BC00
BC00
BC00
BC00
BC00
BC00
BC00
BC00
BC00
BC00
BC00
BC00
BC00
ENDCHAR
STARTCHAR icircumflex
ENCODING 238
SWIDTH 234 0
DWIDTH 8 0
BBX 8 23 0 0
BITMAP
0BC0
2FF0
BCBC
B429
0000
0000
0BC0
0BC0
0BC0
0BC0
0BC0
0BC0
0BC0
0BC0
0BC0
0BC0
0BC0
0BC0
0BC0
0BC0
0BC0
0BC0
0BC0
ENDCHAR
STARTCHAR idieresis
ENCODING 239
SWIDTH 234 0
DWIDTH 8 0
BBX 11 23 -2 0
BITMAP
040010
3F01F8
7F02F8
2E01F4
000000
000000
00BC00
00BC00
00BC00
00BC00
00BC00
00BC00
00BC00
00BC00
00BC00
00BC00
00BC00
00BC00
00BC00
00BC00
00BC00
00BC00
00BC00
ENDCHAR
STARTCHAR eth
ENCODING 240
SWIDTH 513 0
DWIDTH 16 0
BBX 13 24 2 0
BITMAP
0A400000
1FE02800
1BFDBC00
01BFE000
002FD000
00BFF000
02E2F800
0180FC00
00007D00
01BE7E00
0BFFFF00
2FE6FF40
7F003F40
BD001F40
FC001F40
F8001F40
F8001F40
F8002F40
FC002F00
BD003E00
7E00BD00
2FD6F800
0BFFE000
01BE4000
ENDCHAR
STARTCHAR ntilde
ENCODING 241
SWIDTH 483 0
DWIDTH 15 0
BBX 12 23 2 0
BITMAP
000014
0BE5B4
2FFFF0
2D1B90
000000
000000
F86F90
FAFFF4
FFEBF8
FE00FC
FC00BD
F8007D
F8007D
F8007D
F8007D
F8007D
F8007D
F8007D
F8007D
F8007D
F8007D
F8007D
F8007D
ENDCHAR
STARTCHAR ograve
ENCODING 242
SWIDTH 501 0
DWIDTH 16 0
BBX 14 24 1 0
BITMAP
0BE00000
02F80000
00FD0000
007E0000
001E4000
00000000
00000000
00AFA000
07FFFD00
0FE5BF00
2F802F80
3F000FC0
7E0007D0
7D0007D0
7D0007E0
BD0007E0
BD0007E0
7D0007D0
7E0007D0
3F000BC0
2F801F80
0FE5BF00
07FFFD00
00AFE000
ENDCHAR
STARTCHAR oacute
ENCODING 243
SWIDTH 501 0
DWIDTH 16 0
BBX 14 24 1 0
BITMAP
0000FD00
0002F800
0007E000
000F8000
001B0000
00000000
00000000
00AFA000
07FFFD00
0FE5BF00
2F802F80
3F000FC0
7E0007D0
7D0007D0
7D0007E0
BD0007E0
BD0007E0
7D0007D0
7E0007D0
3F000BC0
2F801F80
0FE5BF00
07FFFD00
00AFE000
ENDCHAR
STARTCHAR ocircumflex
ENCODING 244
SWIDTH 501 0
DWIDTH 16 0
BBX 14 23 1 0
BITMAP
001F4000
007FD000
01F5F400
02D0B800
00000000
00000000
00AFA000
07FFFD00
0FE5BF00
2F802F80
3F000FC0
7E0007D0
7D0007D0
7D0007E0
BD0007E0
BD0007E0
7D0007D0
7E0007D0
3F000BC0
2F801F80
0FE5BF00
07FFFD00
00AFE000
ENDCHAR
STARTCHAR otilde
ENCODING 245
SWIDTH 501 0
DWIDTH 16 0
BBX 14 23 1 0
BITMAP
00000500
02F96D00
0BFFFC00
0B46E400
00000000
00000000
00AFA000
07FFFD00
0FE5BF00
2F802F80
3F000FC0
7E0007D0
7D0007D0
7D0007E0
BD0007E0
BD0007E0
7D0007D0
7E0007D0
3F000BC0
2F801F80
0FE5BF00
07FFFD00
00AFE000
ENDCHAR
STARTCHAR odieresis
ENCODING 246
SWIDTH 501 0
DWIDTH 16 0
BBX 14 23 1 0
BITMAP
01000400
0FC07E00
0FD07F00
0B802D00
00000000
00000000
00AFA000
07FFFD00
0FE5BF00
2F802F80
3F000FC0
7E0007D0
7D0007D0
7D0007E0
BD0007E0
BD0007E0
7D0007D0
7E0007D0
3F000BC0
2F801F80
0FE5BF00
07FFFD00
00AFE000
ENDCHAR
STARTCHAR divide
ENCODING 247
SWIDTH 500 0
DWIDTH 16 0
BBX 14 17 1 2
BITMAP
00090000
002F4000
002F4000
001A0000
00000000
00000000
00000000
BFFFFFD0
BFFFFFD0
BFFFFFD0
00000000
00000000
00000000
001A0000
002F4000
002F4000
00050000
ENDCHAR
STARTCHAR oslash
ENCODING 248
SWIDTH 498 0
DWIDTH 16 0
BBX 14 21 1 -2
BITMAP
00000600
00000F00
006FAD00
02FFFC00
0BE5BE00
1F80BF40
3F00EFC0
3E01DBC0
7D03C7D0
7D0747D0
7D0B07E0
7D1E07D0
7D2D07D0
3E380BD0
3FB40FC0
1FF02F40
0BE5BE00
03FFFC00
07AF9000
0B400000
0A000000
ENDCHAR
STARTCHAR ugrave
ENCODING 249
SWIDTH 483 0
DWIDTH 15 0
BBX 12 24 2 0
BITMAP
2F8000
0FD000
07F000
01F800
00B800
000000
000000
F8007D
F8007D
F8007D
F8007D
F8007D
F8007D
F8007D
F8007D
F8007D
F8007D
F8007D
FC007D
FC00BD
BD01FD
7F9BFD
2FFFBD
07F97D
ENDCHAR
STARTCHAR uacute
ENCODING 250
SWIDTH 483 0
DWIDTH 15 0
BBX 12 24 2 0
BITMAP
0007F4
000FD0
002F80
007E00
006800
000000
000000
F8007D
F8007D
F8007D
F8007D
F8007D
F8007D
F8007D
F8007D
F8007D
F8007D
F8007D
FC007D
FC00BD
BD01FD
7F9BFD
2FFFBD
07F97D
ENDCHAR
STARTCHAR ucircumflex
ENCODING 251
SWIDTH 483 0
DWIDTH 15 0
BBX 12 23 2 0
BITMAP
00BC00
02FF00
0BCBC0
0B4290
000000
000000
F8007D
F8007D
F8007D
F8007D
F8007D
F8007D
F8007D
F8007D
F8007D
F8007D
F8007D
FC007D
FC00BD
BD01FD
7F9BFD
2FFFBD
07F97D
ENDCHAR
STARTCHAR udieresis
ENCODING 252
SWIDTH 483 0
DWIDTH 15 0
BBX 12 23 2 0
BITMAP
040010
3E01F8
7F02F8
2E01F4
000000
000000
F8007D
F8007D
F8007D
F8007D
F8007D
F8007D
F8007D
F8007D
F8007D
F8007D
F8007D
FC007D
FC00BD
BD01FD
7F9BFD
2FFFBD
07F97D
ENDCHAR
STARTCHAR yacute
ENCODING 253
SWIDTH 416 0
DWIDTH 13 0
BBX 13 31 0 -7
BITMAP
0000FD00
0002F800
0007E000
000FC000
001B0000
00000000
00000000
7E001F80
3F002F40
2F403F00
1F403E00
0F807D00
0FC0BC00
0BD0FC00
07D0F800
03E1F400
02F2F000
01F7E000
00FBD000
00BFC000
00BFC000
007F8000
003F4000
002F0000
002E0000
003D0000
007D0000
00B80000
1BF40000
2FE00000
2F800000
ENDCHAR
STARTCHAR thorn
ENCODING 254
SWIDTH 508 0
DWIDTH 16 0
BBX 13 31 2 -7
BITMAP
BC000000
BC000000
BC000000
BC000000
BC000000
BC000000
BC000000
BC6F9000
BEFFF400
BFEBFC00
BE00BE00
BC003F00
BC002F00
BC001F40
BC001F40
BC001F40
BC001F40
BC001F40
BC002F00
BC003F00
BE00BE00
BF96FC00
BEFFF400
BC6F9000
BC000000
BC000000
BC000000
BC000000
BC000000
BC000000
BC000000
ENDCHAR
STARTCHAR ydieresis
ENCODING 255
SWIDTH 416 0
DWIDTH 13 0
BBX 13 30 0 -7
BITMAP
01000400
0BC03E00
0FD07F00
0B802E00
00000000
00000000
7E001F80
3F002F40
2F403F00
1F403E00
0F807D00
0FC0BC00
0BD0FC00
07D0F800
03E1F400
02F2F000
01F7E000
00FBD000
00BFC000
00BFC000
007F8000
003F4000
002F0000
002E0000
003D0000
007D0000
00B80000
1BF40000
2FE00000
2F800000
ENDCHAR
STARTCHAR Amacron
ENCODING 256
SWIDTH 576 0
DWIDTH 18 0
BBX 18 29 0 0
BITMAP
0015555000
007FFFF000
007FFFF000
0000000000
0000000000
0000000000
0000F80000
0001FC0000
0002FD0000
0003FE0000
0007EF0000
000B9F4000
000F4F8000
001F0BC000
002F07C000
003E03D000
007D02E000
00BC01F000
00F800F400
01F400B800
02FFFFFC00
03FFFFFD00
07E5557E00
0BC0002F00
0F80001F40
1F80000F80
2F40000BC0
3F00000BD0
7E000007E0
ENDCHAR
STARTCHAR amacron
ENCODING 257
SWIDTH 479 0
DWIDTH 15 0
BBX 13 24 1 0
BITMAP
01555400
0BFFFE00
0BFFFE00
00000000
00000000
00000000
00000000
00BF9000
07FFF800
0FE5FE00
2F403F00
3F002F00
00002F00
00002F00
00AFFF00
07FFFF00
1FE42F00
3F002F00
3E002F00
7E002F00
3F007F00
2FEAFF40
1FFFAF40
02FE1F80
ENDCHAR
STARTCHAR Abreve
ENCODING 258
SWIDTH 576 0
DWIDTH 18 0
BBX 18 28 0 0
BITMAP
007C01E000
003E03E000
002FFFC000
0006FE0000
0000000000
0000F80000
0001FC0000
0002FD0000
0003FE0000
0007EF0000
000B9F4000
000F4F8000
001F0BC000
002F07C000
003E03D000
007D02E000
00BC01F000
00F800F400
01F400B800
02FFFFFC00
03FFFFFD00
07E5557E00
0BC0002F00
0F80001F40
1F80000F80
2F40000BC0
3F00000BD0
7E000007E0
ENDCHAR
STARTCHAR abreve
ENCODING 259
SWIDTH 479 0
DWIDTH 15 0
BBX 13 23 1 0
BITMAP
0B802E00
07D07D00
02FFF800
006F9000
00000000
00000000
00BF9000
07FFF800
0FE5FE00
2F403F00
3F002F00
00002F00
00002F00
00AFFF00
07FFFF00
1FE42F00
3F002F00
3E002F00
7E002F00
3F007F00
2FEAFF40
1FFFAF40
02FE1F80
ENDCHAR
STARTCHAR Aogonek
ENCODING 260
SWIDTH 576 0
DWIDTH 18 0
BBX 18 30 0 -7
BITMAP
0000F80000
0001FC0000
0002FD0000
0003FE0000
0007EF0000
000B9F4000
000F4F8000
001F0BC000
002F07C000
003E03D000
007D02E000
00BC01F000
00F800F400
01F400B800
02FFFFFC00
03FFFFFD00
07E5557E00
0BC0002F00
0F80001F40
1F80000F80
2F40000FC0
3F00000BD0
7E000007E0
0000000B80
0000002E00
0000003D00
0000007C00
0000007D40
0000003FD0
0000001F90
ENDCHAR
STARTCHAR aogonek
ENCODING 261
SWIDTH 479 0
DWIDTH 15 0
BBX 13 24 1 -7
BITMAP
00BF9000
07FFF800
0FE5FE00
2F403F00
3F002F00
00002F00
00002F00
00AFFF00
07FFFF00
1FE42F00
3F002F00
3E002F00
7E002F00
3F007F00
2FEAFF40
1FFFAF40
02FE1F80
00002E00
0000B800
0001F400
0001F000
0001F500
0000FF40
00007E00
ENDCHAR
STARTCHAR Cacute
ENCODING 262
SWIDTH 566 0
DWIDTH 18 0
BBX 15 30 2 0
BITMAP
0000BE00
0001FC00
0003F000
000BD000
000B4000
00000000
00000000
006FE800
02FFFF40
0FF9AFC0
2F800BE0
3F0003F0
BD0002F4
BC0001F8
FC0000A4
FC000000
FC000000
F8000000
F8000000
F8000000
F8000000
FC000000
FC0000A4
BC0001F8
BD0002F4
3F0002F0
2F8007E0
0FF9AFC0
02FFFF40
006FE400
ENDCHAR
STARTCHAR cacute
ENCODING 263
SWIDTH 461 0
DWIDTH 15 0
BBX 13 24 1 0
BITMAP
0002F800
0007F000
000FC000
002F4000
002D0000
00000000
00000000
01BF9000
07FFF800
1FE5BE00
2F402F40
3E001F40
7D000F80
7D000000
7D000000
BD000000
7D000000
7D000000
7D000540
3E000F80
2F402F40
1FE5BE00
07FFF800
01BF9000
ENDCHAR
STARTCHAR Ccircumflex
ENCODING 264
SWIDTH 566 0
DWIDTH 18 0
BBX 15 29 2 0
BITMAP
000F8000
003FE000
00F8F400
01A07800
00000000
00000000
006FE800
02FFFF40
0FF9AFC0
2F800BE0
3F0003F0
BD0002F4
BC0001F8
FC0000A4
FC000000
FC000000
F8000000
F8000000
F8000000
F8000000
FC000000
FC0000A4
BC0001F8
BD0002F4
3F0002F0
2F8007E0
0FF9AFC0
02FFFF40
006FE400
ENDCHAR
STARTCHAR ccircumflex
ENCODING 265
SWIDTH 461 0
DWIDTH 15 0
BBX 13 23 1 0
BITMAP
003E0000
00FF8000
03E3D000
0681E000
00000000
00000000
01BF9000
07FFF800
1FE5BE00
2F402F40
3E001F40
7D000F80
7D000000
7D000000
BD000000
7D000000
7D000000
7D000540
3E000F80
2F402F40
1FE5BE00
07FFF800
01BF9000
ENDCHAR
STARTCHAR Cdotaccent
ENCODING 266
SWIDTH 566 0
DWIDTH 18 0
BBX 15 29 2 0
BITMAP
00010000
001F8000
001FC000
000B4000
00000000
00000000
006FE800
02FFFF40
0FF9AFC0
2F800BE0
3F0003F0
BD0002F4
BC0001F8
FC0000A4
FC000000
FC000000
F8000000
F8000000
F8000000
F8000000
FC000000
FC0000A4
BC0001F8
BD0002F4
3F0002F0
2F8007E0
0FF9AFC0
02FFFF40
006FE400
ENDCHAR
STARTCHAR cdotaccent
ENCODING 267
SWIDTH 461 0
DWIDTH 15 0
BBX 13 23 1 0
BITMAP
00040000
007E0000
007F0000
002D0000
00000000
00000000
01BF9000
07FFF800
1FE5BE00
2F402F40
3E001F40
7D000F80
7D000000
7D000000
BD000000
7D000000
7D000000
7D000540
3E000F80
2F402F40
1FE5BE00
07FFF800
01BF9000
ENDCHAR
STARTCHAR Ccaron
ENCODING 268
SWIDTH 566 0
DWIDTH 18 0
BBX 15 29 2 0
BITMAP
02E07D00
00B8F400
003FD000
000F4000
00000000
00000000
006FE800
02FFFF40
0FF9AFC0
2F800BE0
3F0003F0
BD0002F4
BC0001F8
FC0000A4
FC000000
FC000000
F8000000
F8000000
F8000000
F8000000
FC000000
FC0000A4
BC0001F8
BD0002F4
3F0002F0
2F8007E0
0FF9AFC0
02FFFF40
006FE400
ENDCHAR
STARTCHAR ccaron
ENCODING 269
SWIDTH 461 0
DWIDTH 15 0
BBX 13 23 1 0
BITMAP
0B81F400
02E3D000
00BF4000
003D0000
00000000
00000000
01BF9000
07FFF800
1FE5BE00
2F402F40
3E001F40
7D000F80
7D000000
7D000000
BD000000
7D000000
7D000000
7D000540
3E000F80
2F402F40
1FE5BE00
07FFF800
01BF9000
ENDCHAR
STARTCHAR Dcaron
ENCODING 270
SWIDTH 570 0
DWIDTH 18 0
BBX 15 29 2 0
BITMAP
0B81F400
02E3D000
00BF4000
003E0000
00000000
00000000
BFFF9000
BFFFF800
BE5AFF00
BD002F80
BD000BD0
BD0007E0
BD0003F0
BD0002F0
BD0002F4
BD0002F4
BD0002F4
BD0002F4
BD0002F4
BD0002F4
BD0002F4
BD0002F0
BD0003F0
BD0007E0
BD000BD0
BD002F80
BE5AFF00
BFFFF800
BFFE9000
ENDCHAR
STARTCHAR dcaron
ENCODING 271
SWIDTH 569 0
DWIDTH 18 0
BBX 17 24 1 0
BITMAP
00000F8BC0
00000F8BC0
00000F8BC0
00000F8F80
00000F9F00
00000F8900
00000F8000
01BE4F8000
0BFFEF8000
1FE6FF8000
3F402F8000
3E000F8000
7D000F8000
7D000F8000
BD000F8000
BD000F8000
BD000F8000
7D000F8000
7D000F8000
3E000F8000
2F402F8000
1FE6FF8000
0BFFEF8000
01BE4F8000
ENDCHAR
STARTCHAR Dcroat
ENCODING 272
SWIDTH 585 0
DWIDTH 19 0
BBX 17 23 0 0
BITMAP
03FFF90000
03FFFFD000
03F56BF400
03E001FD00
03E0007E00
03E0002F00
03E0001F40
03E0001F80
03E0000F80
03E0000F80
BFFF800F80
BFFF800F80
57F5400F80
03E0000F80
03E0000F80
03E0001F80
03E0001F40
03E0002F00
03E0007E00
03E001FD00
03F56FF400
03FFFFD000
03FFF90000
ENDCHAR
STARTCHAR dcroat
ENCODING 273
SWIDTH 529 0
DWIDTH 17 0
BBX 16 24 1 0
BITMAP
00000F80
00000F80
0007FFFD
0007FFFD
00015F94
00000F80
00000F80
01BE4F80
07FFEF80
0FEAFF80
2F802F80
3F001F80
7E000F80
7D000F80
7D000F80
7D000F80
7D000F80
7D000F80
7E000F80
3F001F80
2F802F80
0FE6FF80
07FFFF80
01BF8F80
ENDCHAR
STARTCHAR Emacron
ENCODING 274
SWIDTH 496 0
DWIDTH 16 0
BBX 13 29 2 0
BITMAP
05555400
0FFFFC00
0FFFFC00
00000000
00000000
00000000
BFFFFF80
BFFFFF80
BE555540
BD000000
BD000000
BD000000
BD000000
BD000000
BD000000
BD000000
BFFFFD00
BFFFFD00
BE555400
BD000000
BD000000
BD000000
BD000000
BD000000
BD000000
BD000000
BE555540
BFFFFF80
BFFFFF80
ENDCHAR
STARTCHAR emacron
ENCODING 275
SWIDTH 468 0
DWIDTH 15 0
BBX 13 24 1 0
BITMAP
05555400
0BFFFD00
0BFFFD00
00000000
00000000
00000000
00000000
00BF9000
07FFF800
0FE6FE00
2F402F00
3E001F40
7D000F80
7D000F80
7FFFFF80
7FFFFF80
7E555540
7D000000
7D000000
3E000000
2F400A00
1FE5BF40
07FFFE00
00BFE400
ENDCHAR
STARTCHAR Ebreve
ENCODING 276
SWIDTH 496 0
DWIDTH 16 0
BBX 13 28 2 0
BITMAP
0F407C00
0F80BC00
07FFF400
01BF9000
00000000
BFFFFF80
BFFFFF80
BE555540
BD000000
BD000000
BD000000
BD000000
BD000000
BD000000
BD000000
BFFFFD00
BFFFFD00
BE555400
BD000000
BD000000
BD000000
BD000000
BD000000
BD000000
BD000000
BE555540
BFFFFF80
BFFFFF80
ENDCHAR
STARTCHAR ebreve
ENCODING 277
SWIDTH 468 0
DWIDTH 15 0
BBX 13 23 1 0
BITMAP
0B403D00
0BC0BC00
03FFF800
00BF9000
00000000
00000000
00BF9000
07FFF800
0FE6FE00
2F402F00
3E001F40
7D000F80
7D000F80
7FFFFF80
7FFFFF80
7E555540
7D000000
7D000000
3E000000
2F400A00
1FE5BF40
07FFFE00
00BFE400
ENDCHAR
STARTCHAR Edotaccent
ENCODING 278
SWIDTH 496 0
DWIDTH 16 0
BBX 13 29 2 0
BITMAP
00040000
003F0000
007F0000
002E0000
00000000
00000000
BFFFFF80
BFFFFF80
BE555540
BD000000
BD000000
BD000000
BD000000
BD000000
BD000000
BD000000
BFFFFD00
BFFFFD00
BE555400
BD000000
BD000000
BD000000
BD000000
BD000000
BD000000
BD000000
BE555540
BFFFFF80
BFFFFF80
ENDCHAR
STARTCHAR edotaccent
ENCODING 279
SWIDTH 468 0
DWIDTH 15 0
BBX 13 23 1 0
BITMAP
00040000
002F4000
003F4000
001E0000
00000000
00000000
00BF9000
07FFF800
0FE6FE00
2F402F00
3E001F40
7D000F80
7D000F80
7FFFFF80
7FFFFF80
7E555540
7D000000
7D000000
3E000000
2F400A00
1FE5BF40
07FFFE00
00BFE400
ENDCHAR
STARTCHAR Eogonek
ENCODING 280
SWIDTH 496 0
DWIDTH 16 0
BBX 13 30 2 -7
BITMAP
BFFFFF80
BFFFFF80
BE555540
BD000000
BD000000
BD000000
BD000000
BD000000
BD000000
BD000000
BFFFFD00
BFFFFD00
BE555400
BD000000
BD000000
BD000000
BD000000
BD000000
BD000000
BD000000
BE555540
BFFFFF80
BFFFFF80
00007D00
0001F400
0002E000
0002E000
0002E500
0002FF00
0000BE00
ENDCHAR
STARTCHAR eogonek
ENCODING 281
SWIDTH 468 0
DWIDTH 15 0
BBX 13 23 1 -6
BITMAP
00BF9000
07FFF800
0FE6FE00
2F402F00
3E001F40
7D000F80
7D000F80
7FFFFF80
7FFFFF80
7E555540
7D000000
7D000000
3E000000
2F400A00
1FE57F40
07FFFE00
00BFE400
000B8000
001F0000
002E0000
002F5000
001FF000
000BE000
ENDCHAR
STARTCHAR Ecaron
ENCODING 282
SWIDTH 496 0
DWIDTH 16 0
BBX 13 29 2 0
BITMAP
07C0F400
02E2D000
00BF8000
002E0000
00000000
00000000
BFFFFF80
BFFFFF80
BE555540
BD000000
BD000000
BD000000
BD000000
BD000000
BD000000
BD000000
BFFFFD00
BFFFFD00
BE555400
BD000000
BD000000
BD000000
BD000000
BD000000
BD000000
BD000000
BE555540
BFFFFF80
BFFFFF80
ENDCHAR
STARTCHAR ecaron
ENCODING 283
SWIDTH 468 0
DWIDTH 15 0
BBX 13 23 1 0
BITMAP
07D0B800
01F2E000
007F8000
002F0000
00000000
00000000
00BF9000
07FFF800
0FE6FE00
2F402F00
3E001F40
7D000F80
7D000F80
7FFFFF80
7FFFFF80
7E555540
7D000000
7D000000
3E000000
2F400A00
1FE5BF40
07FFFE00
00BFE400
ENDCHAR
STARTCHAR Gcircumflex
ENCODING 284
SWIDTH 590 0
DWIDTH 19 0
BBX 15 29 2 0
BITMAP
001F4000
007FD000
01F5F400
02E07800
00000000
00000000
006FE800
07FFFF40
1FF9BFD0
3F800BE0
7E0003F4
BD0001F4
BC0001F8
FC000000
FC000000
F8000000
F8000000
F8000000
F801FFF8
F801FFF8
FC0056F8
FC0001F8
BC0001F8
BD0001F8
7F0001F8
2F8002F8
0FF96FF4
02FFFFD0
006FF900
ENDCHAR
STARTCHAR gcircumflex
ENCODING 285
SWIDTH 492 0
DWIDTH 16 0
BBX 13 30 1 -7
BITMAP
002E0000
00BF8000
02E2E000
06C0E400
00000000
00000000
01BE4B80
0BFFEF80
1FE6FF80
2F402F80
3E000F80
7D000F80
7D000F80
7D000F80
7D000F80
7D000F80
7D000F80
7D000F80
3E000F80
2F402F80
1FE6FF80
0BFFEF80
01BE4F80
00000F80
00000F80
00001F40
0E003F40
1FD6FE00
0BFFF800
00BF9000
ENDCHAR
STARTCHAR Gbreve
ENCODING 286
SWIDTH 590 0
DWIDTH 19 0
BBX 15 28 2 0
BITMAP
0B802E00
07D07D00
02FFF800
006FE000
00000000
006FE800
07FFFF40
1FF9BFD0
3F800BE0
7E0003F4
BD0001F4
BC0001F8
FC000000
FC000000
F8000000
F8000000
F8000000
F801FFF8
F801FFF8
FC0056F8
FC0001F8
BC0001F8
BD0001F8
7F0001F8
2F8002F8
0FF96FF4
02FFFFD0
006FF900
ENDCHAR
STARTCHAR gbreve
ENCODING 287
SWIDTH 492 0
DWIDTH 16 0
BBX 13 30 1 -7
BITMAP
0F403D00
0B80BC00
07FFF400
00BF9000
00000000
00000000
01BE4B80
0BFFEF80
1FE6FF80
2F402F80
3E000F80
7D000F80
7D000F80
7D000F80
7D000F80
7D000F80
7D000F80
7D000F80
3E000F80
2F402F80
1FE6FF80
0BFFEF80
01BE4F80
00000F80
00000F80
00001F40
0E003F40
1FD6FE00
0BFFF800
00BF9000
ENDCHAR
STARTCHAR Gdotaccent
ENCODING 288
SWIDTH 590 0
DWIDTH 19 0
BBX 15 29 2 0
BITMAP
00050000
001F4000
002F8000
001F4000
00000000
00000000
006FE800
07FFFF40
1FF9BFD0
3F800BE0
7E0003F4
BD0001F4
BC0001F8
FC000000
FC000000
F8000000
F8000000
F8000000
F801FFF8
F801FFF8
FC0056F8
FC0001F8
BC0001F8
BD0001F8
7F0001F8
2F8002F8
0FF96FF4
02FFFFD0
006FF900
ENDCHAR
STARTCHAR gdotaccent
ENCODING 289
SWIDTH 492 0
DWIDTH 16 0
BBX 13 30 1 -7
BITMAP
00040000
003F0000
003F4000
002E0000
00000000
00000000
01BE4B80
0BFFEF80
1FE6FF80
2F402F80
3E000F80
7D000F80
7D000F80
7D000F80
7D000F80
7D000F80
7D000F80
7D000F80
3E000F80
2F402F80
1FE6FF80
0BFFEF80
01BE4F80
00000F80
00000F80
00001F40
0E003F40
1FD6FE00
0BFFF800
00BF9000
ENDCHAR
STARTCHAR uni0122
ENCODING 290
SWIDTH 590 0
DWIDTH 19 0
BBX 15 31 2 -8
BITMAP
006FE800
07FFFF40
1FF9BFD0
3F800BE0
7E0003F4
BD0001F4
BC0001F8
FC000000
FC000000
F8000000
F8000000
F8000000
F801FFF8
F801FFF8
FC0056F8
FC0001F8
BC0001F8
BD0001F8
7F0001F8
2F8002F8
0FF96FF4
02FFFFD0
006FF900
00000000
00000000
0007D000
0007C000
000BC000
000F8000
001F4000
000A0000
ENDCHAR
STARTCHAR uni0123
ENCODING 291
SWIDTH 492 0
DWIDTH 16 0
BBX 13 33 1 -7
BITMAP
00060000
000F8000
001F4000
002F0000
003F0000
003F0000
003F0000
00000000
00000000
01BE4B80
0BFFEF80
1FE6FF80
2F402F80
3E000F80
7D000F80
7D000F80
7D000F80
7D000F80
7D000F80
7D000F80
7D000F80
3E000F80
2F402F80
1FE6FF80
0BFFEF80
01BE4F80
00000F80
00000F80
00001F40
0E003F40
1FD6FE00
0BFFF800
00BF9000
ENDCHAR
STARTCHAR Hcircumflex
ENCODING 292
SWIDTH 620 0
DWIDTH 20 0
BBX 16 29 2 0
BITMAP
000BC000
002FE000
00BCB800
01B42900
00000000
00000000
BD0000BD
BD0000BD
BD0000BD
BD0000BD
BD0000BD
BD0000BD
BD0000BD
BD0000BD
BD0000BD
BD0000BD
BFFFFFFD
BFFFFFFD
BE5555BD
BD0000BD
BD0000BD
BD0000BD
BD0000BD
BD0000BD
BD0000BD
BD0000BD
BD0000BD
BD0000BD
BD0000BD
ENDCHAR
STARTCHAR hcircumflex
ENCODING 293
SWIDTH 482 0
DWIDTH 15 0
BBX 12 29 2 0
BITMAP
01F400
07FD00
1F5F40
2D0B80
000000
F80000
F80000
F80000
F80000
F80000
F80000
F80000
F86F90
FEFFF4
FFEBF8
FE00FC
FC00BD
F8007D
F8007D
F8007D
F8007D
F8007D
F8007D
F8007D
F8007D
F8007D
F8007D
F8007D
F8007D
ENDCHAR
STARTCHAR Hbar
ENCODING 294
SWIDTH 611 0
DWIDTH 20 0
BBX 19 23 0 0
BITMAP
0BD0000BD0
0BD0000BD0
0BD0000BD0
0BD0000BD0
0BD0000BD0
7FFFFFFFFC
7FFFFFFFFC
1BD5555BD4
0BD0000BD0
0BD0000BD0
0BFFFFFFD0
0BFFFFFFD0
0BE5555BD0
0BD0000BD0
0BD0000BD0
0BD0000BD0
0BD0000BD0
0BD0000BD0
0BD0000BD0
0BD0000BD0
0BD0000BD0
0BD0000BD0
0BD0000BD0
ENDCHAR
STARTCHAR hbar
ENCODING 295
SWIDTH 497 0
DWIDTH 16 0
BBX 15 24 -1 0
BITMAP
01F40000
01F40000
7FFFD000
7FFFD000
16F94000
01F40000
01F40000
01F4BF40
01FBFFE0
01FF9BF4
01FD01F8
01F800F8
01F400FC
01F400FC
01F400FC
01F400FC
01F400FC
01F400FC
01F400FC
01F400FC
01F400FC
01F400FC
01F400FC
01F400FC
ENDCHAR
STARTCHAR Itilde
ENCODING 296
SWIDTH 250 0
DWIDTH 8 0
BBX 10 29 -1 0
BITMAP
000050
2FD6E0
7FFFD0
B46F40
000000
000000
01F400
01F400
01F400
01F400
01F400
01F400
01F400
01F400
01F400
01F400
01F400
01F400
01F400
01F400
01F400
01F400
01F400
01F400
01F400
01F400
01F400
01F400
01F400
ENDCHAR
STARTCHAR itilde
ENCODING 297
SWIDTH 234 0
DWIDTH 8 0
BBX 10 23 -1 0
BITMAP
000140
2F96D0
BFFFC0
F06E40
000000
000000
02F000
02F000
02F000
02F000
02F000
02F000
02F000
02F000
02F000
02F000
02F000
02F000
02F000
02F000
02F000
02F000
02F000
ENDCHAR
STARTCHAR Imacron
ENCODING 298
SWIDTH 250 0
DWIDTH 8 0
BBX 10 29 -1 0
BITMAP
155540
7FFFE0
7FFFE0
000000
000000
000000
01F400
01F400
01F400
01F400
01F400
01F400
01F400
01F400
01F400
01F400
01F400
01F400
01F400
01F400
01F400
01F400
01F400
01F400
01F400
01F400
01F400
01F400
01F400
ENDCHAR
STARTCHAR imacron
ENCODING 299
SWIDTH 234 0
DWIDTH 8 0
BBX 10 24 -1 0
BITMAP
555540
BFFFD0
BFFFD0
000000
000000
000000
000000
02F000
02F000
02F000
02F000
02F000
02F000
02F000
02F000
02F000
02F000
02F000
02F000
02F000
02F000
02F000
02F000
02F000
ENDCHAR
STARTCHAR Ibreve
ENCODING 300
SWIDTH 250 0
DWIDTH 8 0
BBX 10 28 -1 0
BITMAP
B802E0
7D07D0
2FFF80
06F900
000000
01F400
01F400
01F400
01F400
01F400
01F400
01F400
01F400
01F400
01F400
01F400
01F400
01F400
01F400
01F400
01F400
01F400
01F400
01F400
01F400
01F400
01F400
01F400
ENDCHAR
STARTCHAR ibreve
ENCODING 301
SWIDTH 234 0
DWIDTH 8 0
BBX 10 23 -1 0
BITMAP
B403D0
BC0BD0
3FFF80
0BF900
000000
000000
02F000
02F000
02F000
02F000
02F000
02F000
02F000
02F000
02F000
02F000
02F000
02F000
02F000
02F000
02F000
02F000
02F000
ENDCHAR
STARTCHAR Iogonek
ENCODING 302
SWIDTH 250 0
DWIDTH 8 0
BBX 6 30 0 -7
BITMAP
07D0
07D0
07D0
07D0
07D0
07D0
07D0
07D0
07D0
07D0
07D0
07D0
07D0
07D0
07D0
07D0
07D0
07D0
07D0
07D0
07D0
07D0
07D0
0B80
2E00
7D00
7C00
7D40
3FD0
1F80
ENDCHAR
STARTCHAR iogonek
ENCODING 303
SWIDTH 229 0
DWIDTH 7 0
BBX 6 31 0 -7
BITMAP
0100
0BC0
0FD0
0780
0000
0000
0000
0BC0
0BC0
0BC0
0BC0
0BC0
0BC0
0BC0
0BC0
0BC0
0BC0
0BC0
0BC0
0BC0
0BC0
0BC0
0BC0
0FC0
1F40
3D00
7C00
B800
BD40
7FC0
2F80
ENDCHAR
STARTCHAR Idotaccent
ENCODING 304
SWIDTH 250 0
DWIDTH 8 0
BBX 4 29 2 0
BITMAP
14
7D
BE
7D
00
00
7D
7D
7D
7D
7D
7D
7D
7D
7D
7D
7D
7D
7D
7D
7D
7D
7D
7D
7D
7D
7D
7D
7D
ENDCHAR
STARTCHAR dotlessi
ENCODING 305
SWIDTH 234 0
DWIDTH 8 0
BBX 3 17 2 0
BITMAP
BC
BC
BC
BC
BC
BC
BC
BC
BC
BC
BC
BC
BC
BC
BC
BC
BC
ENDCHAR
STARTCHAR IJ
ENCODING 306
SWIDTH 733 0
DWIDTH 23 0
BBX 20 23 2 0
BITMAP
7D000000BD
7D000000BD
7D000000BD
7D000000BD
7D000000BD
7D000000BD
7D000000BD
7D000000BD
7D000000BD
7D000000BD
7D000000BD
7D000000BD
7D000000BD
7D000000BD
7D000000BD
7D000000BD
7D029000BC
7D03F000FC
7D03F401FC
7D02F802F8
7D00FEAFF0
7D007FFFD0
7D000BFE00
ENDCHAR
STARTCHAR ij
ENCODING 307
SWIDTH 452 0
DWIDTH 14 0
BBX 11 31 2 -7
BITMAP
100040
BC02F0
FD02F4
7801E0
000000
000000
000000
BC02F4
BC02F4
BC02F4
BC02F4
BC02F4
BC02F4
BC02F4
BC02F4
BC02F4
BC02F4
BC02F4
BC02F4
BC02F4
BC02F4
BC02F4
BC02F4
BC02F4
0002F4
0002F4
0002F4
0002F0
002BF0
003FD0
003F40
ENDCHAR
STARTCHAR Jcircumflex
ENCODING 308
SWIDTH 483 0
DWIDTH 15 0
BBX 15 29 1 0
BITMAP
00003E00
0000FF80
0002E3E0
000681E4
00000000
00000000
00002F40
00002F40
00002F40
00002F40
00002F40
00002F40
00002F40
00002F40
00002F40
00002F40
00002F40
00002F40
00002F40
00002F40
00002F40
00002F40
A4002F00
FC003F00
FD007F00
BE00BE00
3FABFC00
1FFFF400
02FF8000
ENDCHAR
STARTCHAR jcircumflex
ENCODING 309
SWIDTH 237 0
DWIDTH 8 0
BBX 9 30 -1 -7
BITMAP
01F400
07FD00
1F5F40
2D0B80
000000
000000
01F400
01F400
01F400
01F400
01F400
01F400
01F400
01F400
01F400
01F400
01F400
01F400
01F400
01F400
01F400
01F400
01F400
01F400
01F400
02F400
02F000
5BE000
7FD000
7E4000
ENDCHAR
STARTCHAR uni0136
ENCODING 310
SWIDTH 544 0
DWIDTH 17 0
BBX 15 29 2 -6
BITMAP
BD0003F4
BD000BE0
BD001FC0
BD007F40
BD00FD00
BD02F800
BD07F000
BD0FD000
BD2F8000
BD7E0000
BEFE0000
BFFF4000
BFEF8000
BF8BD000
BE07F000
BD02F800
BD00FD00
BD007F00
BD002F80
BD001FD0
BD000BE0
BD0003F4
BD0001FC
001F4000
001F4000
001F4000
002F0000
003D0000
00180000
ENDCHAR
STARTCHAR uni0137
ENCODING 311
SWIDTH 450 0
DWIDTH 14 0
BBX 12 30 2 -6
BITMAP
FC0000
FC0000
FC0000
FC0000
FC0000
FC0000
FC0000
FC01FC
FC03F4
FC0BE0
FC1F80
FC3F00
FCBD00
FEF800
FFF400
FFFC00
FFBE00
FD3F00
FC1F80
FC0BD0
FC07F0
FC02F8
FC00FD
FC007E
00F800
00F800
01F400
01F000
03E000
018000
ENDCHAR
STARTCHAR kgreenlandic
ENCODING 312
SWIDTH 491 0
DWIDTH 16 0
BBX 13 17 2 0
BITMAP
BC007F00
BC00FD00
BC02F400
BC07E000
BC1FC000
BC3F4000
BCBE0000
BFF80000
BFF80000
BEBD0000
BC3F4000
BC1FC000
BC0BE000
BC03F400
BC01FC00
BC00BE00
BC003F40
ENDCHAR
STARTCHAR Lacute
ENCODING 313
SWIDTH 475 0
DWIDTH 15 0
BBX 13 30 2 0
BITMAP
03F40000
0BE00000
1F800000
3E000000
6C000000
00000000
00000000
BD000000
BD000000
BD000000
BD000000
BD000000
BD000000
BD000000
BD000000
BD000000
BD000000
BD000000
BD000000
BD000000
BD000000
BD000000
BD000000
BD000000
BD000000
BD000000
BD000000
BE555500
BFFFFF40
BFFFFF40
ENDCHAR
STARTCHAR lacute
ENCODING 314
SWIDTH 229 0
DWIDTH 7 0
BBX 7 30 2 0
BITMAP
07F4
0FD0
2F40
7E00
6800
0000
BC00
BC00
BC00
BC00
BC00
BC00
BC00
BC00
BC00
BC00
BC00
BC00
BC00
BC00
BC00
BC00
BC00
BC00
BC00
BC00
BC00
BC00
BC00
BC00
ENDCHAR
STARTCHAR uni013B
ENCODING 315
SWIDTH 475 0
DWIDTH 15 0
BBX 13 30 2 -7
BITMAP
BD000000
BD000000
BD000000
BD000000
BD000000
BD000000
BD000000
BD000000
BD000000
BD000000
BD000000
BD000000
BD000000
BD000000
BD000000
BD000000
BD000000
BD000000
BD000000
BD000000
BE555500
BFFFFF40
BFFFFF40
00000000
003E0000
003E0000
003E0000
007D0000
00B80000
00640000
ENDCHAR
STARTCHAR uni013C
ENCODING 316
SWIDTH 229 0
DWIDTH 7 0
BBX 4 31 1 -7
BITMAP
2F
2F
2F
2F
2F
2F
2F
2F
2F
2F
2F
2F
2F
2F
2F
2F
2F
2F
2F
2F
2F
2F
2F
2F
00
2F
2F
2E
3E
7C
24
ENDCHAR
STARTCHAR Lcaron
ENCODING 317
SWIDTH 475 0
DWIDTH 15 0
BBX 13 23 2 0
BITMAP
BD07D000
BD07D000
BD07D000
BD0BC000
BD0F4000
BD060000
BD000000
BD000000
BD000000
BD000000
BD000000
BD000000
BD000000
BD000000
BD000000
BD000000
BD000000
BD000000
BD000000
BD000000
BE555500
BFFFFF40
BFFFFF40
ENDCHAR
STARTCHAR lcaron
ENCODING 318
SWIDTH 302 0
DWIDTH 10 0
BBX 8 24 2 0
BITMAP
BC3E
BC3E
BC3E
BC7D
BCB8
BC64
BC00
BC00
BC00
BC00
BC00
BC00
BC00
BC00
BC00
BC00
BC00
BC00
BC00
BC00
BC00
BC00
BC00
BC00
ENDCHAR
STARTCHAR Ldot
ENCODING 319
SWIDTH 475 0
DWIDTH 15 0
BBX 13 23 2 0
BITMAP
BD000000
BD000000
BD000000
BD000000
BD000000
BD000000
BD000000
BD000000
BD010000
BD0BC000
BD0FD000
BD0B8000
BD000000
BD000000
BD000000
BD000000
BD000000
BD000000
BD000000
BD000000
BE555500
BFFFFF40
BFFFFF40
ENDCHAR
STARTCHAR ldot
ENCODING 320
SWIDTH 336 0
DWIDTH 11 0
BBX 8 24 2 0
BITMAP
BC00
BC00
BC00
BC00
BC00
BC00
BC00
BC00
BC00
BC14
BC7E
BCBE
BC7D
BC00
BC00
BC00
BC00
BC00
BC00
BC00
BC00
BC00
BC00
BC00
ENDCHAR
STARTCHAR Lslash
ENCODING 321
SWIDTH 475 0
DWIDTH 15 0
BBX 15 23 0 0
BITMAP
0BD00000
0BD00000
0BD00000
0BD00000
0BD00000
0BD00000
0BD00000
0BD00000
0BD68000
0BFF8000
1BF90000
7FD00000
2BD00000
0BD00000
0BD00000
0BD00000
0BD00000
0BD00000
0BD00000
0BD00000
0BE55550
0BFFFFF4
0BFFFFF4
ENDCHAR
STARTCHAR lslash
ENCODING 322
SWIDTH 250 0
DWIDTH 8 0
BBX 8 24 0 0
BITMAP
07D0
07D0
07D0
07D0
07D0
07D0
07D0
07D0
07D0
07D9
07FD
1FE4
7FD0
2BD0
07D0
07D0
07D0
07D0
07D0
07D0
07D0
07D0
07D0
07D0
ENDCHAR
STARTCHAR Nacute
ENCODING 323
SWIDTH 619 0
DWIDTH 20 0
BBX 16 30 2 0
BITMAP
00003F40
0000BE00
0001F800
0003E000
0006C000
00000000
00000000
BE0000BD
BF0000BD
BF8000BD
BFC000BD
BFE000BD
BFF000BD
BDF800BD
BDBD00BD
BD3E00BD
BD2F40BD
BD0F80BD
BD07D0BD
BD03E0BD
BD01F4BD
BD00F8BD
BD007DBD
BD003EBD
BD001FFD
BD000FFD
BD0007FD
BD0003FD
BD0001FD
BD0000BD
ENDCHAR
STARTCHAR nacute
ENCODING 324
SWIDTH 483 0
DWIDTH 15 0
BBX 12 24 2 0
BITMAP
0003F4
000BD0
001F80
003E00
006C00
000000
000000
F86F90
FAFFF4
FFEBF8
FE00FC
FC00BD
F8007D
F8007D
F8007D
F8007D
F8007D
F8007D
F8007D
F8007D
F8007D
F8007D
F8007D
F8007D
ENDCHAR
STARTCHAR uni0145
ENCODING 325
SWIDTH 619 0
DWIDTH 20 0
BBX 16 30 2 -7
BITMAP
BE0000BD
BF0000BD
BF8000BD
BFC000BD
BFE000BD
BFF000BD
BDF800BD
BDBD00BD
BD3E00BD
BD2F40BD
BD0F80BD
BD07D0BD
BD03E0BD
BD01F4BD
BD00F8BD
BD007DBD
BD003EBD
BD001FFD
BD000FFD
BD0007FD
BD0003FD
BD0001FD
BD0000BD
00000000
000BC000
000BC000
000BC000
000F8000
001F0000
00090000
ENDCHAR
STARTCHAR uni0146
ENCODING 326
SWIDTH 483 0
DWIDTH 15 0
BBX 12 24 2 -7
BITMAP
F86F90
FAFFF4
FFEBF8
FE00FC
FC00BD
F8007D
F8007D
F8007D
F8007D
F8007D
F8007D
F8007D
F8007D
F8007D
F8007D
F8007D
F8007D
000000
00BC00
00BC00
00F800
00F400
01F000
009000
ENDCHAR
STARTCHAR Ncaron
ENCODING 327
SWIDTH 619 0
DWIDTH 20 0
BBX 16 29 2 0
BITMAP
00F42E00
007D7800
001FF000
0007C000
00000000
00000000
BE0000BD
BF0000BD
BF8000BD
BFC000BD
BFE000BD
BFF000BD
BDF800BD
BDBD00BD
BD3E00BD
BD2F40BD
BD0F80BD
BD07D0BD
BD03E0BD
BD01F4BD
BD00F8BD
BD007DBD
BD003EBD
BD001FFD
BD000FFD
BD0007FD
BD0003FD
BD0001FD
BD0000BD
ENDCHAR
STARTCHAR ncaron
ENCODING 328
SWIDTH 483 0
DWIDTH 15 0
BBX 12 23 2 0
BITMAP
0F42E0
07C780
01FF00
007C00
000000
000000
F86F90
FAFFF4
FFEBF8
FE00FC
FC00BD
F8007D
F8007D
F8007D
F8007D
F8007D
F8007D
F8007D
F8007D
F8007D
F8007D
F8007D
F8007D
ENDCHAR
STARTCHAR napostrophe
ENCODING 329
SWIDTH 483 0
DWIDTH 15 0
BBX 15 24 -1 0
BITMAP
2F000000
2F000000
3E000000
3D000000
7C000000
24000000
00000000
03E1BE40
03EBFFD0
03FFAFE0
03F803F0
03F002F4
03E001F4
03E001F4
03E001F4
03E001F4
03E001F4
03E001F4
03E001F4
03E001F4
03E001F4
03E001F4
03E001F4
03E001F4
ENDCHAR
STARTCHAR Eng
ENCODING 330
SWIDTH 599 0
DWIDTH 19 0
BBX 15 30 2 -7
BITMAP
BD0000FC
BF0000FC
BF4000FC
BFC000FC
BFE000FC
BFF000FC
BEF800FC
BDFC00FC
BD7E00FC
BD3F00FC
BD1F80FC
BD0FC0FC
BD07E0FC
BD02F0FC
BD01F8FC
BD00BCFC
BD007EFC
BD002FFC
BD001FFC
BD000BFC
BD0007FC
BD0002FC
BD0001FC
000000FC
000000FC
000000FC
000001F8
00001BF4
00003FE0
00002F80
ENDCHAR
STARTCHAR eng
ENCODING 331
SWIDTH 498 0
DWIDTH 16 0
BBX 12 24 2 -7
BITMAP
F86F90
F9FFF4
FFABFC
FE00BD
FC007D
FC003E
FC003E
FC003E
FC003E
FC003E
FC003E
FC003E
FC003E
FC003E
FC003E
FC003E
FC003E
00003E
00003E
00003E
00007D
000AFC
000FF8
000FD0
ENDCHAR
STARTCHAR Omacron
ENCODING 332
SWIDTH 600 0
DWIDTH 19 0
BBX 16 29 2 0
BITMAP
01555500
02FFFF40
02FFFF40
00000000
00000000
00000000
006FE400
02FFFF40
0FFABFD0
2F800BF0
3F0002F4
7D0001F8
BC0000FC
FC0000BC
FC0000BD
F80000BD
F80000BD
F80000BD
F80000BD
F80000BD
FC0000BD
FC0000BC
BC0000FC
BD0001F8
3F0002F4
2F800BF0
0FFABFD0
02FFFF40
006FE400
ENDCHAR
STARTCHAR omacron
ENCODING 333
SWIDTH 501 0
DWIDTH 16 0
BBX 14 24 1 0
BITMAP
01555400
0BFFFD00
0BFFFD00
00000000
00000000
00000000
00000000
00AFA000
07FFFD00
0FE5BF00
2F802F80
3F000FC0
7E0007D0
7D0007D0
7D0007E0
BD0007E0
BD0007E0
7D0007D0
7E0007D0
3F000BC0
2F801F80
0FE5BF00
07FFFD00
00AFE000
ENDCHAR
STARTCHAR Obreve
ENCODING 334
SWIDTH 600 0
DWIDTH 19 0
BBX 16 28 2 0
BITMAP
03D00F40
02E02F00
01FFFD00
002FE400
00000000
006FE400
02FFFF40
0FFABFD0
2F800BF0
3F0002F4
7D0001F8
BC0000FC
FC0000BC
FC0000BD
F80000BD
F80000BD
F80000BD
F80000BD
F80000BD
FC0000BD
FC0000BC
BC0000FC
BD0001F8
3F0002F4
2F800BF0
0FFABFD0
02FFFF40
006FE400
ENDCHAR
STARTCHAR obreve
ENCODING 335
SWIDTH 501 0
DWIDTH 16 0
BBX 14 23 1 0
BITMAP
0B802D00
0BD07D00
03FFF800
00BF9000
00000000
00000000
00AFA000
07FFFD00
0FE5BF00
2F802F80
3F000FC0
7E0007D0
7D0007D0
7D0007E0
BD0007E0
BD0007E0
7D0007D0
7E0007D0
3F000BC0
2F801F80
0FE5BF00
07FFFD00
00AFE000
ENDCHAR
STARTCHAR Ohungarumlaut
ENCODING 336
SWIDTH 600 0
DWIDTH 19 0
BBX 16 29 2 0
BITMAP
000FC7E0
001F4FC0
003E2F40
007D7E00
0068A800
00000000
006FE400
02FFFF40
0FFABFD0
2F800BF0
3F0002F4
7D0001F8
BC0000FC
FC0000BC
FC0000BD
F80000BD
F80000BD
F80000BD
F80000BD
F80000BD
FC0000BD
FC0000BC
BC0000FC
BD0001F8
3F0002F4
2F800BF0
0FFABFD0
02FFFF40
006FE400
ENDCHAR
STARTCHAR ohungarumlaut
ENCODING 337
SWIDTH 501 0
DWIDTH 16 0
BBX 14 24 1 0
BITMAP
002F1F80
007E2F00
00BC7D00
00F4F800
01A1B000
00000000
00000000
00AFA000
07FFFD00
0FE5BF00
2F802F80
3F000FC0
7E0007D0
7D0007D0
7D0007E0
BD0007E0
BD0007E0
7D0007D0
7E0007D0
3F000BC0
2F801F80
0FE5BF00
07FFFD00
00AFE000
ENDCHAR
STARTCHAR OE
ENCODING 338
SWIDTH 826 0
DWIDTH 26 0
BBX 23 23 1 0
BITMAP
002BFFFFFFF8
01FFFFFFFFF8
07F95BE55554
0FD007E00000
1F4007E00000
2F0007E00000
3E0007E00000
7E0007E00000
7D0007E00000
7D0007E00000
7D0007FFFFE0
7D0007FFFFE0
7D0007E55550
7D0007E00000
7D0007E00000
7E0007E00000
3E0007E00000
2F0007E00000
1F4007E00000
0FD007E00000
07F95BE55554
01FFFFFFFFFC
002BFFFFFFFC
ENDCHAR
STARTCHAR oe
ENCODING 339
SWIDTH 777 0
DWIDTH 25 0
BBX 23 17 1 0
BITMAP
006F9006F900
02FFF82FFF80
0BE5BEBE5FD0
1F802FF803F0
2F000FF401F4
3E000BF001F8
7E000BE000F8
7D0007FFFFF8
7D0007FFFFF8
7D0007E55554
7D000BE00000
3E000BE00000
2F000FF00000
1F802FF80050
0BE5BEBF56F0
02FFF82FFFE0
006F9006FE40
ENDCHAR
STARTCHAR Racute
ENCODING 340
SWIDTH 530 0
DWIDTH 17 0
BBX 15 30 2 0
BITMAP
0002F800
0007F000
000FD000
002F4000
002D0000
00000000
00000000
BFFFE400
BFFFFE00
BE56BF40
BD001FC0
BD000BD0
BD0007E0
BD0007E0
BD0007E0
BD000BD0
BD000FC0
BD007F80
BFFFFE00
BFFFF800
BE56F400
BD01F800
BD00BD00
BD007E00
BD003F00
BD002F80
BD000FC0
BD000BD0
BD0007F0
BD0003F4
ENDCHAR
STARTCHAR racute
ENCODING 341
SWIDTH 304 0
DWIDTH 10 0
BBX 9 24 2 0
BITMAP
007F40
00FD00
02F400
07E000
068000
000000
000000
F8BC00
FAFC00
FFFC00
FE0000
FC0000
F80000
F80000
F80000
F80000
F80000
F80000
F80000
F80000
F80000
F80000
F80000
F80000
ENDCHAR
STARTCHAR uni0156
ENCODING 342
SWIDTH 530 0
DWIDTH 17 0
BBX 15 30 2 -7
BITMAP
BFFFE400
BFFFFE00
BE56BF40
BD001FC0
BD000BD0
BD0007E0
BD0007E0
BD0007E0
BD000BD0
BD000FC0
BD007F80
BFFFFE00
BFFFF800
BE56F400
BD01F800
BD00BD00
BD007E00
BD003F00
BD002F80
BD000FC0
BD000BD0
BD0007F0
BD0003F4
00000000
003E0000
003E0000
003D0000
007D0000
00B80000
00600000
ENDCHAR
STARTCHAR uni0157
ENCODING 343
SWIDTH 304 0
DWIDTH 10 0
BBX 8 24 1 -7
BITMAP
3E2F
3EBF
3FFF
3F80
3F00
3E00
3E00
3E00
3E00
3E00
3E00
3E00
3E00
3E00
3E00
3E00
3E00
0000
2F00
2F00
3E00
3D00
7C00
2400
ENDCHAR
STARTCHAR Rcaron
ENCODING 344
SWIDTH 530 0
DWIDTH 17 0
BBX 15 29 2 0
BITMAP
0B81F400
02E3D000
00BF4000
003E0000
00000000
00000000
BFFFE400
BFFFFE00
BE56BF40
BD001FC0
BD000BD0
BD0007E0
BD0007E0
BD0007E0
BD000BD0
BD000FC0
BD007F80
BFFFFE00
BFFFF800
BE56F400
BD01F800
BD00BD00
BD007E00
BD003F00
BD002F80
BD000FC0
BD000BD0
BD0007F0
BD0003F4
ENDCHAR
STARTCHAR rcaron
ENCODING 345
SWIDTH 304 0
DWIDTH 10 0
BBX 9 23 1 0
BITMAP
7D0B80
1F2E00
07F800
02E000
000000
000000
3E2F00
3EBF00
3FFF00
3F8000
3F0000
3E0000
3E0000
3E0000
3E0000
3E0000
3E0000
3E0000
3E0000
3E0000
3E0000
3E0000
3E0000
ENDCHAR
STARTCHAR Sacute
ENCODING 346
SWIDTH 518 0
DWIDTH 17 0
BBX 15 30 1 0
BITMAP
00007F00
0000FD00
0002F400
0007D000
000B8000
00000000
00000000
006FE400
02FFFE00
0FF9BF80
2F800BD0
3F0003F0
3F0002F0
3F0002F4
3F000000
2FC00000
0FF80000
07FF9000
00BFFD00
0007FF40
00006FD0
00000BE0
000003F0
BD0002F4
BD0002F4
7E0003F0
2F800BE0
0FF9BFD0
06FFFF40
006FE800
ENDCHAR
STARTCHAR sacute
ENCODING 347
SWIDTH 455 0
DWIDTH 15 0
BBX 12 24 1 0
BITMAP
0000FD
0002F4
0007E0
000F80
001B00
000000
000000
01BF90
0BFFF4
1FE6FD
2F007E
3F003E
3F0000
2FD000
0BFE00
01FFE0
001BFC
0001FE
14003F
7D002F
3F003F
2FE6FD
0BFFF8
01BF90
ENDCHAR
STARTCHAR Scircumflex
ENCODING 348
SWIDTH 518 0
DWIDTH 17 0
BBX 15 29 1 0
BITMAP
000B8000
002FE000
00B8B800
01B03900
00000000
00000000
006FE400
02FFFE00
0FF9BF80
2F800BD0
3F0003F0
3F0002F0
3F0002F4
3F000000
2FC00000
0FF80000
07FF9000
00BFFD00
0007FF40
00006FD0
00000BE0
000003F0
BD0002F4
BD0002F4
7E0003F0
2F800BE0
0FF9BFD0
06FFFF40
006FE800
ENDCHAR
STARTCHAR scircumflex
ENCODING 349
SWIDTH 455 0
DWIDTH 15 0
BBX 12 23 1 0
BITMAP
002F40
007FC0
01F1F0
02D0A4
000000
000000
01BF90
0BFFF4
1FE6FD
2F007E
3F003E
3F0000
2FD000
0BFE00
01FFE0
001BFC
0001FE
14003F
7D002F
3F003F
2FE6FD
0BFFF8
01BF90
ENDCHAR
STARTCHAR Scedilla
ENCODING 350
SWIDTH 518 0
DWIDTH 17 0
BBX 15 30 1 -7
BITMAP
006FE400
02FFFE00
0FF9BF80
2F800BD0
3F0003F0
3F0002F0
3F0002F4
3F000000
2FC00000
0FF80000
07FF9000
00BFFD00
0007FF40
00006FD0
00000BE0
000003F0
BD0002F4
BD0002F4
7E0003F0
2F800BE0
0FF9BFD0
06FFFF40
006FE800
00078000
000BD000
0006F000
0000B400
0000F400
0007E000
000B8000
ENDCHAR
STARTCHAR scedilla
ENCODING 351
SWIDTH 455 0
DWIDTH 15 0
BBX 12 24 1 -7
BITMAP
01BF90
0BFFF4
1FE6FD
2F007E
3F003E
3F0000
2FD000
0BFE00
01FFE0
001BFC
0001FE
14003F
7D002F
3F003F
2FE6FD
0BFFF8
01BF90
001E00
001F80
0007D0
0002E0
0002E0
001FC0
001E40
ENDCHAR
STARTCHAR Scaron
ENCODING 352
SWIDTH 518 0
DWIDTH 17 0
BBX 15 29 1 0
BITMAP
01F03D00
00B8B400
002FE000
000B8000
00000000
00000000
006FE400
02FFFE00
0FF9BF80
2F800BD0
3F0003F0
3F0002F0
3F0002F4
3F000000
2FC00000
0FF80000
07FF9000
00BFFD00
0007FF40
00006FD0
00000BE0
000003F0
BD0002F4
BD0002F4
7E0003F0
2F800BE0
0FF9BFD0
06FFFF40
006FE800
ENDCHAR
STARTCHAR scaron
ENCODING 353
SWIDTH 455 0
DWIDTH 15 0
BBX 12 23 1 0
BITMAP
03D0B8
01F1E0
007FC0
001F00
000000
000000
01BF90
0BFFF4
1FE6FD
2F007E
3F003E
3F0000
2FD000
0BFE00
01FFE0
001BFC
0001FE
14003F
7D002F
3F003F
2FE6FD
0BFFF8
01BF90
ENDCHAR
STARTCHAR uni0162
ENCODING 354
SWIDTH 520 0
DWIDTH 17 0
BBX 15 30 1 -7
BITMAP
FFFFFFF8
FFFFFFF8
556FD554
000F8000
000F8000
000F8000
000F8000
000F8000
000F8000
000F8000
000F8000
000F8000
000F8000
000F8000
000F8000
000F8000
000F8000
000F8000
000F8000
000F8000
000F8000
000F8000
000F8000
000B4000
000FD000
0006F000
0000F000
0000F000
000BE000
000A4000
ENDCHAR
STARTCHAR uni0163
ENCODING 355
SWIDTH 295 0
DWIDTH 9 0
BBX 9 28 0 -7
BITMAP
03E000
03E000
03E000
03E000
BFFF40
BFFF40
17E500
03E000
03E000
03E000
03E000
03E000
03E000
03E000
03E000
03E000
03E000
03E000
02FA00
01FF40
007F00
002D00
003F40
001BC0
0003C0
0003C0
002F80
002900
ENDCHAR
STARTCHAR Tcaron
ENCODING 356
SWIDTH 520 0
DWIDTH 17 0
BBX 15 29 1 0
BITMAP
02E07D00
00B8F400
002FD000
000F8000
00000000
00000000
FFFFFFF8
FFFFFFF8
556FD554
000F8000
000F8000
000F8000
000F8000
000F8000
000F8000
000F8000
000F8000
000F8000
000F8000
000F8000
000F8000
000F8000
000F8000
000F8000
000F8000
000F8000
000F8000
000F8000
000F8000
ENDCHAR
STARTCHAR tcaron
ENCODING 357
SWIDTH 314 0
DWIDTH 10 0
BBX 11 26 0 0
BITMAP
0000F8
0000F8
0001F4
0001F0
0003E0
03E180
03E000
03E000
03E000
BFFF40
BFFF40
17E500
03E000
03E000
03E000
03E000
03E000
03E000
03E000
03E000
03E000
03E000
03E000
02FA00
01FF40
007F00
ENDCHAR
STARTCHAR Tbar
ENCODING 358
SWIDTH 520 0
DWIDTH 17 0
BBX 15 23 1 0
BITMAP
FFFFFFF8
FFFFFFF8
556FD554
000F8000
000F8000
000F8000
000F8000
000F8000
02FFFE00
02FFFE00
015FD500
000F8000
000F8000
000F8000
000F8000
000F8000
000F8000
000F8000
000F8000
000F8000
000F8000
000F8000
000F8000
ENDCHAR
STARTCHAR tbar
ENCODING 359
SWIDTH 295 0
DWIDTH 9 0
BBX 9 21 0 0
BITMAP
03E000
03E000
03E000
03E000
BFFF40
BFFF40
17E500
03E000
03E000
FFFF80
FFFF80
57E540
03E000
03E000
03E000
03E000
03E000
03E000
02FA00
01FF40
007F00
ENDCHAR
STARTCHAR Utilde
ENCODING 360
SWIDTH 561 0
DWIDTH 18 0
BBX 14 29 2 0
BITMAP
00000500
02FD6E00
07FFFD00
0B46F400
00000000
00000000
FC0003F0
FC0003F0
FC0003F0
FC0003F0
FC0003F0
FC0003F0
FC0003F0
FC0003F0
FC0003F0
FC0003F0
FC0003F0
FC0003F0
FC0003F0
FC0003F0
FC0003F0
FC0003F0
FC0003F0
FC0003F0
BD0007E0
7F000FD0
2FE5BF80
0BFFFE00
01BFE400
ENDCHAR
STARTCHAR utilde
ENCODING 361
SWIDTH 483 0
DWIDTH 15 0
BBX 12 23 2 0
BITMAP
000050
0BE5B4
2FFFF0
3C1B90
000000
000000
F8007D
F8007D
F8007D
F8007D
F8007D
F8007D
F8007D
F8007D
F8007D
F8007D
F8007D
FC007D
FC00BD
BD01FD
7F9BFD
2FFFBD
07F97D
ENDCHAR
STARTCHAR Umacron
ENCODING 362
SWIDTH 561 0
DWIDTH 18 0
BBX 14 29 2 0
BITMAP
01555400
07FFFE00
07FFFE00
00000000
00000000
00000000
FC0003F0
FC0003F0
FC0003F0
FC0003F0
FC0003F0
FC0003F0
FC0003F0
FC0003F0
FC0003F0
FC0003F0
FC0003F0
FC0003F0
FC0003F0
FC0003F0
FC0003F0
FC0003F0
FC0003F0
FC0003F0
BD0007E0
7F000FD0
2FE5BF80
0BFFFE00
01BFE400
ENDCHAR
STARTCHAR umacron
ENCODING 363
SWIDTH 483 0
DWIDTH 15 0
BBX 12 24 2 0
BITMAP
155550
2FFFF4
2FFFF4
000000
000000
000000
000000
F8007D
F8007D
F8007D
F8007D
F8007D
F8007D
F8007D
F8007D
F8007D
F8007D
F8007D
FC007D
FC00BD
BD01FD
7F9BFD
2FFFBD
07F97D
ENDCHAR
STARTCHAR Ubreve
ENCODING 364
SWIDTH 561 0
DWIDTH 18 0
BBX 14 28 2 0
BITMAP
0B802E00
07D07D00
02FFF800
006F9000
00000000
FC0003F0
FC0003F0
FC0003F0
FC0003F0
FC0003F0
FC0003F0
FC0003F0
FC0003F0
FC0003F0
FC0003F0
FC0003F0
FC0003F0
FC0003F0
FC0003F0
FC0003F0
FC0003F0
FC0003F0
FC0003F0
BD0007E0
7F000FD0
2FE5BF80
0BFFFE00
01BFE400
ENDCHAR
STARTCHAR ubreve
ENCODING 365
SWIDTH 483 0
DWIDTH 15 0
BBX 12 23 2 0
BITMAP
2D00F4
2F02F0
0FFFE0
02FE40
000000
000000
F8007D
F8007D
F8007D
F8007D
F8007D
F8007D
F8007D
F8007D
F8007D
F8007D
F8007D
FC007D
FC00BD
BD01FD
7F9BFD
2FFFBD
07F97D
ENDCHAR
STARTCHAR Uring
ENCODING 366
SWIDTH 561 0
DWIDTH 18 0
BBX 14 31 2 0
BITMAP
002F8000
00BAE000
01D07400
01D07400
00F5E000
002F8000
00000000
00000000
FC0003F0
FC0003F0
FC0003F0
FC0003F0
FC0003F0
FC0003F0
FC0003F0
FC0003F0
FC0003F0
FC0003F0
FC0003F0
FC0003F0
FC0003F0
FC0003F0
FC0003F0
FC0003F0
FC0003F0
FC0003F0
BD0007E0
7F000FD0
2FE5BF80
0BFFFE00
01BFE400
ENDCHAR
STARTCHAR uring
ENCODING 367
SWIDTH 483 0
DWIDTH 15 0
BBX 12 25 2 0
BITMAP
01BD00
039B80
0B02C0
0B02C0
079B80
01BE00
000000
000000
F8007D
F8007D
F8007D
F8007D
F8007D
F8007D
F8007D
F8007D
F8007D
F8007D
F8007D
FC007D
FC00BD
BD01FD
7F9BFD
2FFFBD
07F97D
ENDCHAR
STARTCHAR Uhungarumlaut
ENCODING 368
SWIDTH 561 0
DWIDTH 18 0
BBX 14 30 2 0
BITMAP
002F4FC0
003E2F40
00BC7E00
00F8F800
01B1B400
00000000
00000000
FC0003F0
FC0003F0
FC0003F0
FC0003F0
FC0003F0
FC0003F0
FC0003F0
FC0003F0
FC0003F0
FC0003F0
FC0003F0
FC0003F0
FC0003F0
FC0003F0
FC0003F0
FC0003F0
FC0003F0
FC0003F0
BD0007E0
7F000FD0
2FE5BF80
0BFFFE00
01BFE400
ENDCHAR
STARTCHAR uhungarumlaut
ENCODING 369
SWIDTH 483 0
DWIDTH 15 0
BBX 12 24 2 0
BITMAP
00FC7E
01F4FC
02F2F4
07D7E0
068680
000000
000000
F8007D
F8007D
F8007D
F8007D
F8007D
F8007D
F8007D
F8007D
F8007D
F8007D
F8007D
FC007D
FC00BD
BD01FD
7F9BFD
2FFFBD
07F97D
ENDCHAR
STARTCHAR Uogonek
ENCODING 370
SWIDTH 561 0
DWIDTH 18 0
BBX 14 29 2 -6
BITMAP
FC0003F0
FC0003F0
FC0003F0
FC0003F0
FC0003F0
FC0003F0
FC0003F0
FC0003F0
FC0003F0
FC0003F0
FC0003F0
FC0003F0
FC0003F0
FC0003F0
FC0003F0
FC0003F0
FC0003F0
FC0003F0
BD0007E0
7F000FD0
2FE5BF80
0BFFFE00
01BFF400
0007D000
000B8000
000F4000
000F9400
000BF800
0002F400
ENDCHAR
STARTCHAR uogonek
ENCODING 371
SWIDTH 483 0
DWIDTH 15 0
BBX 12 24 2 -7
BITMAP
F8007D
F8007D
F8007D
F8007D
F8007D
F8007D
F8007D
F8007D
F8007D
F8007D
F8007D
FC007D
FC00BD
BD01FD
7F9BFD
2FFFBD
07F97D
0000B8
0002E0
0003D0
0007C0
0007D4
0003FD
0001F9
ENDCHAR
STARTCHAR Wcircumflex
ENCODING 372
SWIDTH 761 0
DWIDTH 24 0
BBX 23 29 1 0
BITMAP
00000B800000
00002FE00000
0000B8B80000
0001B0390000
000000000000
000000000000
BC000F8001F4
BD000FC002F4
7D001FC002F0
7E002FD003F0
3E003FE003E0
2F003EE007D0
2F007DF007D0
1F40BCF40BC0
1F40B8F40FC0
0F80F4B80F80
0FC1F07C1F40
0BC1F07C1F40
07D2E03D2F00
07D3D02E2F00
03E3D02E3E00
03E7C01F3D00
02FB800F7D00
01FB800BBC00
01FF400BFC00
00FF0007F800
00FE0003F400
00BE0003F400
007D0002F000
ENDCHAR
STARTCHAR wcircumflex
ENCODING 373
SWIDTH 649 0
DWIDTH 21 0
BBX 19 23 1 0
BITMAP
0000F80000
0003FE0000
000F8F8000
001A078000
0000000000
0000000000
F800F800FC
F800FC00F8
BC01FC01F4
7D02FD02F0
3D03FE02F0
3E07EF03E0
2F07DF43D0
1F0B8F47C0
0F4F4B8BC0
0F9F07CB80
0BAE03DF40
07FE03EF00
07FD02FF00
03FC01FE00
02F800FD00
01F800BD00
01F400BC00
ENDCHAR
STARTCHAR Ycircumflex
ENCODING 374
SWIDTH 524 0
DWIDTH 17 0
BBX 16 29 0 0
BITMAP
0002E000
000BF800
002E2E00
006C0E40
00000000
00000000
7F00007F
3F4000BE
1F8000FC
0FC001F8
0BE002F4
03F007E0
02F40BD0
01F80FC0
00BC1F40
007E2F00
002F7E00
001FFC00
000FF800
0007F400
0003F000
0003E000
0003E000
0003E000
0003E000
0003E000
0003E000
0003E000
0003E000
ENDCHAR
STARTCHAR ycircumflex
ENCODING 375
SWIDTH 416 0
DWIDTH 13 0
BBX 13 30 0 -7
BITMAP
001F4000
007FD000
01F5F400
02D0B800
00000000
00000000
7E001F80
3F002F40
2F403F00
1F403E00
0F807D00
0FC0BC00
0BD0FC00
07D0F800
03E1F400
02F2F000
01F7E000
00FBD000
00BFC000
00BFC000
007F8000
003F4000
002F0000
002E0000
003D0000
007D0000
00B80000
1BF40000
2FE00000
2F800000
ENDCHAR
STARTCHAR Ydieresis
ENCODING 376
SWIDTH 524 0
DWIDTH 17 0
BBX 16 29 0 0
BITMAP
00100100
01F80BD0
02F80FE0
01F407C0
00000000
00000000
7F00007F
3F4000BE
1F8000FC
0FC001F8
0BE002F4
03F007E0
02F40BD0
01F80FC0
00BC1F40
007E2F00
002F7E00
001FFC00
000FF800
0007F400
0003F000
0003E000
0003E000
0003E000
0003E000
0003E000
0003E000
0003E000
0003E000
ENDCHAR
STARTCHAR Zacute
ENCODING 377
SWIDTH 522 0
DWIDTH 17 0
BBX 15 30 1 0
BITMAP
00007F00
0001FC00
0002F400
000BD000
000B8000
00000000
00000000
7FFFFFF0
7FFFFFF0
55555BE0
00000BD0
00001F80
00003F00
0000BE00
0000FC00
0002F400
0007E000
000BD000
001F8000
003F0000
007E0000
00FC0000
02F40000
07F00000
0BD00000
1F800000
3F400000
7F555554
BFFFFFF4
BFFFFFF4
ENDCHAR
STARTCHAR zacute
ENCODING 378
SWIDTH 438 0
DWIDTH 14 0
BBX 12 24 1 0
BITMAP
0002F8
000BE0
001FC0
003F00
006D00
000000
000000
7FFFFD
7FFFFD
5555FD
0001F8
0003F0
000BD0
001F80
003F00
00BD00
01F800
02F400
07E000
0FC000
2F4000
7F5555
BFFFFE
BFFFFE
ENDCHAR
STARTCHAR Zdotaccent
ENCODING 379
SWIDTH 522 0
DWIDTH 17 0
BBX 15 29 1 0
BITMAP
00010000
000FC000
001FC000
000B8000
00000000
00000000
7FFFFFF0
7FFFFFF0
55555BE0
00000BD0
00001F80
00003F00
0000BE00
0000FC00
0002F400
0007E000
000BD000
001F8000
003F0000
007E0000
00FC0000
02F40000
07F00000
0BD00000
1F800000
3F400000
7F555554
BFFFFFF4
BFFFFFF4
ENDCHAR
STARTCHAR zdotaccent
ENCODING 380
SWIDTH 438 0
DWIDTH 14 0
BBX 12 23 1 0
BITMAP
001400
007E00
00BE00
007D00
000000
000000
7FFFFD
7FFFFD
5555FD
0001F8
0003F0
000BD0
001F80
003F00
00BD00
01F800
02F400
07E000
0FC000
2F4000
7F5555
BFFFFE
BFFFFE
ENDCHAR
STARTCHAR Zcaron
ENCODING 381
SWIDTH 522 0
DWIDTH 17 0
BBX 15 29 1 0
BITMAP
01F03D00
00B8F400
002FE000
000B8000
00000000
00000000
7FFFFFF0
7FFFFFF0
55555BE0
00000BD0
00001F80
00003F00
0000BE00
0000FC00
0002F400
0007E000
000BD000
001F8000
003F0000
007E0000
00FC0000
02F40000
07F00000
0BD00000
1F800000
3F400000
7F555554
BFFFFFF4
BFFFFFF4
ENDCHAR
STARTCHAR zcaron
ENCODING 382
SWIDTH 438 0
DWIDTH 14 0
BBX 12 23 1 0
BITMAP
0B81F0
03D7C0
00FF40
007D00
000000
000000
7FFFFD
7FFFFD
5555FD
0001F8
0003F0
000BD0
001F80
003F00
00BD00
01F800
02F400
07E000
0FC000
2F4000
7F5555
BFFFFE
BFFFFE
ENDCHAR
STARTCHAR longs
ENCODING 383
SWIDTH 234 0
DWIDTH 8 0
BBX 7 24 2 0
BITMAP
06F8
1FF8
3F94
7E00
BD00
BD00
BC00
BC00
BC00
BC00
BC00
BC00
BC00
BC00
BC00
BC00
BC00
BC00
BC00
BC00
BC00
BC00
BC00
BC00
ENDCHAR
STARTCHAR uni018F
ENCODING 399
SWIDTH 597 0
DWIDTH 19 0
BBX 17 23 1 0
BITMAP
01AFE40000
07FFFF4000
07EABFD000
020007F400
000001FC00
000000BD00
0000007E00
0000003F00
0000002F00
0000002F40
0000002F40
BFFFFFFF40
BFFFFFFF40
BD55556F40
BD00002F00
7D00003F00
7E00007E00
3E0000BD00
2F4001FC00
0FD007F400
07FAAFE000
01FFFF4000
002BF80000
ENDCHAR
STARTCHAR florin
ENCODING 402
SWIDTH 309 0
DWIDTH 10 0
BBX 10 31 0 -7
BITMAP
002FD0
00BFD0
01FE90
02F400
03F000
03F000
03F000
3FFF40
3FFF40
17F500
03F000
03F000
03F000
03F000
03F000
03F000
03F000
03F000
03F000
03F000
03F000
03F000
03F000
03F000
03F000
03F000
03E000
07E000
5BD000
BF8000
BE0000
ENDCHAR
STARTCHAR Ohorn
ENCODING 416
SWIDTH 592 0
DWIDTH 19 0
BBX 18 26 1 0
BITMAP
0000000050
00000001F0
00000002F0
001BF902E0
00BFFF8BD0
03FEAFFF80
0BE007FE00
1F8001FC00
2F4000BD00
3F00007E00
7E00003E00
7D00003F00
7D00003F00
7D00002F00
BD00002F00
7D00002F00
7D00003F00
7D00003F00
7E00003E00
3F00007E00
2F4000BD00
1F8001F800
0BE007F400
03FEAFE000
00FFFF8000
001BF90000
ENDCHAR
STARTCHAR ohorn
ENCODING 417
SWIDTH 502 0
DWIDTH 16 0
BBX 16 19 1 0
BITMAP
00000029
0000003D
006F903C
02FFFDB8
0BE5BFF4
1F802F90
3F000FC0
3E000BD0
7D0007D0
7D0007D0
7D0007E0
7D0007D0
7D0007D0
3E000BD0
3F000FC0
1F802F40
0BE5BE00
02FFFC00
006F9000
ENDCHAR
STARTCHAR Uhorn
ENCODING 431
SWIDTH 608 0
DWIDTH 19 0
BBX 19 25 2 0
BITMAP
0000000028
000000007C
FC0003F07C
FC0003F0B8
FC0003F2F4
FC0003FFE0
FC0003FF40
FC0003F000
FC0003F000
FC0003F000
FC0003F000
FC0003F000
FC0003F000
FC0003F000
FC0003F000
FC0003F000
FC0003F000
FC0003F000
FC0003F000
BC0003E000
7E000BD000
3F401FC000
1FE5BF4000
07FFFD0000
01BFE00000
ENDCHAR
STARTCHAR uhorn
ENCODING 432
SWIDTH 549 0
DWIDTH 18 0
BBX 16 19 2 0
BITMAP
00000015
0000002E
F8007D2D
F8007D7C
F8007FF8
F8007F90
F8007D00
F8007D00
F8007D00
F8007D00
F8007D00
F8007D00
F8007D00
FC007D00
FC00BD00
BD01FD00
7F9BFD00
2FFFBD00
07F97D00
ENDCHAR
STARTCHAR uni01F0
ENCODING 496
SWIDTH 237 0
DWIDTH 8 0
BBX 9 30 -1 -7
BITMAP
3D0B80
0F5F00
07FC00
01F400
000000
000000
01F400
01F400
01F400
01F400
01F400
01F400
01F400
01F400
01F400
01F400
01F400
01F400
01F400
01F400
01F400
01F400
01F400
01F400
01F400
02F400
02F000
5BE000
7FD000
7E4000
ENDCHAR
STARTCHAR Aringacute
ENCODING 506
SWIDTH 576 0
DWIDTH 18 0
BBX 18 31 0 0
BITMAP
00000B8000
00002E0000
0000280000
0000000000
0000B80000
00029D0000
00034A0000
00029D0000
0001FC0000
0001FC0000
0002FD0000
0003FE0000
0007EF0000
000B9F4000
000F4F8000
001F0BC000
002F07C000
003E03D000
007D02E000
00BC01F000
00F800F400
01F400B800
02FFFFFC00
03FFFFFD00
07E5557E00
0BC0002F00
0F80001F40
1F80000F80
2F40000BC0
3F00000BD0
7E000007E0
ENDCHAR
STARTCHAR aringacute
ENCODING 507
SWIDTH 479 0
DWIDTH 15 0
BBX 13 26 1 0
BITMAP
0000F800
0002E000
00078000
00000000
001F4000
0035C000
0070D000
0035C000
001F4000
00BF9000
07FFF800
0FE5FE00
2F403F00
3F002F00
00002F00
00002F00
00AFFF00
07FFFF00
1FE42F00
3F002F00
3E002F00
7E002F00
3F007F00
2FEAFF40
1FFFAF40
02FE1F80
ENDCHAR
STARTCHAR AEacute
ENCODING 508
SWIDTH 812 0
DWIDTH 26 0
BBX 26 30 0 0
BITMAP
0000001FC00000
0000003F400000
000000BD000000
000001F8000000
000002E0000000
00000000000000
00000000000000
000002FFFFFF40
000007FFFFFF40
00000BFE555500
00001FFD000000
00002F7D000000
00007E7D000000
0000BC7E000000
0001F87E000000
0002F47E000000
0007E03E000000
000BD03FFFFD00
001FC03FFFFD00
002F403E555400
007F003E000000
00BD003E000000
01FFFFFE000000
02FFFFFF000000
07FAAABF000000
0BE0003F000000
1FC0002F000000
2F80002F555540
7F00002FFFFFD0
BE00002FFFFFD0
ENDCHAR
STARTCHAR aeacute
ENCODING 509
SWIDTH 728 0
DWIDTH 23 0
BBX 21 24 1 0
BITMAP
000001FC0000
000003F40000
00000BD00000
00001F800000
00002A000000
000000000000
000000000000
01BF806FE000
0BFFF5FFFD00
2FE6FFF9BF00
3F00BFC01F40
7E007F400F80
00003F000BC0
00003F000BC0
02BFFFFFFFC0
1FFFFFFFFFC0
3F957E555540
7E003E000000
BD003F000000
BC003F400000
BD00BFD00200
7F9BFBF96F80
2FFFE1FFFF40
06FE402FE800
ENDCHAR
STARTCHAR Oslashacute
ENCODING 510
SWIDTH 600 0
DWIDTH 19 0
BBX 17 31 1 -1
BITMAP
00001FD000
00003F4000
0000BE0000
0001F80000
0001A00000
0000000000
0000000640
001BF90F00
00BFFFAE00
02FEAFFC00
07F402F800
0FD001FC00
1F8002FE00
2F4007FF00
3F000B6F00
3E001E2F40
3E002D2F40
3E00781F40
7E00B41F40
3E01E01F40
3E03C02F40
3E07802F40
3F0F002F00
2F6E003F00
1FBC007E00
0FF400FD00
07F402F800
02FEAFF000
07FFFF8000
0B5BF90000
1E00000000
ENDCHAR
STARTCHAR oslashacute
ENCODING 511
SWIDTH 498 0
DWIDTH 16 0
BBX 14 26 1 -2
BITMAP
0002FC00
0007F000
000BD000
002F4000
002E0000
00000600
00000F00
006FAD00
02FFFC00
0BE5BE00
1F80BF40
3F00EFC0
3E01DBC0
7D03C7D0
7D0747D0
7D0B07E0
7D1E07D0
7D2D07D0
3E380BD0
3FB40FC0
1FF02F40
0BE5BE00
03FFFC00
07AF9000
0B400000
0A000000
ENDCHAR
STARTCHAR uni0218
ENCODING 536
SWIDTH 518 0
DWIDTH 17 0
BBX 15 30 1 -7
BITMAP
006FE400
02FFFE00
0FF9BF80
2F800BD0
3F0003F0
3F0002F0
3F0002F4
3F000000
2FC00000
0FF80000
07FF9000
00BFFD00
0007FF40
00006FD0
00000BE0
000003F0
BD0002F4
BD0002F4
7E0003F0
2F800BE0
0FF9BFD0
06FFFF40
006FE800
00000000
000BC000
000B8000
000F8000
001F4000
002F0000
00090000
ENDCHAR
STARTCHAR uni0219
ENCODING 537
SWIDTH 455 0
DWIDTH 15 0
BBX 12 25 1 -8
BITMAP
01BF90
0BFFF4
1FE6FD
2F007E
3F003E
3F0000
2FD000
0BFE00
01FFE0
001BFC
0001FE
14003F
7D002F
3F003F
2FE6FD
0BFFF8
01BF90
000000
000000
002F00
002F00
002F00
003E00
007D00
002400
ENDCHAR
STARTCHAR uni021A
ENCODING 538
SWIDTH 520 0
DWIDTH 17 0
BBX 15 30 1 -7
BITMAP
FFFFFFF8
FFFFFFF8
556FD554
000F8000
000F8000
000F8000
000F8000
000F8000
000F8000
000F8000
000F8000
000F8000
000F8000
000F8000
000F8000
000F8000
000F8000
000F8000
000F8000
000F8000
000F8000
000F8000
000F8000
00000000
000F8000
000F8000
000F4000
001F4000
002E0000
00180000
ENDCHAR
STARTCHAR uni021B
ENCODING 539
SWIDTH 295 0
DWIDTH 9 0
BBX 9 28 0 -7
BITMAP
03E000
03E000
03E000
03E000
BFFF40
BFFF40
17E500
03E000
03E000
03E000
03E000
03E000
03E000
03E000
03E000
03E000
03E000
03E000
02FA00
01FF40
007F00
000000
003E00
003E00
003D00
007D00
00B800
006000
ENDCHAR
STARTCHAR uni0237
ENCODING 567
SWIDTH 237 0
DWIDTH 8 0
BBX 7 24 -1 -7
BITMAP
01F4
01F4
01F4
01F4
01F4
01F4
01F4
01F4
01F4
01F4
01F4
01F4
01F4
01F4
01F4
01F4
01F4
01F4
01F4
02F4
02F0
5BE0
7FD0
7E40
ENDCHAR
STARTCHAR uni0259
ENCODING 601
SWIDTH 465 0
DWIDTH 15 0
BBX 13 17 1 0
BITMAP
02FE4000
1FFFF000
2F96FC00
1800BE00
00003F00
00002F40
00001F40
00001F80
7FFFFF80
7FFFFF80
7E556F40
7D002F40
3E003F00
2F407D00
1FE6FC00
07FFF000
01BF8000
ENDCHAR
STARTCHAR uni02BC
ENCODING 700
SWIDTH 194 0
DWIDTH 6 0
BBX 4 8 1 16
BITMAP
3F
3F
3F
3E
7D
BC
F8
60
ENDCHAR
STARTCHAR circumflex
ENCODING 710
SWIDTH 428 0
DWIDTH 14 0
BBX 9 4 2 20
BITMAP
02F000
0BFC00
2F2E00
6D0A40
ENDCHAR
STARTCHAR caron
ENCODING 711
SWIDTH 403 0
DWIDTH 13 0
BBX 9 4 2 20
BITMAP
B81F40
2E3D00
0BF400
03E000
ENDCHAR
STARTCHAR uni02C9
ENCODING 713
SWIDTH 414 0
DWIDTH 13 0
BBX 10 2 2 21
BITMAP
BFFFD0
BFFFD0
ENDCHAR
STARTCHAR breve
ENCODING 728
SWIDTH 426 0
DWIDTH 14 0
BBX 10 4 2 19
BITMAP
F403D0
BD0BC0
3FFF40
06E900
ENDCHAR
STARTCHAR dotaccent
ENCODING 729
SWIDTH 242 0
DWIDTH 8 0
BBX 4 4 2 20
BITMAP
14
BD
BE
7D
ENDCHAR
STARTCHAR ring
ENCODING 730
SWIDTH 334 0
DWIDTH 11 0
BBX 7 6 2 19
BITMAP
2F90
B9F0
E034
E038
B9B0
2F90
ENDCHAR
STARTCHAR ogonek
ENCODING 731
SWIDTH 253 0
DWIDTH 8 0
BBX 5 8 1 -7
BITMAP
0600
1F00
7D00
B800
F400
F940
BF80
2F40
ENDCHAR
STARTCHAR tilde
ENCODING 732
SWIDTH 427 0
DWIDTH 14 0
BBX 10 4 2 20
BITMAP
000140
2F96D0
BFFFC0
F06E40
ENDCHAR
STARTCHAR hungarumlaut
ENCODING 733
SWIDTH 331 0
DWIDTH 11 0
BBX 10 5 1 19
BITMAP
0BC7E0
1F8FC0
2F2F40
3D7E00
686C00
ENDCHAR
STARTCHAR uni02F3
ENCODING 755
SWIDTH 263 0
DWIDTH 8 0
BBX 5 6 2 -7
BITMAP
7D00
E740
C240
D340
7E00
0400
ENDCHAR
STARTCHAR gravecomb
ENCODING 768
SWIDTH 0 0
DWIDTH 0 0
BBX 6 5 -11 19
BITMAP
FD00
7F00
1F80
0BC0
0390
ENDCHAR
STARTCHAR acutecomb
ENCODING 769
SWIDTH 0 0
DWIDTH 0 0
BBX 6 5 -9 19
BITMAP
07F0
0BD0
1F80
3E00
6C00
ENDCHAR
STARTCHAR tildecomb
ENCODING 771
SWIDTH 0 0
DWIDTH 0 0
BBX 10 4 -12 20
BITMAP
010050
1FE5F0
3FFFD0
786F80
ENDCHAR
STARTCHAR hookabovecomb
ENCODING 777
SWIDTH 0 0
DWIDTH 0 0
BBX 5 6 -9 19
BITMAP
B900
6F00
0B40
1F40
7E00
7800
ENDCHAR
STARTCHAR uni030F
ENCODING 783
SWIDTH 0 0
DWIDTH 0 0
BBX 10 4 -13 20
BITMAP
7F6F40
1FCBC0
07F7E0
01E5E0
ENDCHAR
STARTCHAR dotbelowcomb
ENCODING 803
SWIDTH 0 0
DWIDTH 0 0
BBX 4 4 -11 -6
BITMAP
B8
FD
FC
10
ENDCHAR
STARTCHAR tonos
ENCODING 900
SWIDTH 256 0
DWIDTH 8 0
BBX 4 5 3 20
BITMAP
7D
BC
B8
F0
A0
ENDCHAR
STARTCHAR dieresistonos
ENCODING 901
SWIDTH 452 0
DWIDTH 14 0
BBX 12 6 1 20
BITMAP
001F40
002F00
043D10
7D2C7D
7E00BD
2D007C
ENDCHAR
STARTCHAR Alphatonos
ENCODING 902
SWIDTH 576 0
DWIDTH 18 0
BBX 18 25 0 0
BITMAP
02F0000000
03E0000000
03D0F80000
07C1FC0000
0642FD0000
0003FE0000
0007EF0000
000B9F4000
000F4F8000
001F0BC000
002F07C000
003E03D000
007D02E000
00BC01F000
00F800F400
01F400B800
02FFFFFC00
03FFFFFD00
07E5557E00
0BC0002F00
0F80001F40
1F80000F80
2F40000BC0
3F00000BD0
7E000007E0
ENDCHAR
STARTCHAR anoteleia
ENCODING 903
SWIDTH 243 0
DWIDTH 8 0
BBX 4 4 2 9
BITMAP
78
BD
BD
14
ENDCHAR
STARTCHAR Epsilontonos
ENCODING 904
SWIDTH 496 0
DWIDTH 16 0
BBX 18 25 -3 0
BITMAP
3E00000000
7C00000000
B82FFFFFE0
B42FFFFFE0
B02F955550
002F400000
002F400000
002F400000
002F400000
002F400000
002F400000
002F400000
002FFFFF40
002FFFFF40
002F955500
002F400000
002F400000
002F400000
002F400000
002F400000
002F400000
002F400000
002F955550
002FFFFFE0
002FFFFFE0
ENDCHAR
STARTCHAR Etatonos
ENCODING 905
SWIDTH 620 0
DWIDTH 20 0
BBX 21 25 -3 0
BITMAP
3E0000000000
3D0000000000
7C2F40002F40
B82F40002F40
742F40002F40
002F40002F40
002F40002F40
002F40002F40
002F40002F40
002F40002F40
002F40002F40
002F40002F40
002FFFFFFF40
002FFFFFFF40
002F95556F40
002F40002F40
002F40002F40
002F40002F40
002F40002F40
002F40002F40
002F40002F40
002F40002F40
002F40002F40
002F40002F40
002F40002F40
ENDCHAR
STARTCHAR Iotatonos
ENCODING 906
SWIDTH 250 0
DWIDTH 8 0
BBX 9 25 -3 0
BITMAP
3E0000
3D0000
7C1F40
781F40
741F40
001F40
001F40
001F40
001F40
001F40
001F40
001F40
001F40
001F40
001F40
001F40
001F40
001F40
001F40
001F40
001F40
001F40
001F40
001F40
001F40
ENDCHAR
STARTCHAR Omicrontonos
ENCODING 908
SWIDTH 610 0
DWIDTH 20 0
BBX 19 25 -1 0
BITMAP
2F00000000
3E00000000
3D01BFE400
7C0BFFFD00
642FEAFF80
007F401FD0
00BD0007E0
01F80003F0
01F40002F4
02F40001F4
02F00001F8
02F00001F8
02F00001F8
02F00001F8
02F00001F8
02F00001F8
02F00001F8
02F40001F4
01F40002F4
01F80003F0
00FD0007E0
007F401FD0
002FEABF80
000BFFFE00
0001BFE400
ENDCHAR
STARTCHAR Upsilontonos
ENCODING 910
SWIDTH 573 0
DWIDTH 18 0
BBX 21 25 -3 0
BITMAP
7D0000000000
B80000000000
B42F40002F80
F01FC0003F00
A00FD0007E00
0007E000BD00
0003F001F800
0002F402F400
0000FC03F000
0000BD07D000
00003E0FC000
00002F1F8000
00001FAF0000
00000BFE0000
000007FD0000
000003F80000
000002F40000
000002F40000
000002F40000
000002F40000
000002F40000
000002F40000
000002F40000
000002F40000
000002F40000
ENDCHAR
STARTCHAR Omegatonos
ENCODING 911
SWIDTH 591 0
DWIDTH 19 0
BBX 18 25 -1 0
BITMAP
2F00000000
3E00000000
3D01BF9000
7C0BFFF800
642FEAFE00
007E003F40
00FC001F80
01F8000BC0
02F40007D0
02F00007E0
03F00003E0
03F00003E0
03F00003F0
03F00003F0
03F00003E0
02F00003E0
02F00007E0
01F40007D0
01F4000BC0
00B8000F80
007D001F40
002F407E00
016FE2FD50
03FFE2FFE0
03FFE2FFE0
ENDCHAR
STARTCHAR iotadieresistonos
ENCODING 912
SWIDTH 299 0
DWIDTH 10 0
BBX 11 25 -1 0
BITMAP
003E00
007D00
107C10
BC64F8
FC01F8
B800B4
000000
000000
00F800
00F800
00F800
00F800
00F800
00F800
00F800
00F800
00F800
00F800
00F800
00F800
00F800
00FC00
00BE80
007FD0
001FC0
ENDCHAR
STARTCHAR Alpha
ENCODING 913
SWIDTH 576 0
DWIDTH 18 0
BBX 18 23 0 0
BITMAP
0000F80000
0001FC0000
0002FD0000
0003FE0000
0007EF0000
000B9F4000
000F4F8000
001F0BC000
002F07C000
003E03D000
007D02E000
00BC01F000
00F800F400
01F400B800
02FFFFFC00
03FFFFFD00
07E5557E00
0BC0002F00
0F80001F40
1F80000F80
2F40000BC0
3F00000BD0
7E000007E0
ENDCHAR
STARTCHAR Beta
ENCODING 914
SWIDTH 545 0
DWIDTH 17 0
BBX 14 23 2 0
BITMAP
BFFFE400
BFFFFD00
BE56BF40
BD001F80
BD000FC0
BD000BC0
BD000BC0
BD000FC0
BD001F80
BD007F00
BFFFFD00
BFFFF900
BE55BF40
BD000FC0
BD000BD0
BD0007E0
BD0007E0
BD0007E0
BD000BD0
BD001FC0
BE55BF80
BFFFFE00
BFFFE400
ENDCHAR
STARTCHAR Gamma
ENCODING 915
SWIDTH 487 0
DWIDTH 16 0
BBX 13 23 2 0
BITMAP
7FFFFF40
7FFFFF40
7E555540
7D000000
7D000000
7D000000
7D000000
7D000000
7D000000
7D000000
7D000000
7D000000
7D000000
7D000000
7D000000
7D000000
7D000000
7D000000
7D000000
7D000000
7D000000
7D000000
7D000000
ENDCHAR
STARTCHAR Delta.dup1
ENCODING 916
SWIDTH 614 0
DWIDTH 20 0
BBX 19 23 0 0
BITMAP
00007D0000
0000BE0000
0000FF0000
0002FF4000
0003FF8000
0007EBC000
000BD7D000
000FC3E000
001F42F000
002F01F400
003E00F800
007D00BC00
00BC00BD00
00F8007E00
01F4003F00
02F0002F40
03E0001F80
07D0000FC0
0BC0000BD0
0F800007E0
1F95555BF0
2FFFFFFFF4
7FFFFFFFF8
ENDCHAR
STARTCHAR Epsilon
ENCODING 917
SWIDTH 496 0
DWIDTH 16 0
BBX 13 23 2 0
BITMAP
BFFFFF80
BFFFFF80
BE555540
BD000000
BD000000
BD000000
BD000000
BD000000
BD000000
BD000000
BFFFFD00
BFFFFD00
BE555400
BD000000
BD000000
BD000000
BD000000
BD000000
BD000000
BD000000
BE555540
BFFFFF80
BFFFFF80
ENDCHAR
STARTCHAR Zeta
ENCODING 918
SWIDTH 522 0
DWIDTH 17 0
BBX 15 23 1 0
BITMAP
7FFFFFF0
7FFFFFF0
55555BE0
00000BD0
00001F80
00003F00
0000BE00
0000FC00
0002F400
0007E000
000BD000
001F8000
003F0000
007E0000
00FC0000
02F40000
07F00000
0BD00000
1F800000
3F400000
7F555554
BFFFFFF4
BFFFFFF4
ENDCHAR
STARTCHAR Eta
ENCODING 919
SWIDTH 620 0
DWIDTH 20 0
BBX 16 23 2 0
BITMAP
BD0000BD
BD0000BD
BD0000BD
BD0000BD
BD0000BD
BD0000BD
BD0000BD
BD0000BD
BD0000BD
BD0000BD
BFFFFFFD
BFFFFFFD
BE5555BD
BD0000BD
BD0000BD
BD0000BD
BD0000BD
BD0000BD
BD0000BD
BD0000BD
BD0000BD
BD0000BD
BD0000BD
ENDCHAR
STARTCHAR Theta
ENCODING 920
SWIDTH 593 0
DWIDTH 19 0
BBX 16 23 1 0
BITMAP
001BF900
00BFFF80
03FEAFE0
0BE007F4
0FC001FC
2F4000BD
2F00007E
3E00003E
7E00003F
7D00002F
7D2FFF2F
7D2FFF2F
7D15552F
7D00002F
7E00003F
3E00003F
2F00007E
2F4000BD
1FC000FC
0BE003F4
03FEAFE0
00BFFF80
001BF900
ENDCHAR
STARTCHAR Iota
ENCODING 921
SWIDTH 250 0
DWIDTH 8 0
BBX 4 23 2 0
BITMAP
7D
7D
7D
7D
7D
7D
7D
7D
7D
7D
7D
7D
7D
7D
7D
7D
7D
7D
7D
7D
7D
7D
7D
ENDCHAR
STARTCHAR Kappa
ENCODING 922
SWIDTH 544 0
DWIDTH 17 0
BBX 15 23 2 0
BITMAP
BD0003F4
BD000BE0
BD001FC0
BD007F40
BD00FD00
BD02F800
BD07F000
BD0FD000
BD2F8000
BD7E0000
BEFE0000
BFFF4000
BFEF8000
BF8BD000
BE07F000
BD02F800
BD00FD00
BD007F00
BD002F80
BD001FD0
BD000BE0
BD0003F4
BD0001FC
ENDCHAR
STARTCHAR Lambda
ENCODING 923
SWIDTH 572 0
DWIDTH 18 0
BBX 16 23 1 0
BITMAP
0007D000
000BE000
000FF000
001FF400
002FF800
003FBC00
003EBD00
007D7E00
00BC3F00
00F82F40
01F81F80
02F40F80
03F00BC0
07E00BD0
0BD007E0
0FC003F0
0F8002F4
1F8001F8
2F4000FC
3F0000BD
7E0000BE
BD00007F
FC00003F
ENDCHAR
STARTCHAR Mu
ENCODING 924
SWIDTH 755 0
DWIDTH 24 0
BBX 20 23 2 0
BITMAP
BF400000FE
BF800001FE
BFC00002FE
BFD00003FE
BFE00007FE
BFF0000BFE
BEF4000FBE
BDF8001F7E
BCF8002F3E
BDBC003E3E
BD7D007D3E
BD3E00BC3E
BD2F00F83E
BD1F41F43E
BD0F82F03E
BD0BC3E03E
BD07D7D03E
BD03EBC03E
BD02FF803E
BD01FF403E
BD00FF003E
BD00BE003E
BD007D003E
ENDCHAR
STARTCHAR Nu
ENCODING 925
SWIDTH 619 0
DWIDTH 20 0
BBX 16 23 2 0
BITMAP
BE0000BD
BF0000BD
BF8000BD
BFC000BD
BFE000BD
BFF000BD
BDF800BD
BDBD00BD
BD3E00BD
BD2F40BD
BD0F80BD
BD07D0BD
BD03E0BD
BD01F4BD
BD00F8BD
BD007DBD
BD003EBD
BD001FFD
BD000FFD
BD0007FD
BD0003FD
BD0001FD
BD0000BD
ENDCHAR
STARTCHAR Xi
ENCODING 926
SWIDTH 502 0
DWIDTH 16 0
BBX 13 23 2 0
BITMAP
FFFFFF00
FFFFFF00
55555500
00000000
00000000
00000000
00000000
00000000
00000000
00000000
3FFFFC00
3FFFFC00
15555400
00000000
00000000
00000000
00000000
00000000
00000000
00000000
55555500
FFFFFF40
FFFFFF40
ENDCHAR
STARTCHAR Omicron
ENCODING 927
SWIDTH 600 0
DWIDTH 19 0
BBX 16 23 2 0
BITMAP
006FE400
02FFFF40
0FFABFD0
2F800BF0
3F0002F4
7D0001F8
BC0000FC
FC0000BC
FC0000BD
F80000BD
F80000BD
F80000BD
F80000BD
F80000BD
FC0000BD
FC0000BC
BC0000FC
BD0001F8
3F0002F4
2F800BF0
0FFABFD0
02FFFF40
006FE400
ENDCHAR
STARTCHAR Pi
ENCODING 928
SWIDTH 620 0
DWIDTH 20 0
BBX 16 23 2 0
BITMAP
7FFFFFFD
7FFFFFFD
7E5555BD
7D0000BD
7D0000BD
7D0000BD
7D0000BD
7D0000BD
7D0000BD
7D0000BD
7D0000BD
7D0000BD
7D0000BD
7D0000BD
7D0000BD
7D0000BD
7D0000BD
7D0000BD
7D0000BD
7D0000BD
7D0000BD
7D0000BD
7D0000BD
ENDCHAR
STARTCHAR Rho
ENCODING 929
SWIDTH 554 0
DWIDTH 18 0
BBX 15 23 2 0
BITMAP
BFFFE400
BFFFFF40
BE55BFC0
BD000BE0
BD0003F0
BD0002F4
BD0001F4
BD0001F4
BD0001F4
BD0002F4
BD0007F0
BD001FD0
BFFFFF80
BFFFFE00
BE555000
BD000000
BD000000
BD000000
BD000000
BD000000
BD000000
BD000000
BD000000
ENDCHAR
STARTCHAR Sigma
ENCODING 931
SWIDTH 502 0
DWIDTH 16 0
BBX 14 23 1 0
BITMAP
BFFFFFC0
BFFFFFC0
BF555540
3F400000
1FC00000
0BE00000
03F40000
01FC0000
00BE0000
003F4000
001FC000
000BD000
001FC000
003F4000
00BE0000
01FC0000
03F40000
0BE00000
1FC00000
3F400000
BF555550
BFFFFFE0
BFFFFFE0
ENDCHAR
STARTCHAR Tau
ENCODING 932
SWIDTH 520 0
DWIDTH 17 0
BBX 15 23 1 0
BITMAP
FFFFFFF8
FFFFFFF8
556FD554
000F8000
000F8000
000F8000
000F8000
000F8000
000F8000
000F8000
000F8000
000F8000
000F8000
000F8000
000F8000
000F8000
000F8000
000F8000
000F8000
000F8000
000F8000
000F8000
000F8000
ENDCHAR
STARTCHAR Upsilon
ENCODING 933
SWIDTH 524 0
DWIDTH 17 0
BBX 16 23 0 0
BITMAP
7F00007F
3F4000BE
1F8000FC
0FC001F8
0BE002F4
03F007E0
02F40BD0
01F80FC0
00BC1F40
007E2F00
002F7E00
001FFC00
000FF800
0007F400
0003F000
0003E000
0003E000
0003E000
0003E000
0003E000
0003E000
0003E000
0003E000
ENDCHAR
STARTCHAR Phi
ENCODING 934
SWIDTH 621 0
DWIDTH 20 0
BBX 18 23 1 0
BITMAP
0001F40000
0001F40000
0001F40000
006FFF9000
02FFFFF800
0BFAFAFE00
1F81F42F40
3F01F40FC0
7E01F40BD0
7D01F407D0
BD01F407E0
BC01F403E0
BC01F403E0
BD01F407E0
7D01F407D0
3E01F40BC0
2F41F41F80
0FE1F5BF00
07FFFFFD00
00BFFFE000
0006F90000
0001F40000
0001F40000
ENDCHAR
STARTCHAR Chi
ENCODING 935
SWIDTH 550 0
DWIDTH 18 0
BBX 16 23 1 0
BITMAP
BE0000FD
3F4002F8
2F8003F4
0FD00BE0
07E00FC0
03F42F80
01F83F00
00FDBE00
007EFC00
003FF800
001FF000
000FE000
001FF000
003FF800
007EFD00
00FC7E00
02F83F40
03F01F80
0BE00FD0
0FD007E0
2F8003F4
3F4002F8
BE0000FD
ENDCHAR
STARTCHAR Psi
ENCODING 936
SWIDTH 600 0
DWIDTH 19 0
BBX 17 23 1 0
BITMAP
BD03E01F80
BD03E01F80
BD03E01F80
BD03E01F80
BD03E01F80
BD03E01F80
BD03E01F80
BD03E01F80
BD03E01F80
BD03E01F80
BD03E01F40
7E03E02F40
3F03E03F00
2F83E0BD00
0FE7E6FC00
07FFFFF000
00BFFF8000
0017F40000
0003E00000
0003E00000
0003E00000
0003E00000
0003E00000
ENDCHAR
STARTCHAR Omega.dup2
ENCODING 937
SWIDTH 581 0
DWIDTH 19 0
BBX 16 23 1 0
BITMAP
001BF800
00FFFF40
03FEAFD0
0BE007F0
1F8002F4
2F4000F8
3F0000BC
3E0000BD
3E00007D
7E00007E
7E00007E
7E00007E
7E00007D
3E00007D
3E0000BD
2F0000BC
1F4000F8
0F4001F4
0BC002F0
03E007D0
16FD2FD5
3FFD3FFD
3FFD3FFD
ENDCHAR
STARTCHAR Iotadieresis
ENCODING 938
SWIDTH 250 0
DWIDTH 8 0
BBX 10 29 -1 0
BITMAP
100040
BC03E0
FD07F0
B802E0
000000
000000
01F400
01F400
01F400
01F400
01F400
01F400
01F400
01F400
01F400
01F400
01F400
01F400
01F400
01F400
01F400
01F400
01F400
01F400
01F400
01F400
01F400
01F400
01F400
ENDCHAR
STARTCHAR Upsilondieresis
ENCODING 939
SWIDTH 524 0
DWIDTH 17 0
BBX 16 29 0 0
BITMAP
00100100
01F80BD0
02F80FE0
01F407C0
00000000
00000000
7F00007F
3F4000BE
1F8000FC
0FC001F8
0BE002F4
03F007E0
02F40BD0
01F80FC0
00BC1F40
007E2F00
002F7E00
001FFC00
000FF800
0007F400
0003F000
0003E000
0003E000
0003E000
0003E000
0003E000
0003E000
0003E000
0003E000
ENDCHAR
STARTCHAR alphatonos
ENCODING 940
SWIDTH 494 0
DWIDTH 16 0
BBX 14 24 1 0
BITMAP
0002E000
0003D000
0007C000
00078000
00064000
00000000
00000000
01BE4B80
07FFEB80
0FE5FF80
1F803F80
3F001F80
3E000F80
7E000F80
7D000F80
7D000F80
7D000F80
7D000F80
7E000F80
3F001F80
2F403F80
0FE5FFE0
07FFEBF0
01BE42E0
ENDCHAR
STARTCHAR epsilontonos
ENCODING 941
SWIDTH 470 0
DWIDTH 15 0
BBX 13 24 1 0
BITMAP
000BC000
000F4000
000F0000
001E0000
00190000
00000000
00000000
01BF9000
0BFFF800
2FE6FE00
3F003F00
3E001A00
3E000000
2F800000
0BFFC000
0BFFC000
2F954000
7E000000
7D000500
7D001F40
7F003F40
2FD6FE00
0BFFF800
01BF9000
ENDCHAR
STARTCHAR etatonos
ENCODING 942
SWIDTH 498 0
DWIDTH 16 0
BBX 12 31 2 -7
BITMAP
001F40
002F00
002D00
003C00
002800
000000
000000
F86F90
FAFFF4
FF96FC
FE00BD
FC007E
FC003E
FC003E
FC003E
FC003E
FC003E
FC003E
FC003E
FC003E
FC003E
FC003E
FC003E
FC003E
00003E
00003E
00003E
00003E
00003E
00003E
00003E
ENDCHAR
STARTCHAR iotatonos
ENCODING 943
SWIDTH 299 0
DWIDTH 10 0
BBX 6 24 3 0
BITMAP
3E00
3D00
7C00
7800
7400
0000
0000
F800
F800
F800
F800
F800
F800
F800
F800
F800
F800
F800
F800
F800
FC00
BE80
7FD0
1FC0
ENDCHAR
STARTCHAR upsilondieresistonos
ENCODING 944
SWIDTH 480 0
DWIDTH 15 0
BBX 12 25 2 0
BITMAP
003E00
007D00
107C10
BC68F8
FC01FC
B800B4
000000
000000
FC01F4
FC00FC
FC00BC
FC00BD
FC007E
FC007E
FC003E
FC003E
FC003E
FC003E
FC007E
BC007D
BC00FC
7E02F8
3F9BF0
1FFFD0
06FE00
ENDCHAR
STARTCHAR alpha
ENCODING 945
SWIDTH 494 0
DWIDTH 16 0
BBX 14 17 1 0
BITMAP
01BE4B80
07FFEB80
0FE5FF80
1F803F80
3F001F80
3E000F80
7E000F80
7D000F80
7D000F80
7D000F80
7D000F80
7E000F80
3F001F80
2F403F80
0FE5FFE0
07FFEBF0
01BE42E0
ENDCHAR
STARTCHAR beta
ENCODING 946
SWIDTH 517 0
DWIDTH 17 0
BBX 13 29 2 -6
BITMAP
01BF8000
07FFF400
1FE6FC00
3F00BE00
7D003F00
BD002F00
BC003F00
BC003E00
BC01FC00
BC2FF400
BC2FF400
BC15FD00
BC003F00
BC001F40
BC000F80
BC000F80
BC000F80
BC000F80
BC001F40
BE003F00
BF96FE00
BFFFF800
BDBF9000
BC000000
BC000000
BC000000
BC000000
BC000000
BC000000
ENDCHAR
STARTCHAR gamma
ENCODING 947
SWIDTH 444 0
DWIDTH 14 0
BBX 13 24 1 -7
BITMAP
FC001F40
BC002F00
7D003E00
3E007D00
2F00BC00
1F40F800
0F80F800
0BC1F400
07C2F000
07D3E000
03E7D000
02FBC000
01FF8000
00FF4000
00BF0000
007E0000
007E0000
007E0000
007E0000
007E0000
007E0000
007E0000
007E0000
007E0000
ENDCHAR
STARTCHAR delta
ENCODING 948
SWIDTH 498 0
DWIDTH 16 0
BBX 14 24 1 0
BITMAP
006FE400
02FFF800
07F9B800
0BD00000
0BC00000
0BE00000
03F90000
01FF9000
00BFF400
07FAFD00
0F807F40
2F402F80
3E000FC0
7E000BD0
7D000BD0
7D0007D0
7D0007D0
7D000BD0
3E000BC0
2F000F80
1F802F40
0BE5BE00
03FFF800
006F9000
ENDCHAR
STARTCHAR epsilon
ENCODING 949
SWIDTH 470 0
DWIDTH 15 0
BBX 13 17 1 0
BITMAP
01BF9000
0BFFF800
2FE6FE00
3F003F00
3E001A00
3E000000
2F800000
0BFFC000
0BFFC000
2F954000
7E000000
7D000500
7D001F40
7F003F40
2FD6FE00
0BFFF800
01BF9000
ENDCHAR
STARTCHAR zeta
ENCODING 950
SWIDTH 462 0
DWIDTH 15 0
BBX 11 29 2 -6
BITMAP
FFFFFC
FFFFFC
5555F8
0002F0
0007D0
000F80
002F40
007E00
00FC00
02F400
07E000
0BC000
1F8000
2F0000
2F0000
3E0000
3E0000
7E0000
3E0000
3F0000
2FD000
0BFE40
01FFE0
001BF4
0001F4
0001F4
0002F0
0003D0
000180
ENDCHAR
STARTCHAR eta
ENCODING 951
SWIDTH 498 0
DWIDTH 16 0
BBX 12 24 2 -7
BITMAP
F86F90
FAFFF4
FF96FC
FE00BD
FC007E
FC003E
FC003E
FC003E
FC003E
FC003E
FC003E
FC003E
FC003E
FC003E
FC003E
FC003E
FC003E
00003E
00003E
00003E
00003E
00003E
00003E
00003E
ENDCHAR
STARTCHAR theta
ENCODING 952
SWIDTH 496 0
DWIDTH 16 0
BBX 13 23 1 0
BITMAP
006F9000
02FFF800
0BE5FD00
0F803F00
1F401F40
2F000F80
3E000F80
3E000BC0
3E000BC0
3E000BC0
7FFFFFC0
7FFFFFC0
7E555FC0
3E000BC0
3E000BC0
3E000FC0
3F000F80
2F001F80
1F402F40
0FC03F00
07F5FD00
02FFF800
006F9000
ENDCHAR
STARTCHAR iota
ENCODING 953
SWIDTH 299 0
DWIDTH 10 0
BBX 6 17 3 0
BITMAP
F800
F800
F800
F800
F800
F800
F800
F800
F800
F800
F800
F800
F800
FC00
BE80
7FD0
1FC0
ENDCHAR
STARTCHAR kappa
ENCODING 954
SWIDTH 491 0
DWIDTH 16 0
BBX 13 17 2 0
BITMAP
BC007F00
BC00FD00
BC02F400
BC07E000
BC1FC000
BC3F4000
BCBE0000
BFF80000
BFF80000
BEBD0000
BC3F4000
BC1FC000
BC0BE000
BC03F400
BC01FC00
BC00BE00
BC003F40
ENDCHAR
STARTCHAR lambda
ENCODING 955
SWIDTH 485 0
DWIDTH 16 0
BBX 14 24 1 0
BITMAP
1F800000
2FE00000
1BF00000
02F40000
01F80000
00FC0000
00BD0000
007E0000
007F0000
00BF4000
00FF8000
01FFC000
02FBD000
03E7E000
07D3F000
0BD2F400
0FC1F800
1F80FC00
2F40BD00
3F007E00
7E003F00
7E002F90
BD000FD0
FC0007D0
ENDCHAR
STARTCHAR uni03BC
ENCODING 956
SWIDTH 498 0
DWIDTH 16 0
BBX 12 24 2 -7
BITMAP
BC003E
BC003E
BC003E
BC003E
BC003E
BC003E
BC003E
BC003E
BC003E
BC003E
BC003E
BC003E
BD007E
BE00BE
BF96FE
BFFFBE
BDBE3E
BC0000
BC0000
BC0000
BC0000
BC0000
BC0000
BC0000
ENDCHAR
STARTCHAR nu
ENCODING 957
SWIDTH 427 0
DWIDTH 14 0
BBX 12 17 1 0
BITMAP
F8003E
FC007D
BD00BC
7D00BC
3E00F8
2F01F4
1F42F0
0F42E0
0B83D0
07C7C0
03DB80
03EB40
02FF40
01FF00
00FE00
00BD00
007C00
ENDCHAR
STARTCHAR xi
ENCODING 958
SWIDTH 431 0
DWIDTH 14 0
BBX 12 29 1 -6
BITMAP
006FF8
02FFFC
0BF968
1FC000
2F4000
2F0000
1F4000
0F8000
0BE400
01FFF0
01BFF0
07F950
1F8000
3F0000
7E0000
7D0000
7D0000
7E0000
3F0000
2F8000
1FF400
07FF90
006FFC
0001BE
00003E
00003D
00007C
0000F8
000060
ENDCHAR
STARTCHAR omicron
ENCODING 959
SWIDTH 501 0
DWIDTH 16 0
BBX 14 17 1 0
BITMAP
00AFA000
07FFFD00
0FE5BF00
2F802F80
3F000FC0
7E0007D0
7D0007D0
7D0007E0
BD0007E0
BD0007E0
7D0007D0
7E0007D0
3F000BC0
2F801F80
0FE5BF00
07FFFD00
00AFE000
ENDCHAR
STARTCHAR pi
ENCODING 960
SWIDTH 520 0
DWIDTH 17 0
BBX 16 17 0 0
BITMAP
7FFFFFFD
7FFFFFFD
17E55BE4
03E007D0
03E007D0
03E007D0
03E007D0
03E007D0
03E007D0
03E007D0
03E007D0
03E007D0
03E007D0
03E007D0
03E003F9
03E002FF
03E000BE
ENDCHAR
STARTCHAR rho
ENCODING 961
SWIDTH 498 0
DWIDTH 16 0
BBX 13 24 2 -7
BITMAP
01BE4000
07FFE000
1FD6F800
3F40BD00
7E003E00
BD002F00
BC002F00
BC002F40
FC001F40
FC001F40
FC002F40
FC002F00
FC003F00
FE00BE00
FF96FC00
FEFFF400
FCBF9000
FC000000
FC000000
FC000000
FC000000
FC000000
FC000000
FC000000
ENDCHAR
STARTCHAR sigma1
ENCODING 962
SWIDTH 472 0
DWIDTH 15 0
BBX 13 23 1 -6
BITMAP
006F9000
02FFF800
0BE6FD00
1F803F00
2F001F40
3E001F40
7E000000
7D000000
7D000000
7D000000
7E000000
3F000000
2F800000
1FE00000
0BFD0000
01FFE400
002FFC00
0001BD00
00003E00
00007D00
0000BC00
0000F400
00006000
ENDCHAR
STARTCHAR sigma
ENCODING 963
SWIDTH 498 0
DWIDTH 16 0
BBX 15 17 1 0
BITMAP
006FFFF4
02FFFFF4
0BE5BD54
1F802E00
2F000F40
3E000B80
7E000BC0
7D0007D0
7D0007D0
7D0007D0
7E000BD0
3E000BC0
2F000F80
1F802F40
0BE5BE00
02FFF800
006F9000
ENDCHAR
STARTCHAR tau
ENCODING 964
SWIDTH 460 0
DWIDTH 15 0
BBX 13 17 1 0
BITMAP
BFFFFF40
BFFFFF40
557E5500
003E0000
003E0000
003E0000
003E0000
003E0000
003E0000
003E0000
003E0000
003E0000
003E0000
003E0000
003FA000
002FF400
000BE400
ENDCHAR
STARTCHAR upsilon
ENCODING 965
SWIDTH 480 0
DWIDTH 15 0
BBX 12 17 2 0
BITMAP
FC01F4
FC00FC
FC00BC
FC00BD
FC007E
FC007E
FC003E
FC003E
FC003E
FC003E
FC007E
BC007D
BC00FC
7E02F8
3F9BF0
1FFFD0
06FE00
ENDCHAR
STARTCHAR phi
ENCODING 966
SWIDTH 617 0
DWIDTH 20 0
BBX 18 24 1 -7
BITMAP
02006F9000
0B80FFF800
1F81F9FE00
3F42F02F40
7E02F01F80
7D02F00BC0
BD02F00BD0
BC02F007D0
BC02F007D0
BD02F007D0
7D02F00BD0
7E02F00FC0
3F42F02F80
1FD2F0BF00
0BFAFBFD00
02FFFFF400
006FFE4000
0002F00000
0002F00000
0002F00000
0002F00000
0002F00000
0002F00000
0002F00000
ENDCHAR
STARTCHAR chi
ENCODING 967
SWIDTH 438 0
DWIDTH 14 0
BBX 15 24 0 -7
BITMAP
3E000BD0
7FC00FC0
2BE01F40
02F02F00
01F43E00
00F8BD00
00BCFC00
007EF400
003FF000
001FE000
000FD000
000FC000
001FD000
002FE000
003FF000
007EF400
00FCF800
01F8BC00
02F47D00
03E03E00
07D02F40
0FC00FE4
1F800BF4
2F4002F0
ENDCHAR
STARTCHAR psi
ENCODING 968
SWIDTH 612 0
DWIDTH 20 0
BBX 18 24 1 -7
BITMAP
BD02F03F00
BD02F02F40
BD02F01F80
BD02F00FC0
BD02F00FC0
BD02F00BC0
BD02F00BD0
BD02F00BD0
BD02F00BD0
7D02F00BD0
7E02F00FC0
3F02F01F80
2F42F02F40
1FD2F0BF00
0BFBFBFD00
02FFFFF400
006FFE4000
0002F00000
0002F00000
0002F00000
0002F00000
0002F00000
0002F00000
0002F00000
ENDCHAR
STARTCHAR omega
ENCODING 969
SWIDTH 711 0
DWIDTH 23 0
BBX 19 17 2 0
BITMAP
2F40000BD0
3F000007E0
7E000003F0
BD000002F4
BC005001F8
FC00F801F8
F800F800F8
F800F800F8
F800F800F8
F800F800F8
F800F800F8
FC01FC01F8
BC01FC01F4
7E03ED02F0
3F9BDF5BE0
1FFF4BFF80
06F901BE00
ENDCHAR
STARTCHAR iotadieresis
ENCODING 970
SWIDTH 299 0
DWIDTH 10 0
BBX 11 23 -1 0
BITMAP
040040
7E02F4
BE03F8
7D01F0
000000
000000
00F800
00F800
00F800
00F800
00F800
00F800
00F800
00F800
00F800
00F800
00F800
00F800
00F800
00FC00
00BE80
007FD0
001FC0
ENDCHAR
STARTCHAR upsilondieresis
ENCODING 971
SWIDTH 480 0
DWIDTH 15 0
BBX 12 23 2 0
BITMAP
040040
7E02F4
BE02F8
3D01F4
000000
000000
FC01F4
FC00FC
FC00BC
FC00BD
FC007E
FC007E
FC003E
FC003E
FC003E
FC003E
FC007E
BC007D
BC00FC
7E02F8
3F9BF0
1FFFD0
06FE00
ENDCHAR
STARTCHAR omicrontonos
ENCODING 972
SWIDTH 501 0
DWIDTH 16 0
BBX 14 24 1 0
BITMAP
0007D000
000B8000
000B4000
000F0000
000A0000
00000000
00000000
00AFA000
07FFFD00
0FE5BF00
2F802F80
3F000FC0
7E0007D0
7D0007D0
7D0007E0
BD0007E0
BD0007E0
7D0007D0
7E0007D0
3F000BC0
2F801F80
0FE5BF00
07FFFD00
00AFE000
ENDCHAR
STARTCHAR upsilontonos
ENCODING 973
SWIDTH 480 0
DWIDTH 15 0
BBX 12 24 2 0
BITMAP
003E00
003D00
007C00
007800
006400
000000
000000
FC01F4
FC00FC
FC00BC
FC00BD
FC007E
FC007E
FC003E
FC003E
FC003E
FC003E
FC007E
BC007D
BC00FC
7E02F8
3F9BF0
1FFFD0
06FE00
ENDCHAR
STARTCHAR omegatonos
ENCODING 974
SWIDTH 711 0
DWIDTH 23 0
BBX 19 24 2 0
BITMAP
00003E0000
00003D0000
00007C0000
0000B80000
0000740000
0000000000
0000000000
2F40000BD0
3F000007E0
7E000003F0
BD000002F4
BC005001F8
FC00F801F8
F800F800F8
F800F800F8
F800F800F8
F800F800F8
F800F800F8
FC01FC01F8
BC01FC01F4
7E03ED02F0
3F9BDF5BE0
1FFF4BFF80
06F901BE00
ENDCHAR
STARTCHAR theta1
ENCODING 977
SWIDTH 507 0
DWIDTH 16 0
BBX 14 23 2 0
BITMAP
006F9000
01FFF400
03FAFC00
07E0BD00
07D07E00
07D03E00
07D03E00
07E03E00
03F03E00
01F83E00
00BFBE40
F82FFFD0
F807FFD0
F8007E40
F8003E00
F8003E00
F8007E00
F8007D00
BC00BD00
7E00FC00
3F9BF400
1FFFE000
02FE4000
ENDCHAR
STARTCHAR Upsilon1
ENCODING 978
SWIDTH 465 0
DWIDTH 15 0
BBX 15 23 0 0
BITMAP
B90001B8
FF0003FC
BF4007F4
0FC00FC0
0BD01F80
07E02F40
03F03E00
01F47D00
00F8BC00
00BDF800
007FF400
003FF000
002FD000
000FC000
000FC000
000FC000
000FC000
000FC000
000FC000
000FC000
000FC000
000FC000
000FC000
ENDCHAR
STARTCHAR omega1
ENCODING 982
SWIDTH 678 0
DWIDTH 22 0
BBX 20 17 1 0
BITMAP
BFFFFFFFFE
BFFFFFFFFE
6F955557F5
1F800002F4
2F400001F4
2F000001F8
3F007D00F8
3E007D00F8
3E007D00FC
3E007D00F8
3F007D00F8
2F00BD00F8
2F40BE01F4
1F81FF02F0
0FD7DBDBE0
07FF83FFC0
01BE00BE00
ENDCHAR
STARTCHAR uni0400
ENCODING 1024
SWIDTH 496 0
DWIDTH 16 0
BBX 13 30 2 0
BITMAP
0FD00000
07F00000
01F80000
00BD0000
002A0000
00000000
00000000
BFFFFF80
BFFFFF80
BE555540
BD000000
BD000000
BD000000
BD000000
BD000000
BD000000
BD000000
BFFFFD00
BFFFFD00
BE555400
BD000000
BD000000
BD000000
BD000000
BD000000
BD000000
BD000000
BE555540
BFFFFF80
BFFFFF80
ENDCHAR
STARTCHAR uni0401
ENCODING 1025
SWIDTH 496 0
DWIDTH 16 0
BBX 13 29 2 0
BITMAP
01001000
1F80BD00
2F80FE00
1F407C00
00000000
00000000
BFFFFF80
BFFFFF80
BE555540
BD000000
BD000000
BD000000
BD000000
BD000000
BD000000
BD000000
BFFFFD00
BFFFFD00
BE555400
BD000000
BD000000
BD000000
BD000000
BD000000
BD000000
BD000000
BE555540
BFFFFF80
BFFFFF80
ENDCHAR
STARTCHAR uni0402
ENCODING 1026
SWIDTH 650 0
DWIDTH 21 0
BBX 20 23 0 0
BITMAP
7FFFFFFE00
7FFFFFFE00
155FD55500
000FC00000
000FC00000
000FC00000
000FC00000
000FC00000
000FC00000
000FDBFA00
000FFFFFD0
000FFEAFF4
000FD002F8
000FC000FD
000FC000BD
000FC0007D
000FC0007E
000FC0007D
000FC000BD
000FC001FC
000FC01BF4
000FC03FD0
000FC03E40
ENDCHAR
STARTCHAR uni0403
ENCODING 1027
SWIDTH 487 0
DWIDTH 16 0
BBX 13 30 2 0
BITMAP
0001FC00
0003F400
000BD000
001F8000
002E0000
00000000
00000000
7FFFFF40
7FFFFF40
7E555540
7D000000
7D000000
7D000000
7D000000
7D000000
7D000000
7D000000
7D000000
7D000000
7D000000
7D000000
7D000000
7D000000
7D000000
7D000000
7D000000
7D000000
7D000000
7D000000
7D000000
ENDCHAR
STARTCHAR uni0404
ENCODING 1028
SWIDTH 589 0
DWIDTH 19 0
BBX 15 23 2 0
BITMAP
006FE400
02FFFF40
0BFABFC0
1F800BE0
3F0003F0
7E0002F4
BD0001F8
FC0000A4
FC000000
F8000000
FFFFF000
FFFFF000
FD555000
F8000000
FC000000
FC000054
BD0001F8
7E0002F4
3F0003F0
1F800BE0
0BF9BFC0
02FFFF40
006FE400
ENDCHAR
STARTCHAR uni0405
ENCODING 1029
SWIDTH 518 0
DWIDTH 17 0
BBX 15 23 1 0
BITMAP
006FE400
02FFFE00
0FF9BF80
2F800BD0
3F0003F0
3F0002F0
3F0002F4
3F000000
2FC00000
0FF80000
07FF9000
00BFFD00
0007FF40
00006FD0
00000BE0
000003F0
BD0002F4
BD0002F4
7E0003F0
2F800BE0
0FF9BFD0
06FFFF40
006FE800
ENDCHAR
STARTCHAR uni0406
ENCODING 1030
SWIDTH 250 0
DWIDTH 8 0
BBX 4 23 2 0
BITMAP
7D
7D
7D
7D
7D
7D
7D
7D
7D
7D
7D
7D
7D
7D
7D
7D
7D
7D
7D
7D
7D
7D
7D
ENDCHAR
STARTCHAR uni0407
ENCODING 1031
SWIDTH 250 0
DWIDTH 8 0
BBX 10 29 -1 0
BITMAP
100040
BC03E0
FD07F0
B802E0
000000
000000
01F400
01F400
01F400
01F400
01F400
01F400
01F400
01F400
01F400
01F400
01F400
01F400
01F400
01F400
01F400
01F400
01F400
01F400
01F400
01F400
01F400
01F400
01F400
ENDCHAR
STARTCHAR uni0408
ENCODING 1032
SWIDTH 483 0
DWIDTH 15 0
BBX 13 23 1 0
BITMAP
00002F40
00002F40
00002F40
00002F40
00002F40
00002F40
00002F40
00002F40
00002F40
00002F40
00002F40
00002F40
00002F40
00002F40
00002F40
00002F40
A4002F00
FC003F00
FD007F00
BE00BE00
3FABFC00
1FFFF400
02FF8000
ENDCHAR
STARTCHAR uni0409
ENCODING 1033
SWIDTH 923 0
DWIDTH 30 0
BBX 28 23 1 0
BITMAP
00FFFFFF000000
00FFFFFF000000
00FD557F000000
00F8002F000000
00F8002F000000
00F8002F000000
00F8002F000000
01F8002F000000
01F8002F000000
01F8002FFFF900
01F8002FFFFF80
01F8002F956FF0
01F4002F0002F4
01F4002F0001FC
01F4002F0000BC
02F4002F0000BD
02F0002F0000BD
03F0002F0000BC
07E0002F0001FC
0BD0002F0002F8
AFC0002F956FF0
FF40002FFFFFC0
F900002FFFF900
ENDCHAR
STARTCHAR uni040A
ENCODING 1034
SWIDTH 927 0
DWIDTH 30 0
BBX 27 23 2 0
BITMAP
7D0000BD000000
7D0000BD000000
7D0000BD000000
7D0000BD000000
7D0000BD000000
7D0000BD000000
7D0000BD000000
7D0000BD000000
7D0000BD000000
7D0000BD000000
7FFFFFFFFFE800
7FFFFFFFFFFF40
7E5555BE55AFD0
7D0000BD000BE0
7D0000BD0003F0
7D0000BD0002F4
7D0000BD0002F4
7D0000BD0002F4
7D0000BD0003F0
7D0000BD000BE0
7D0000BEAABFC0
7D0000BFFFFF40
7D0000BFFFE800
ENDCHAR
STARTCHAR uni040B
ENCODING 1035
SWIDTH 705 0
DWIDTH 23 0
BBX 19 23 1 0
BITMAP
BFFFFFFC00
BFFFFFFC00
556F955400
002F400000
002F400000
002F400000
002F400000
002F400000
002F400000
002FAFF900
002FFFFFD0
002FEA6FF0
002F4002F4
002F4001F8
002F4000FC
002F4000FC
002F4000FC
002F4000FC
002F4000FC
002F4000FC
002F4000FC
002F4000FC
002F4000FC
ENDCHAR
STARTCHAR uni040C
ENCODING 1036
SWIDTH 544 0
DWIDTH 17 0
BBX 15 30 2 0
BITMAP
0002F800
0007F000
000FC000
002F4000
002D0000
00000000
00000000
BD0003F4
BD000BE0
BD001FC0
BD007F40
BD00FD00
BD02F800
BD07F000
BD0FD000
BD2F8000
BD7E0000
BEFE0000
BFFF4000
BFEF8000
BF8BD000
BE07F000
BD02F800
BD00FD00
BD007F00
BD002F80
BD001FD0
BD000BE0
BD0003F4
BD0001FC
ENDCHAR
STARTCHAR uni040D
ENCODING 1037
SWIDTH 619 0
DWIDTH 20 0
BBX 16 30 2 0
BITMAP
02FC0000
00BE0000
003F4000
001FC000
00079000
00000000
00000000
7D0000FD
7D0001FD
7D0003FD
7D0007FD
7D000FFD
7D001FFD
7D003EBD
7D007DBD
7D00F8BD
7D01F4BD
7D03E0BD
7D07D0BD
7D0F80BD
7D1F40BD
7D3E00BD
7D7D00BD
7DF800BD
7FF400BD
7FE000BD
7FD000BD
7F8000BD
7F4000BD
7E0000BD
ENDCHAR
STARTCHAR uni040E
ENCODING 1038
SWIDTH 547 0
DWIDTH 18 0
BBX 16 28 1 0
BITMAP
02D00B40
02F41F40
00FFFE00
002FE400
00000000
7E0000FD
3F0001FC
2F4002F8
1FC003F4
0FD007F0
0BE00BD0
03F00FC0
02F41F80
01F82F40
00FC3F00
00BD7E00
007EBD00
003FFC00
002FF800
001FF400
000BF000
0007E000
000BD000
000FC000
001F8000
01BF0000
03FD0000
03E40000
ENDCHAR
STARTCHAR uni040F
ENCODING 1039
SWIDTH 621 0
DWIDTH 20 0
BBX 16 29 2 -6
BITMAP
7D0000BD
7D0000BD
7D0000BD
7D0000BD
7D0000BD
7D0000BD
7D0000BD
7D0000BD
7D0000BD
7D0000BD
7D0000BD
7D0000BD
7D0000BD
7D0000BD
7D0000BD
7D0000BD
7D0000BD
7D0000BD
7D0000BD
7D0000BD
7E5555BD
7FFFFFFD
7FFFFFFD
0007D000
0007D000
0007D000
0007D000
0007D000
0007D000
ENDCHAR
STARTCHAR uni0410
ENCODING 1040
SWIDTH 576 0
DWIDTH 18 0
BBX 18 23 0 0
BITMAP
0000F80000
0001FC0000
0002FD0000
0003FE0000
0007EF0000
000B9F4000
000F4F8000
001F0BC000
002F07C000
003E03D000
007D02E000
00BC01F000
00F800F400
01F400B800
02FFFFFC00
03FFFFFD00
07E5557E00
0BC0002F00
0F80001F40
1F80000F80
2F40000BC0
3F00000BD0
7E000007E0
ENDCHAR
STARTCHAR uni0411
ENCODING 1041
SWIDTH 549 0
DWIDTH 18 0
BBX 15 23 2 0
BITMAP
BFFFFF40
BFFFFF40
BE555500
BD000000
BD000000
BD000000
BD000000
BD000000
BD000000
BFFFE800
BFFFFF40
BE55BFC0
BD000BE0
BD0003F0
BD0002F4
BD0002F4
BD0002F4
BD0002F4
BD0003F0
BD000BE0
BE55BFC0
BFFFFF40
BFFFE400
ENDCHAR
STARTCHAR uni0412
ENCODING 1042
SWIDTH 545 0
DWIDTH 17 0
BBX 14 23 2 0
BITMAP
BFFFE400
BFFFFD00
BE56BF40
BD001F80
BD000FC0
BD000BC0
BD000BC0
BD000FC0
BD001F80
BD007F00
BFFFFD00
BFFFF900
BE55BF40
BD000FC0
BD000BD0
BD0007E0
BD0007E0
BD0007E0
BD000BD0
BD001FC0
BE55BF80
BFFFFE00
BFFFE400
ENDCHAR
STARTCHAR uni0413
ENCODING 1043
SWIDTH 487 0
DWIDTH 16 0
BBX 13 23 2 0
BITMAP
7FFFFF40
7FFFFF40
7E555540
7D000000
7D000000
7D000000
7D000000
7D000000
7D000000
7D000000
7D000000
7D000000
7D000000
7D000000
7D000000
7D000000
7D000000
7D000000
7D000000
7D000000
7D000000
7D000000
7D000000
ENDCHAR
STARTCHAR uni0414
ENCODING 1044
SWIDTH 660 0
DWIDTH 21 0
BBX 19 29 1 -6
BITMAP
007FFFFF40
007FFFFF40
007E556F40
00BD001F40
00BD001F40
00BD001F40
00BD001F40
00BD001F40
00BC001F40
00BC001F40
00FC001F40
00FC001F40
00FC001F40
00F8001F40
01F8001F40
02F4001F40
02F0001F40
03F0001F40
07E0001F40
0BC0001F40
6FD5556F94
FFFFFFFFFC
FFFFFFFFFC
F8000000BC
F8000000BC
F8000000BC
F8000000BC
F8000000BC
F8000000BC
ENDCHAR
STARTCHAR uni0415
ENCODING 1045
SWIDTH 496 0
DWIDTH 16 0
BBX 13 23 2 0
BITMAP
BFFFFF80
BFFFFF80
BE555540
BD000000
BD000000
BD000000
BD000000
BD000000
BD000000
BD000000
BFFFFD00
BFFFFD00
BE555400
BD000000
BD000000
BD000000
BD000000
BD000000
BD000000
BD000000
BE555540
BFFFFF80
BFFFFF80
ENDCHAR
STARTCHAR uni0416
ENCODING 1046
SWIDTH 791 0
DWIDTH 25 0
BBX 24 23 1 0
BITMAP
BE000BD001FC
3F400BD002F8
1F800BD007F0
0FD00BD00BD0
07E00BD00FC0
03F00BD02F40
01F80BD03F00
00BC0BD0BD00
007E0BD0F800
002F0BD2F400
001FFFFFE000
001FFFFFF000
003FABEAF400
007E0BD1FC00
00FD0BD0BD00
01FC0BD07F00
03F40BD02F80
07F00BD01FC0
0FD00BD00FE0
2FC00BD007F0
3F400BD003F8
BF000BD001FC
FD000BD000FE
ENDCHAR
STARTCHAR uni0417
ENCODING 1047
SWIDTH 517 0
DWIDTH 17 0
BBX 14 23 1 0
BITMAP
00AFE400
07FFFE00
1FEABF80
2F801FD0
7F0007E0
7E0003E0
140003F0
000007E0
00000BD0
00006F80
002FFE00
002FFD00
0015BF80
00000BD0
000003F0
000002F0
680002F0
BD0002F0
7E0007F0
3F400FD0
1FE5BF80
07FFFE00
00AFE400
ENDCHAR
STARTCHAR uni0418
ENCODING 1048
SWIDTH 619 0
DWIDTH 20 0
BBX 16 23 2 0
BITMAP
7D0000FD
7D0001FD
7D0003FD
7D0007FD
7D000FFD
7D001FFD
7D003EBD
7D007DBD
7D00F8BD
7D01F4BD
7D03E0BD
7D07D0BD
7D0F80BD
7D1F40BD
7D3E00BD
7D7D00BD
7DF800BD
7FF400BD
7FE000BD
7FD000BD
7F8000BD
7F4000BD
7E0000BD
ENDCHAR
STARTCHAR uni0419
ENCODING 1049
SWIDTH 619 0
DWIDTH 20 0
BBX 16 28 2 0
BITMAP
02E00B40
01F41F40
00BFFE00
002FE400
00000000
7D0000FD
7D0001FD
7D0003FD
7D0007FD
7D000FFD
7D001FFD
7D003EBD
7D007DBD
7D00F8BD
7D01F4BD
7D03E0BD
7D07D0BD
7D0F80BD
7D1F40BD
7D3E00BD
7D7D00BD
7DF800BD
7FF400BD
7FE000BD
7FD000BD
7F8000BD
7F4000BD
7E0000BD
ENDCHAR
STARTCHAR uni041A
ENCODING 1050
SWIDTH 560 0
DWIDTH 18 0
BBX 16 23 2 0
BITMAP
7D0002F8
7D0007F4
7D000FE0
7D002FC0
7D007F40
7D00FE00
7D02FC00
7D07F400
7D0BE000
7D1FC000
7FFF4000
7FFF4000
7EAFC000
7D0BE000
7D03F400
7D02FC00
7D00FE00
7D007F40
7D002F80
7D000FD0
7D0007F0
7D0002F8
7D0000FD
ENDCHAR
STARTCHAR uni041B
ENCODING 1051
SWIDTH 615 0
DWIDTH 20 0
BBX 16 23 1 0
BITMAP
00FFFFFF
00FFFFFF
00FD557F
00F8002F
00F8002F
00F8002F
00F8002F
00F8002F
01F8002F
01F8002F
01F8002F
01F8002F
01F4002F
01F4002F
01F4002F
02F4002F
02F0002F
03F0002F
03E0002F
0BD0002F
AFC0002F
FF40002F
F900002F
ENDCHAR
STARTCHAR uni041C
ENCODING 1052
SWIDTH 755 0
DWIDTH 24 0
BBX 20 23 2 0
BITMAP
BF400000FE
BF800001FE
BFC00002FE
BFD00003FE
BFE00007FE
BFF0000BFE
BEF4000FBE
BDF8001F7E
BCF8002F3E
BDBC003E3E
BD7D007D3E
BD3E00BC3E
BD2F00F83E
BD1F41F43E
BD0F82F03E
BD0BC3E03E
BD07D7D03E
BD03EBC03E
BD02FF803E
BD01FF403E
BD00FF003E
BD00BE003E
BD007D003E
ENDCHAR
STARTCHAR uni041D
ENCODING 1053
SWIDTH 620 0
DWIDTH 20 0
BBX 16 23 2 0
BITMAP
BD0000BD
BD0000BD
BD0000BD
BD0000BD
BD0000BD
BD0000BD
BD0000BD
BD0000BD
BD0000BD
BD0000BD
BFFFFFFD
BFFFFFFD
BE5555BD
BD0000BD
BD0000BD
BD0000BD
BD0000BD
BD0000BD
BD0000BD
BD0000BD
BD0000BD
BD0000BD
BD0000BD
ENDCHAR
STARTCHAR uni041E
ENCODING 1054
SWIDTH 600 0
DWIDTH 19 0
BBX 16 23 2 0
BITMAP
006FE400
02FFFF40
0FFABFD0
2F800BF0
3F0002F4
7D0001F8
BC0000FC
FC0000BC
FC0000BD
F80000BD
F80000BD
F80000BD
F80000BD
F80000BD
FC0000BD
FC0000BC
BC0000FC
BD0001F8
3F0002F4
2F800BF0
0FFABFD0
02FFFF40
006FE400
ENDCHAR
STARTCHAR uni041F
ENCODING 1055
SWIDTH 620 0
DWIDTH 20 0
BBX 16 23 2 0
BITMAP
7FFFFFFD
7FFFFFFD
7E5555BD
7D0000BD
7D0000BD
7D0000BD
7D0000BD
7D0000BD
7D0000BD
7D0000BD
7D0000BD
7D0000BD
7D0000BD
7D0000BD
7D0000BD
7D0000BD
7D0000BD
7D0000BD
7D0000BD
7D0000BD
7D0000BD
7D0000BD
7D0000BD
ENDCHAR
STARTCHAR uni0420
ENCODING 1056
SWIDTH 554 0
DWIDTH 18 0
BBX 15 23 2 0
BITMAP
BFFFE400
BFFFFF40
BE55BFC0
BD000BE0
BD0003F0
BD0002F4
BD0001F4
BD0001F4
BD0001F4
BD0002F4
BD0007F0
BD001FD0
BFFFFF80
BFFFFE00
BE555000
BD000000
BD000000
BD000000
BD000000
BD000000
BD000000
BD000000
BD000000
ENDCHAR
STARTCHAR uni0421
ENCODING 1057
SWIDTH 566 0
DWIDTH 18 0
BBX 15 23 2 0
BITMAP
006FE800
02FFFF40
0FF9AFC0
2F800BE0
3F0003F0
BD0002F4
BC0001F8
FC0000A4
FC000000
FC000000
F8000000
F8000000
F8000000
F8000000
FC000000
FC0000A4
BC0001F8
BD0002F4
3F0002F0
2F8007E0
0FF9AFC0
02FFFF40
006FE400
ENDCHAR
STARTCHAR uni0422
ENCODING 1058
SWIDTH 520 0
DWIDTH 17 0
BBX 15 23 1 0
BITMAP
FFFFFFF8
FFFFFFF8
556FD554
000F8000
000F8000
000F8000
000F8000
000F8000
000F8000
000F8000
000F8000
000F8000
000F8000
000F8000
000F8000
000F8000
000F8000
000F8000
000F8000
000F8000
000F8000
000F8000
000F8000
ENDCHAR
STARTCHAR uni0423
ENCODING 1059
SWIDTH 547 0
DWIDTH 18 0
BBX 16 23 1 0
BITMAP
7E0000FD
3F0001FC
2F4002F8
1FC003F4
0FD007F0
0BE00BD0
03F00FC0
02F41F80
01F82F40
00FC3F00
00BD7E00
007EBD00
003FFC00
002FF800
001FF400
000BF000
0007E000
000BD000
000FC000
001F8000
01BF0000
03FD0000
03E40000
ENDCHAR
STARTCHAR uni0424
ENCODING 1060
SWIDTH 676 0
DWIDTH 22 0
BBX 20 25 1 -1
BITMAP
00007D0000
00007D0000
00007D0000
001BFFE400
01FFFFFE00
07F9BE6FC0
0FD07D07E0
1F407D02F4
3F007D00F8
7E007D00BC
7D007D00BD
7D007D007D
BD007D007D
7D007D007D
7D007D00BD
7E007D00BC
3F007D00F8
1F407D02F4
0FD07D07E0
07F9BE6F80
01FFFFFE00
001BFFE400
00007D0000
00007D0000
00007D0000
ENDCHAR
STARTCHAR uni0425
ENCODING 1061
SWIDTH 550 0
DWIDTH 18 0
BBX 16 23 1 0
BITMAP
BE0000FD
3F4002F8
2F8003F4
0FD00BE0
07E00FC0
03F42F80
01F83F00
00FDBE00
007EFC00
003FF800
001FF000
000FE000
001FF000
003FF800
007EFD00
00FC7E00
02F83F40
03F01F80
0BE00FD0
0FD007E0
2F8003F4
3F4002F8
BE0000FD
ENDCHAR
STARTCHAR uni0426
ENCODING 1062
SWIDTH 639 0
DWIDTH 20 0
BBX 18 28 2 -5
BITMAP
7D0000BD00
7D0000BD00
7D0000BD00
7D0000BD00
7D0000BD00
7D0000BD00
7D0000BD00
7D0000BD00
7D0000BD00
7D0000BD00
7D0000BD00
7D0000BD00
7D0000BD00
7D0000BD00
7D0000BD00
7D0000BD00
7D0000BD00
7D0000BD00
7D0000BD00
7D0000BD00
7E5555BE80
7FFFFFFFD0
7FFFFFFFD0
0000000BC0
0000000BC0
0000000BC0
0000000BC0
0000000BC0
ENDCHAR
STARTCHAR uni0427
ENCODING 1063
SWIDTH 600 0
DWIDTH 19 0
BBX 15 23 2 0
BITMAP
BC0001F8
BC0001F8
BC0001F8
BC0001F8
BC0001F8
BC0001F8
BC0001F8
BC0001F8
BC0001F8
BD0001F8
7E0001F8
3F801AF8
1FFFFFF8
07FFFEF8
005551F8
000001F8
000001F8
000001F8
000001F8
000001F8
000001F8
000001F8
000001F8
ENDCHAR
STARTCHAR uni0428
ENCODING 1064
SWIDTH 814 0
DWIDTH 26 0
BBX 22 23 2 0
BITMAP
7D001F4007D0
7D001F4007D0
7D001F4007D0
7D001F4007D0
7D001F4007D0
7D001F4007D0
7D001F4007D0
7D001F4007D0
7D001F4007D0
7D001F4007D0
7D001F4007D0
7D001F4007D0
7D001F4007D0
7D001F4007D0
7D001F4007D0
7D001F4007D0
7D001F4007D0
7D001F4007D0
7D001F4007D0
7D001F4007D0
7E556F955BD0
7FFFFFFFFFD0
7FFFFFFFFFD0
ENDCHAR
STARTCHAR uni0429
ENCODING 1065
SWIDTH 841 0
DWIDTH 27 0
BBX 24 28 2 -5
BITMAP
7D001F4007D0
7D001F4007D0
7D001F4007D0
7D001F4007D0
7D001F4007D0
7D001F4007D0
7D001F4007D0
7D001F4007D0
7D001F4007D0
7D001F4007D0
7D001F4007D0
7D001F4007D0
7D001F4007D0
7D001F4007D0
7D001F4007D0
7D001F4007D0
7D001F4007D0
7D001F4007D0
7D001F4007D0
7D001F4007D0
7E556F955BE4
7FFFFFFFFFFD
7FFFFFFFFFFD
00000000007D
00000000007D
00000000007D
00000000007D
00000000007D
ENDCHAR
STARTCHAR uni042A
ENCODING 1066
SWIDTH 651 0
DWIDTH 21 0
BBX 20 23 0 0
BITMAP
7FFF800000
7FFF800000
156F800000
001F800000
001F800000
001F800000
001F800000
001F800000
001F800000
001FFFFE40
001FFFFFD0
001F956BF4
001F8001FC
001F8000BD
001F80007E
001F80007E
001F80007E
001F80007D
001F8000BD
001F8001FC
001F955BF4
001FFFFFD0
001FFFFE00
ENDCHAR
STARTCHAR uni042B
ENCODING 1067
SWIDTH 755 0
DWIDTH 24 0
BBX 20 23 2 0
BITMAP
7D0000007D
7D0000007D
7D0000007D
7D0000007D
7D0000007D
7D0000007D
7D0000007D
7D0000007D
7D0000007D
7FFFF8007D
7FFFFF407D
7E55AFD07D
7D0007F07D
7D0002F47D
7D0001F47D
7D0001F87D
7D0001F87D
7D0001F47D
7D0003F47D
7D0007F07D
7E55AFD07D
7FFFFF407D
7FFFF8007D
ENDCHAR
STARTCHAR uni042C
ENCODING 1068
SWIDTH 551 0
DWIDTH 18 0
BBX 15 23 2 0
BITMAP
BD000000
BD000000
BD000000
BD000000
BD000000
BD000000
BD000000
BD000000
BD000000
BFFFE800
BFFFFF40
BE55BFC0
BD000BE0
BD0003F0
BD0002F4
BD0002F4
BD0002F4
BD0002F4
BD0003F0
BD000BE0
BE55BFC0
BFFFFF40
BFFFE400
ENDCHAR
STARTCHAR uni042D
ENCODING 1069
SWIDTH 589 0
DWIDTH 19 0
BBX 16 23 2 0
BITMAP
006FE400
07FFFE00
0FFABF80
2F800BD0
3F0003F0
7E0001F4
BD0000F8
680000FC
000000BC
000000BC
003FFFFC
003FFFFD
001555FC
000000BC
000000BC
540000FC
BD0001F8
7E0002F4
3F0003F0
2F800BE0
0FF9BF80
03FFFE00
006FE400
ENDCHAR
STARTCHAR uni042E
ENCODING 1070
SWIDTH 765 0
DWIDTH 25 0
BBX 22 23 2 0
BITMAP
7D0006FE4000
7D002FFFF400
7D00FFABFD00
7D02F800BF00
7D03F0002F40
7D07D0000F80
7D0BD0000FC0
7D0FC0000BD0
7D0FC0000BD0
7D0FC0000BD0
7FFFC0000BD0
7FFFC0000BD0
7E5FC0000BD0
7D0FC0000BD0
7D0FC0000BD0
7D0BC0000BD0
7D0BD0000FC0
7D07D0000F80
7D03F0002F40
7D01F8007F00
7D00BFABFD00
7D002FFFF400
7D0006FE8000
ENDCHAR
STARTCHAR uni042F
ENCODING 1071
SWIDTH 562 0
DWIDTH 18 0
BBX 15 23 1 0
BITMAP
006FFFF4
02FFFFF4
07FA56F4
0FD002F4
1F8002F4
2F4002F4
2F0002F4
2F0002F4
2F4002F4
1F4002F4
0FC002F4
07F402F4
02FFFFF4
007FFFF4
00BE56F4
00FC02F4
01F402F4
03F002F4
07E002F4
0FC002F4
1F8002F4
2F4002F4
7E0002F4
ENDCHAR
STARTCHAR uni0430
ENCODING 1072
SWIDTH 479 0
DWIDTH 15 0
BBX 13 17 1 0
BITMAP
00BF9000
07FFF800
0FE5FE00
2F403F00
3F002F00
00002F00
00002F00
00AFFF00
07FFFF00
1FE42F00
3F002F00
3E002F00
7E002F00
3F007F00
2FEAFF40
1FFFAF40
02FE1F80
ENDCHAR
STARTCHAR uni0431
ENCODING 1073
SWIDTH 484 0
DWIDTH 16 0
BBX 14 24 1 0
BITMAP
00000F40
00002F40
0006FE00
007FF800
02FF9000
07E40000
0F800000
1F000000
2D2FE000
3DFFFD00
3FE5BF00
7F802F80
7F000FC0
7E000BC0
7D000BD0
7D0007D0
7D0007D0
7D000BD0
3E000BC0
3F000F80
1F802F40
0BE5BE00
03FFF800
006F9000
ENDCHAR
STARTCHAR uni0432
ENCODING 1074
SWIDTH 503 0
DWIDTH 16 0
BBX 13 17 2 0
BITMAP
BFFF9000
BFFFF800
BD56FD00
BC007E00
BC003F00
BC003E00
BC01BD00
BFFFF400
BFFFF800
BD55BE00
BC002F00
BC001F40
BC001F40
BC002F40
BD55BF00
BFFFFD00
BFFFE000
ENDCHAR
STARTCHAR uni0433
ENCODING 1075
SWIDTH 371 0
DWIDTH 12 0
BBX 10 17 2 0
BITMAP
BFFFD0
BFFFD0
BD5540
BC0000
BC0000
BC0000
BC0000
BC0000
BC0000
BC0000
BC0000
BC0000
BC0000
BC0000
BC0000
BC0000
BC0000
ENDCHAR
STARTCHAR uni0434
ENCODING 1076
SWIDTH 536 0
DWIDTH 17 0
BBX 15 22 1 -5
BITMAP
01FFFFC0
01FFFFC0
01FAAFC0
01F40BC0
02F40BC0
02F40BC0
02F40BC0
02F00BC0
02F00BC0
02F00BC0
03E00BC0
07D00BC0
0BC00BC0
1F800BC0
7F955BD4
FFFFFFFC
FFFFFFFC
F80000BC
F80000BC
F80000BC
F80000BC
F80000BC
ENDCHAR
STARTCHAR uni0435
ENCODING 1077
SWIDTH 468 0
DWIDTH 15 0
BBX 13 17 1 0
BITMAP
00BF9000
07FFF800
0FE6FE00
2F402F00
3E001F40
7D000F80
7D000F80
7FFFFF80
7FFFFF80
7E555540
7D000000
7D000000
3E000000
2F400A00
1FE5BF40
07FFFE00
00BFE400
ENDCHAR
STARTCHAR uni0436
ENCODING 1078
SWIDTH 662 0
DWIDTH 21 0
BBX 20 17 1 0
BITMAP
BE00BC01FC
7F00BC03F4
2F80BC07E0
0FC0BC0FD0
0BD0BC1F80
03F0BC2F00
01F4BC7E00
00FFFFFC00
00BFFFFC00
01FAFEBD00
03F0BC3F00
07E0BC2F80
0FD0BC0FC0
2F80BC0BE0
3F40BC03F4
BE00BC02F8
FD00BC01FD
ENDCHAR
STARTCHAR uni0437
ENCODING 1079
SWIDTH 446 0
DWIDTH 14 0
BBX 12 17 1 0
BITMAP
01BF80
0BFFF4
2FD6FC
3E00BD
7D007D
00007D
0001FC
01FFF4
01FFE0
0056FC
00007D
00003E
BD003E
7E00BD
3F96FC
0FFFF4
01BF80
ENDCHAR
STARTCHAR uni0438
ENCODING 1080
SWIDTH 509 0
DWIDTH 16 0
BBX 12 17 2 0
BITMAP
BC003F
BC00BF
BC00FF
BC02FF
BC03FF
BC0BAF
BC0F6F
BC2E2F
BC3D2F
BC782F
BCF42F
BEE02F
BFD02F
BF802F
BF402F
BE002F
BD002F
ENDCHAR
STARTCHAR uni0439
ENCODING 1081
SWIDTH 509 0
DWIDTH 16 0
BBX 12 23 2 0
BITMAP
1E00B8
1F41F8
0BFFF0
01BF80
000000
000000
BC003F
BC00BF
BC00FF
BC02FF
BC03FF
BC0BAF
BC0F6F
BC2E2F
BC3D2F
BC782F
BCF42F
BEE02F
BFD02F
BF802F
BF402F
BE002F
BD002F
ENDCHAR
STARTCHAR uni043A
ENCODING 1082
SWIDTH 479 0
DWIDTH 15 0
BBX 13 17 2 0
BITMAP
BC007F00
BC00FD00
BC02F800
BC07F000
BC0FD000
BC2F4000
BC7E0000
BFFC0000
BFFC0000
BEBE0000
BC2F4000
BC0FC000
BC0BE000
BC03F400
BC01FC00
BC00BE00
BC003F40
ENDCHAR
STARTCHAR uni043B
ENCODING 1083
SWIDTH 509 0
DWIDTH 16 0
BBX 13 17 1 0
BITMAP
03FFFFC0
03FFFFC0
03F55FC0
03E00BC0
03E00BC0
03E00BC0
03E00BC0
03E00BC0
07D00BC0
07D00BC0
07D00BC0
07D00BC0
0BC00BC0
0F800BC0
BF400BC0
FE000BC0
F8000BC0
ENDCHAR
STARTCHAR uni043C
ENCODING 1084
SWIDTH 645 0
DWIDTH 21 0
BBX 17 17 2 0
BITMAP
BF00007F40
BF4000BF40
BF8000FF40
BFC001FF40
BFD002FF40
BEE003FF40
BDF007EF40
BCF40B9F40
BCB80F5F40
BC7C1F1F40
BC3D2E1F40
BC2E3D1F40
BC1FBC1F40
BC0FF81F40
BC07F41F40
BC03F01F40
BC02D01F40
ENDCHAR
STARTCHAR uni043D
ENCODING 1085
SWIDTH 508 0
DWIDTH 16 0
BBX 12 17 2 0
BITMAP
BC002F
BC002F
BC002F
BC002F
BC002F
BC002F
BC002F
BFFFFF
BFFFFF
BD557F
BC002F
BC002F
BC002F
BC002F
BC002F
BC002F
BC002F
ENDCHAR
STARTCHAR uni043E
ENCODING 1086
SWIDTH 501 0
DWIDTH 16 0
BBX 14 17 1 0
BITMAP
00AFA000
07FFFD00
0FE5BF00
2F802F80
3F000FC0
7E0007D0
7D0007D0
7D0007E0
BD0007E0
BD0007E0
7D0007D0
7E0007D0
3F000BC0
2F801F80
0FE5BF00
07FFFD00
00AFE000
ENDCHAR
STARTCHAR uni043F
ENCODING 1087
SWIDTH 509 0
DWIDTH 16 0
BBX 12 17 2 0
BITMAP
BFFFFF
BFFFFF
BD557F
BC002F
BC002F
BC002F
BC002F
BC002F
BC002F
BC002F
BC002F
BC002F
BC002F
BC002F
BC002F
BC002F
BC002F
ENDCHAR
STARTCHAR uni0440
ENCODING 1088
SWIDTH 493 0
DWIDTH 16 0
BBX 13 24 2 -7
BITMAP
F87F9000
FAFFF400
FFAAFD00
FD00BE00
FC003F00
F8002F00
F8002F40
F8001F40
F8001F40
F8001F40
F8002F40
F8002F00
FC003F00
FD00BE00
FF96FD00
FEFFF400
F8BF9000
F8000000
F8000000
F8000000
F8000000
F8000000
F8000000
F8000000
ENDCHAR
STARTCHAR uni0441
ENCODING 1089
SWIDTH 461 0
DWIDTH 15 0
BBX 13 17 1 0
BITMAP
01BF9000
07FFF800
1FE5BE00
2F402F00
3E001F40
7D000F80
7D000000
7D000000
BD000000
7D000000
7D000000
7D000A40
3E001F40
2F402F40
1FE5BE00
07FFF800
01BF9000
ENDCHAR
STARTCHAR uni0442
ENCODING 1090
SWIDTH 424 0
DWIDTH 14 0
BBX 12 17 1 0
BITMAP
FFFFFE
FFFFFE
55BD55
00BC00
00BC00
00BC00
00BC00
00BC00
00BC00
00BC00
00BC00
00BC00
00BC00
00BC00
00BC00
00BC00
00BC00
ENDCHAR
STARTCHAR uni0443
ENCODING 1091
SWIDTH 416 0
DWIDTH 13 0
BBX 13 24 0 -7
BITMAP
7E001F80
3F002F40
2F403F00
1F403E00
0F807D00
0FC0BC00
0BD0FC00
07D0F800
03E1F400
02F2F000
01F7E000
00FBD000
00BFC000
00BFC000
007F8000
003F4000
002F0000
002E0000
003D0000
007D0000
00B80000
1BF40000
2FE00000
2F800000
ENDCHAR
STARTCHAR uni0444
ENCODING 1092
SWIDTH 628 0
DWIDTH 20 0
BBX 18 31 1 -7
BITMAP
0001F40000
0001F40000
0001F40000
0001F40000
0001F40000
0001F40000
0001F40000
01BFFBE400
07FFFFFE00
0FE6F9BF40
2F41F41F80
3F01F40FC0
3E01F40BD0
7D01F407D0
7D01F407D0
7D01F407E0
7D01F407E0
7D01F407D0
7E01F407D0
3E01F40BC0
2F41F41FC0
1FE6F9BF40
0BFFFFFE00
01BFFBF400
0001F40000
0001F40000
0001F40000
0001F40000
0001F40000
0001F40000
0001F40000
ENDCHAR
STARTCHAR uni0445
ENCODING 1093
SWIDTH 438 0
DWIDTH 14 0
BBX 12 17 1 0
BITMAP
BD007E
7E00FD
2F41F8
1F82F0
0BD7E0
03EBC0
02FF40
00FF00
00BE00
00FF00
02FF80
07EBC0
0BC3E0
1F82F4
2F41F8
7E00BD
FD007F
ENDCHAR
STARTCHAR uni0446
ENCODING 1094
SWIDTH 524 0
DWIDTH 17 0
BBX 14 22 2 -5
BITMAP
BC002F00
BC002F00
BC002F00
BC002F00
BC002F00
BC002F00
BC002F00
BC002F00
BC002F00
BC002F00
BC002F00
BC002F00
BC002F00
BC002F00
BD557F50
BFFFFFE0
BFFFFFE0
000003E0
000003E0
000003E0
000003E0
000003D0
ENDCHAR
STARTCHAR uni0447
ENCODING 1095
SWIDTH 479 0
DWIDTH 15 0
BBX 12 17 1 0
BITMAP
7D002F
7D002F
7D002F
7D002F
7D002F
7D002F
7E002F
3F002F
2F807F
0FFFFF
06FFFF
00152F
00002F
00002F
00002F
00002F
00002F
ENDCHAR
STARTCHAR uni0448
ENCODING 1096
SWIDTH 703 0
DWIDTH 23 0
BBX 18 17 2 0
BITMAP
BC00F802F0
BC00F802F0
BC00F802F0
BC00F802F0
BC00F802F0
BC00F802F0
BC00F802F0
BC00F802F0
BC00F802F0
BC00F802F0
BC00F802F0
BC00F802F0
BC00F802F0
BC00F802F0
BD55F956F0
BFFFFFFFF0
BFFFFFFFF0
ENDCHAR
STARTCHAR uni0449
ENCODING 1097
SWIDTH 722 0
DWIDTH 23 0
BBX 20 22 2 -5
BITMAP
FC01F402F0
FC01F402F0
FC01F402F0
FC01F402F0
FC01F402F0
FC01F402F0
FC01F402F0
FC01F402F0
FC01F402F0
FC01F402F0
FC01F402F0
FC01F402F0
FC01F402F0
FC01F402F0
FD56F957F5
FFFFFFFFFF
FFFFFFFFFF
000000002F
000000002F
000000002F
000000002F
000000002E
ENDCHAR
STARTCHAR uni044A
ENCODING 1098
SWIDTH 538 0
DWIDTH 17 0
BBX 17 17 0 0
BITMAP
7FFE000000
7FFE000000
15BE000000
007E000000
007E000000
007E000000
007FFF9000
007FFFF800
007E55FE00
007E003F00
007E002F40
007E002F40
007E002F40
007E003F00
007E55FE00
007FFFF800
007FFF9000
ENDCHAR
STARTCHAR uni044B
ENCODING 1099
SWIDTH 679 0
DWIDTH 22 0
BBX 17 17 2 0
BITMAP
BC00000BC0
BC00000BC0
BC00000BC0
BC00000BC0
BC00000BC0
BC00000BC0
BFFF900BC0
BFFFF40BC0
BD56FC0BC0
BC00BE0BC0
BC003E0BC0
BC003E0BC0
BC003E0BC0
BC007E0BC0
BD56FC0BC0
BFFFF40BC0
BFFF900BC0
ENDCHAR
STARTCHAR uni044C
ENCODING 1100
SWIDTH 478 0
DWIDTH 15 0
BBX 12 17 2 0
BITMAP
BC0000
BC0000
BC0000
BC0000
BC0000
BC0000
BFFF90
BFFFF4
BD56FC
BC00BE
BC003E
BC003E
BC003E
BC007E
BD56FC
BFFFF4
BFFF90
ENDCHAR
STARTCHAR uni044D
ENCODING 1101
SWIDTH 472 0
DWIDTH 15 0
BBX 13 17 1 0
BITMAP
01BE4000
0BFFE000
1FE6F800
3F00BD00
7D003E00
14002F00
00002F40
007FFF40
007FFF40
00156F40
00002F40
7D002F00
7D003E00
3F00BD00
1FD6F800
0BFFE000
01BE4000
ENDCHAR
STARTCHAR uni044E
ENCODING 1102
SWIDTH 706 0
DWIDTH 23 0
BBX 20 17 2 0
BITMAP
BC000BF900
BC007FFF80
BC01FE6FE0
BC02F403F0
BC07E001F8
BC0BD000FC
BC0BC000BC
BFFFC000BD
BFFFC000BD
BD5FC000BC
BC0BC000BC
BC07D000FC
BC03E001F8
BC02F403F0
BC00FE5FE0
BC007FFF80
BC000BF900
ENDCHAR
STARTCHAR uni044F
ENCODING 1103
SWIDTH 482 0
DWIDTH 15 0
BBX 12 17 1 0
BITMAP
01BFFF
0FFFFF
2F956F
7E002F
7D002F
7D002F
7E002F
3F402F
1FFFFF
07FFFF
03F56F
07D02F
0FC02F
2F402F
3F002F
BD002F
FC002F
ENDCHAR
STARTCHAR uni0450
ENCODING 1104
SWIDTH 468 0
DWIDTH 15 0
BBX 13 24 1 0
BITMAP
0BE00000
03F40000
01FC0000
007E0000
002E0000
00000000
00000000
00BF9000
07FFF800
0FE6FE00
2F402F00
3E001F40
7D000F80
7D000F80
7FFFFF80
7FFFFF80
7E555540
7D000000
7D000000
3E000000
2F400A00
1FE5BF40
07FFFE00
00BFE400
ENDCHAR
STARTCHAR uni0451
ENCODING 1105
SWIDTH 468 0
DWIDTH 15 0
BBX 13 23 1 0
BITMAP
01000400
0F807E00
1FC0BE00
0B807D00
00000000
00000000
00BF9000
07FFF800
0FE6FE00
2F402F00
3E001F40
7D000F80
7D000F80
7FFFFF80
7FFFFF80
7E555540
7D000000
7D000000
3E000000
2F400A00
1FE5BF40
07FFFE00
00BFE400
ENDCHAR
STARTCHAR uni0452
ENCODING 1106
SWIDTH 482 0
DWIDTH 15 0
BBX 14 31 0 -7
BITMAP
0F800000
0F800000
0F800000
FFFF4000
FFFF4000
5FD54000
0F800000
0F86F900
0FEFFF40
0FFEBF80
0FE00FC0
0FC00BD0
0F8007D0
0F8007D0
0F8007D0
0F8007D0
0F8007D0
0F8007D0
0F8007D0
0F8007D0
0F8007D0
0F8007D0
0F8007D0
0F8007D0
000007D0
000007D0
000007D0
00000BD0
00006FC0
0001FF40
0001F900
ENDCHAR
STARTCHAR uni0453
ENCODING 1107
SWIDTH 371 0
DWIDTH 12 0
BBX 10 24 2 0
BITMAP
003F40
00BE00
01F800
03F000
06D000
000000
000000
BFFFD0
BFFFD0
BD5540
BC0000
BC0000
BC0000
BC0000
BC0000
BC0000
BC0000
BC0000
BC0000
BC0000
BC0000
BC0000
BC0000
BC0000
ENDCHAR
STARTCHAR uni0454
ENCODING 1108
SWIDTH 472 0
DWIDTH 15 0
BBX 13 17 1 0
BITMAP
006F9000
02FFF800
0BE5BE00
1F802F40
2F001F80
3E000F80
7D000000
7FFF4000
7FFF4000
7E550000
7E000000
3E000540
2F000F80
1F802F40
0BE5BE00
03FFF800
006F9000
ENDCHAR
STARTCHAR uni0455
ENCODING 1109
SWIDTH 455 0
DWIDTH 15 0
BBX 12 17 1 0
BITMAP
01BF90
0BFFF4
1FE6FD
2F007E
3F003E
3F0000
2FD000
0BFE00
01FFE0
001BFC
0001FE
14003F
7D002F
3F003F
2FE6FD
0BFFF8
01BF90
ENDCHAR
STARTCHAR uni0456
ENCODING 1110
SWIDTH 229 0
DWIDTH 7 0
BBX 4 24 2 0
BITMAP
10
BC
FD
78
00
00
00
BC
BC
BC
BC
BC
BC
BC
BC
BC
BC
BC
BC
BC
BC
BC
BC
BC
ENDCHAR
STARTCHAR uni0457
ENCODING 1111
SWIDTH 234 0
DWIDTH 8 0
BBX 11 23 -2 0
BITMAP
040010
3F01F8
7F02F8
2E01F4
000000
000000
00BC00
00BC00
00BC00
00BC00
00BC00
00BC00
00BC00
00BC00
00BC00
00BC00
00BC00
00BC00
00BC00
00BC00
00BC00
00BC00
00BC00
ENDCHAR
STARTCHAR uni0458
ENCODING 1112
SWIDTH 223 0
DWIDTH 7 0
BBX 6 31 -1 -7
BITMAP
0040
03E0
03F0
02E0
0000
0000
0000
03F0
03F0
03F0
03F0
03F0
03F0
03F0
03F0
03F0
03F0
03F0
03F0
03F0
03F0
03F0
03F0
03F0
03F0
03F0
03F0
03E0
6BE0
7FC0
7E40
ENDCHAR
STARTCHAR uni0459
ENCODING 1113
SWIDTH 729 0
DWIDTH 23 0
BBX 22 17 1 0
BITMAP
03FFFF400000
03FFFF400000
03E56F400000
03E01F400000
03E01F400000
03E01F400000
03E01FFFE400
07D01FFFFE00
07D01F957F40
07D01F400FC0
07D01F400BC0
0BC01F400BD0
0BC01F400BC0
1F801F400FC0
BF401F957F40
FE001FFFFE00
F8001FFFE400
ENDCHAR
STARTCHAR uni045A
ENCODING 1114
SWIDTH 743 0
DWIDTH 24 0
BBX 21 17 2 0
BITMAP
BC002F000000
BC002F000000
BC002F000000
BC002F000000
BC002F000000
BC002F000000
BFFFFFFFA000
BFFFFFFFFD00
BD557F55BF00
BC002F002F40
BC002F001F80
BC002F000F80
BC002F001F80
BC002F002F40
BC002F55BF00
BC002FFFFD00
BC002FFFE000
ENDCHAR
STARTCHAR uni045B
ENCODING 1115
SWIDTH 499 0
DWIDTH 16 0
BBX 14 24 0 0
BITMAP
0F800000
0F800000
0F800000
BFFF8000
BFFF8000
5FD54000
0F800000
0F86F900
0FEFFF40
0FFEBF80
0FE00FC0
0FC00BD0
0F8007D0
0F8007D0
0F8007D0
0F8007D0
0F8007D0
0F8007D0
0F8007D0
0F8007D0
0F8007D0
0F8007D0
0F8007D0
0F8007D0
ENDCHAR
STARTCHAR uni045C
ENCODING 1116
SWIDTH 479 0
DWIDTH 15 0
BBX 13 24 2 0
BITMAP
000BF000
001FC000
002F4000
00BD0000
00B80000
00000000
00000000
BC007F00
BC00FD00
BC02F800
BC07F000
BC0FD000
BC2F4000
BC7E0000
BFFC0000
BFFC0000
BEBE0000
BC2F4000
BC0FC000
BC0BE000
BC03F400
BC01FC00
BC00BE00
BC003F40
ENDCHAR
STARTCHAR uni045D
ENCODING 1117
SWIDTH 509 0
DWIDTH 16 0
BBX 12 24 2 0
BITMAP
1FC000
0BE000
02F400
00FC00
003900
000000
000000
BC003F
BC00BF
BC00FF
BC02FF
BC03FF
BC0BAF
BC0F6F
BC2E2F
BC3D2F
BC782F
BCF42F
BEE02F
BFD02F
BF802F
BF402F
BE002F
BD002F
ENDCHAR
STARTCHAR uni045E
ENCODING 1118
SWIDTH 416 0
DWIDTH 13 0
BBX 13 30 0 -7
BITMAP
0B802E00
07D07D00
02FFF800
006F9000
00000000
00000000
7E001F80
3F002F40
2F403F00
1F403E00
0F807D00
0FC0BC00
0BD0FC00
07D0F800
03E1F400
02F2F000
01F7E000
00FBD000
00BFC000
00BFC000
007F8000
003F4000
002F0000
002E0000
003D0000
007D0000
00B80000
1BF40000
2FE00000
2F800000
ENDCHAR
STARTCHAR uni045F
ENCODING 1119
SWIDTH 509 0
DWIDTH 16 0
BBX 12 23 2 -6
BITMAP
BC002F
BC002F
BC002F
BC002F
BC002F
BC002F
BC002F
BC002F
BC002F
BC002F
BC002F
BC002F
BC002F
BC002F
BD557F
BFFFFF
BFFFFF
007E00
007E00
007E00
007E00
007E00
007E00
ENDCHAR
STARTCHAR uni0460
ENCODING 1120
SWIDTH 754 0
DWIDTH 24 0
BBX 20 23 2 0
BITMAP
BD007E002F
BD007E002F
BD007E002F
BD007E002F
BD007E002F
BD007E002F
BD007E002F
BD007E002F
BD007E002F
BD007E002F
BD007E002F
BD007E002F
BD007E002F
BD007E002F
BD007E002F
BD007E002F
BD007E003F
BD007E003F
BD00BF003E
7F01FF40BE
2FDBFBE6FC
0FFFD3FFF4
02FE40BF90
ENDCHAR
STARTCHAR uni0461
ENCODING 1121
SWIDTH 650 0
DWIDTH 21 0
BBX 17 17 2 0
BITMAP
F803F00BC0
F803F00BC0
F803F00BC0
F803F00BC0
F803F00BC0
F803F00BC0
F803F00BC0
F803F00BC0
F803F00BC0
F803F00BC0
F803F00BC0
F803F00BC0
F803F00BC0
FC07F41F80
7E6FFE7F40
2FFF7FFE00
0BF80BE400
ENDCHAR
STARTCHAR uni0462
ENCODING 1122
SWIDTH 551 0
DWIDTH 18 0
BBX 18 23 -1 0
BITMAP
02F4000000
02F4000000
02F4000000
7FFFC00000
7FFFC00000
56F9400000
02F4000000
02F4000000
02F4000000
02FFFFA000
02FFFFFD00
02F956FF00
02F4002F80
02F4000FC0
02F4000BD0
02F4000BD0
02F4000BD0
02F4000BD0
02F4000FC0
02F4002F80
02F956FF00
02FFFFFD00
02FFFF9000
ENDCHAR
STARTCHAR uni0463
ENCODING 1123
SWIDTH 477 0
DWIDTH 15 0
BBX 15 24 -1 0
BITMAP
02F00000
02F00000
02F00000
02F00000
02F00000
7FFFF400
7FFFF400
16F55000
02F00000
02F00000
02F00000
02F00000
02FFFE00
02FFFFD0
02F55BF0
02F002F4
02F001F8
02F000F8
02F000F8
02F000F8
02F002F4
02F55BF0
02FFFFD0
02FFFE00
ENDCHAR
STARTCHAR uni0464
ENCODING 1124
SWIDTH 772 0
DWIDTH 25 0
BBX 21 23 2 0
BITMAP
7D0006FE4000
7D002FFFF000
7D00BF9BFC00
7D02F800BE00
7D03F0003F00
7D07D0002F40
7D0BC0001F80
7D0FC0000A40
7D0F80000000
7D1F80000000
7FFFFFFE0000
7FFFFFFE0000
7E6F95550000
7D1F80000000
7D0F80000000
7D0FC0000540
7D0BC0001F80
7D0BD0002F40
7D03F0003F00
7D02F800BE00
7D00BF9BFC00
7D002FFFE000
7D0006FE4000
ENDCHAR
STARTCHAR uni0465
ENCODING 1125
SWIDTH 646 0
DWIDTH 21 0
BBX 18 17 2 0
BITMAP
BC006FE400
BC01FFFD00
BC07F9BF40
BC0FD01FC0
BC1F800BD0
BC2F4007D0
BC2F000000
BFFFFFE000
BFFFFFE000
BD6F555000
BC2F000000
BC1F400140
BC0F8007D0
BC0BD00FC0
BC07F9BF40
BC01FFFD00
BC002FE400
ENDCHAR
STARTCHAR uni0466
ENCODING 1126
SWIDTH 526 0
DWIDTH 17 0
BBX 16 23 1 0
BITMAP
0007D000
000BE000
000FF000
001FF400
002FF800
003EF800
007DBC00
00BC7D00
00BC3E00
00F82F00
01F41F40
02F00F80
03E00FC0
07FFFFC0
0BFFFFD0
0FEBEBE0
1F8BD2F0
2F4BD1F4
2F0BD1F8
3E0BD0FC
7D0BD0BD
BD0BD07D
FC0BD03E
ENDCHAR
STARTCHAR uni0467
ENCODING 1127
SWIDTH 470 0
DWIDTH 15 0
BBX 15 17 0 0
BITMAP
000F8000
001FC000
002FD000
003FE000
007EF000
00BDF400
00F8F800
01F4BC00
02F07D00
03E03E00
07FFFF00
0BFFFF40
0F9FDF80
1F4F8BC0
2F0F87E0
3E0F83F0
7D0F82F4
ENDCHAR
STARTCHAR uni0468
ENCODING 1128
SWIDTH 759 0
DWIDTH 24 0
BBX 22 23 2 0
BITMAP
7E0000BD0000
7E0000BE0000
7E0000FF0000
7E0001FF0000
7E0002FF4000
7E0003EF8000
7E0007DBC000
7E000BC7D000
7E000F83E000
7E001F42F000
7E002F41F400
7E003F01F400
7E007E00F800
7FFFFFFFFC00
7FFFFFFFFD00
7FAAFEFEBE00
7E01F4BC2F00
7E02F4BC2F40
7E03F0BC1F80
7E07E0BC0F80
7E0BD0BC0BC0
7E0BC0BC07D0
7E0FC0BC07E0
ENDCHAR
STARTCHAR uni0469
ENCODING 1129
SWIDTH 654 0
DWIDTH 21 0
BBX 18 17 2 0
BITMAP
7D000F8000
7D001FC000
7D002FD000
7D003FE000
7D007EF000
7D00BDF400
7D00F8F800
7D01F4BC00
7D02F07D00
7D03E03E00
7FFFFFFF00
7FFFFFFF40
7E6F9F9F80
7D1F4F8BC0
7D2F0F87D0
7D3E0F83E0
7DBD0F82F0
ENDCHAR
STARTCHAR uni046A
ENCODING 1130
SWIDTH 747 0
DWIDTH 24 0
BBX 20 23 2 0
BITMAP
0BFFFFFFF0
07FFFFFFD0
02F9556FC0
01FC002F40
00BD007E00
003F00BD00
002F41F800
000FC2F400
000BD7E000
0003FBD000
01BFFFFE40
0BFFFFFFE0
2FE5BE5BF8
7F007D00FC
BD007D007D
BC007D007E
BC007D003E
BC007D003E
BC007D003E
BC007D003E
BC007D003E
BC007D003E
BC007D003E
ENDCHAR
STARTCHAR uni046B
ENCODING 1131
SWIDTH 645 0
DWIDTH 21 0
BBX 17 17 2 0
BITMAP
0BFFFFF800
07FFFFF000
02F95BE000
01F80FD000
00FC1F8000
007E2F4000
003F3E0000
001FBD0000
02FFFF9000
1FFFFFF800
3F97F6FE00
7E03E03F00
BD03E02F40
BC03E01F40
BC03E01F40
BC03E01F40
BC03E01F40
ENDCHAR
STARTCHAR uni046C
ENCODING 1132
SWIDTH 980 0
DWIDTH 31 0
BBX 28 23 2 0
BITMAP
7D001FFFFFFFD0
7D000BFFFFFFC0
7D0007F9557F40
7D0002F4007E00
7D0001FC00FD00
7D0000BD01F800
7D00007F02F400
7D00002F47E000
7D00000FCBD000
7D00000BEF8000
7FFFFFFFFFFA00
7FFFFFFFFFFFD0
7E55BFAAFEABF0
7D00BD00FC02F8
7D00FC00FC00FC
7D01F800FC00BC
7D01F800FC00BD
7D01F800FC00BD
7D01F800FC00BD
7D01F800FC00BD
7D01F800FC00BD
7D01F800FC00BD
7D01F800FC00BD
ENDCHAR
STARTCHAR uni046D
ENCODING 1133
SWIDTH 856 0
DWIDTH 27 0
BBX 24 17 2 0
BITMAP
BC003FFFFFD0
BC002FFFFF80
BC000FD57F40
BC000BD03F00
BC0003E0BD00
BC0002F4FC00
BC0001F9F800
BC0000BEF000
BFFFFFFFFE40
BFFFFFFFFFE0
BD56FE6F9BF4
BC02F41F41F8
BC03F01F40FC
BC03E01F40BC
BC03E01F40BD
BC03E01F40BD
BC03E01F40BD
ENDCHAR
STARTCHAR uni046E
ENCODING 1134
SWIDTH 454 0
DWIDTH 15 0
BBX 12 37 1 -7
BITMAP
0B81F4
02E3D0
00BF40
003E00
000000
000000
000000
3FFA00
3FFFD0
155BF0
0002F8
0000FC
0000BC
0000BC
0000BC
0001F8
0007F0
07FF80
07FF80
016BF0
0001F8
0000BC
00007D
00007D
00007D
0000BD
0001FC
015BF4
1FFFD0
7FFE40
BD0000
BC0000
BC0000
7D0000
3F4000
1F8000
060000
ENDCHAR
STARTCHAR uni046F
ENCODING 1135
SWIDTH 423 0
DWIDTH 14 0
BBX 11 31 1 -7
BITMAP
1F03D0
0B8F40
02FE00
00B800
000000
000000
000000
3FFE00
3FFFD0
155BF0
0001F8
0000F8
0001F8
0007F0
07FFD0
07FF80
015BF4
0001F8
0000FC
0000FC
0001F8
015BF4
1FFFE0
7FFE40
BD0000
BC0000
BC0000
7D0000
3F4000
1F8000
060000
ENDCHAR
STARTCHAR uni0470
ENCODING 1136
SWIDTH 600 0
DWIDTH 19 0
BBX 17 23 1 0
BITMAP
BD03E01F80
BD03E01F80
BD03E01F80
BD03E01F80
BD03E01F80
BD03E01F80
BD03E01F80
BD03E01F80
BD03E01F80
BD03E01F80
BD03E01F40
7E03E02F40
3F03E03F00
2F83E0BD00
0FE7E6FC00
07FFFFF000
00BFFF8000
0017F40000
0003E00000
0003E00000
0003E00000
0003E00000
0003E00000
ENDCHAR
STARTCHAR uni0471
ENCODING 1137
SWIDTH 612 0
DWIDTH 20 0
BBX 18 24 1 -7
BITMAP
BD02F03F00
BD02F02F40
BD02F01F80
BD02F00FC0
BD02F00FC0
BD02F00BC0
BD02F00BD0
BD02F00BD0
BD02F00BD0
7D02F00BD0
7E02F00FC0
3F02F01F80
2F42F02F40
1FD2F0BF00
0BFBFBFD00
02FFFFF400
006FFE4000
0002F00000
0002F00000
0002F00000
0002F00000
0002F00000
0002F00000
0002F00000
ENDCHAR
STARTCHAR uni0472
ENCODING 1138
SWIDTH 593 0
DWIDTH 19 0
BBX 16 23 1 0
BITMAP
001BF900
00BFFF80
03FEAFE0
0BE007F4
0F8000FC
2F4000BD
2F00007E
3E00003E
7E00002F
7D00002F
7FFFFFFF
7FFFFFFF
7E55557F
7E00002F
7E00003F
3E00003F
2F00007E
2F4000BD
1FC001FC
0BE007F4
03FEAFE0
00BFFF80
001BF900
ENDCHAR
STARTCHAR uni0473
ENCODING 1139
SWIDTH 497 0
DWIDTH 16 0
BBX 14 17 1 0
BITMAP
006F9000
02FFF800
0BE5BE00
1F802F40
3F000FC0
3E000BD0
7D0007D0
7FFFFFE0
7FFFFFE0
7E555BD0
7D0007D0
3E000BD0
3F000FC0
1F802F40
0BE5BE00
02FFFC00
006F9000
ENDCHAR
STARTCHAR uni0474
ENCODING 1140
SWIDTH 553 0
DWIDTH 18 0
BBX 17 23 0 0
BITMAP
7E00000B80
3F00002F80
2F40003F80
1F8000BD00
0F8000FC00
0FC000F800
0BD001F400
07E002F000
03F003F000
02F003E000
01F407D000
00F80BC000
00BC0F8000
007C0F4000
007D1F0000
003E2F0000
002F3E0000
001F7D0000
000FBC0000
000BF80000
0007F40000
0003F40000
0003F00000
ENDCHAR
STARTCHAR uni0475
ENCODING 1141
SWIDTH 443 0
DWIDTH 14 0
BBX 13 17 1 0
BITMAP
FC000B80
BC003F80
7D007F40
3E00BC00
2F00F800
1F01F400
1F42F000
0F82E000
0BC3E000
07C7D000
03D7C000
02EB8000
01EF4000
00FF0000
00BE0000
00BD0000
007C0000
ENDCHAR
STARTCHAR uni0476
ENCODING 1142
SWIDTH 553 0
DWIDTH 18 0
BBX 17 29 0 0
BITMAP
0FD7E00000
03F6F40000
00FDB80000
0039390000
0000000000
0000000000
7E00000B80
3F00002F80
2F40003F80
1F8000BD00
0F8000FC00
0FC000F800
0BD001F400
07E002F000
03F003F000
02F003E000
01F407D000
00F80BC000
00BC0F8000
007C0F4000
007D1F0000
003E2F0000
002F3E0000
001F7D0000
000FBC0000
000BF80000
0007F40000
0003F40000
0003F00000
ENDCHAR
STARTCHAR uni0477
ENCODING 1143
SWIDTH 443 0
DWIDTH 14 0
BBX 14 23 0 0
BITMAP
7F2F4000
1F8F8000
07E7E000
01E5E000
00000000
00000000
3F0002E0
2F000FE0
1F401FD0
0F802F00
0BC03E00
07C07D00
07D0BC00
03E0B800
02F0F800
01F1F400
00F5F000
00BAE000
007BD000
003FC000
002F8000
002F4000
001F0000
ENDCHAR
STARTCHAR uni0478
ENCODING 1144
SWIDTH 1017 0
DWIDTH 33 0
BBX 30 30 2 -7
BITMAP
006FE40000000000
02FFFF4000000000
0FFABFD000000000
2F800BF000000000
3F0002F400000000
7D0001F800000000
BC0000FC0FC003E0
FC0000BC0BC007D0
FC0000BD0BD00BD0
F80000BD07E00FC0
F80000BD03F00F80
F80000BD02F01F40
F80000BD01F42F00
F80000BD00F83E00
FC0000BD00BC3E00
FC0000BC007C7D00
BC0000FC003DBC00
BD0001F8003EF800
3F0002F4002FF400
2F800BF0001FF000
0FFABFD0000FE000
02FFFF40000BE000
006FE4000007D000
000000000007C000
00000000000B8000
00000000000F4000
00000000002F0000
0000000006BE0000
0000000007FC0000
0000000007E00000
ENDCHAR
STARTCHAR uni0479
ENCODING 1145
SWIDTH 918 0
DWIDTH 29 0
BBX 28 24 1 -7
BITMAP
00AFA001F8007E
07FFFD00FC00BD
0FE5BF00BD00BC
2F802F807E00F8
3F000FC03E01F4
7E0007D02F02F4
7D0007D01F42F0
7D0007E01F83E0
BD0007E00F87D0
BD0007E00BCBC0
7D0007D007DB80
7E0007D003EF80
3F000BC002FF40
2F801F8001FF00
0FE5BF0000FE00
07FFFD0000FD00
00AFE00000BC00
0000000000B800
0000000000F800
0000000001F400
0000000002F000
000000006FD000
00000000BF8000
000000007E0000
ENDCHAR
STARTCHAR uni047A
ENCODING 1146
SWIDTH 593 0
DWIDTH 19 0
BBX 16 27 1 -2
BITMAP
0002E000
0003F000
001BF900
00FFFF80
03FFFFE0
0BE3F3F4
1FC040FC
2F4000BD
3F00007E
3E00003F
7E00003F
7D00002F
7D00002F
7D00002F
7D00002F
7D00002F
7E00003F
3E00003F
3F00007E
2F4000BD
1FC000FC
0BE3F2F4
03FFFFE0
00FFFF80
001FF900
0003F000
0003F000
ENDCHAR
STARTCHAR uni047B
ENCODING 1147
SWIDTH 498 0
DWIDTH 16 0
BBX 14 21 1 -2
BITMAP
001A4000
001F4000
00BFE000
03FFFD00
0FFFFF00
1F9F6F80
3F000FC0
7E000BD0
7D0007D0
7D0007D0
7D0007E0
7D0007D0
7D0007D0
3E000BD0
3F000FC0
1F9F6F80
0FFFFF00
03FFFD00
00BFE000
001F4000
001A4000
ENDCHAR
STARTCHAR uni047C
ENCODING 1148
SWIDTH 752 0
DWIDTH 24 0
BBX 20 30 2 0
BITMAP
0002F80000
000BFF9000
000F47FF00
000E006F00
00002E0000
00002E0000
00002E0000
02E07C0780
0FE02407F4
2FD00006FC
3F000000BD
7E0000007E
BD0000003E
BD0000003F
BD0000003F
BD0000003F
BD0014003F
BD007E003F
BD007E003F
BD007E003F
BD007E003F
BD007E003F
BD007E003F
BD007E003F
BD007E003E
7D00BF007E
3F01FF40BD
2FDBFFE6FC
0FFFD3FFF4
02FE40BF80
ENDCHAR
STARTCHAR uni047D
ENCODING 1149
SWIDTH 654 0
DWIDTH 21 0
BBX 17 24 2 0
BITMAP
000BE00000
003FFE4000
007C2FF800
007801B800
0000B80000
0000B80000
0000F40000
0781F0B400
2F8190BE00
7F40007F40
BC00000F80
F800000BC0
F800000BC0
F800000BC0
F801500BC0
F803F00BC0
F803F00BC0
F803F00BC0
F803F00BC0
F803F00BC0
BC07F40F80
7F6FFE7F40
2FFF7FFE00
07F80BF400
ENDCHAR
STARTCHAR uni047E
ENCODING 1150
SWIDTH 754 0
DWIDTH 24 0
BBX 20 29 2 0
BITMAP
002AAAA900
007FFFFE00
00003D0000
00003D0000
0000000000
0000000000
BD007E002F
BD007E002F
BD007E002F
BD007E002F
BD007E002F
BD007E002F
BD007E002F
BD007E002F
BD007E002F
BD007E002F
BD007E002F
BD007E002F
BD007E002F
BD007E002F
BD007E002F
BD007E002F
BD007E003F
BD007E003F
BD00BF003E
7F01FF40BE
2FDBFBE6FC
0FFFD3FFF4
02FE40BF90
ENDCHAR
STARTCHAR uni047F
ENCODING 1151
SWIDTH 650 0
DWIDTH 21 0
BBX 17 23 2 0
BITMAP
02AAAAA000
03FFFFF000
0002E00000
0002E00000
0000000000
0000000000
F803F00BC0
F803F00BC0
F803F00BC0
F803F00BC0
F803F00BC0
F803F00BC0
F803F00BC0
F803F00BC0
F803F00BC0
F803F00BC0
F803F00BC0
F803F00BC0
F803F00BC0
FC07F41F80
7E6FFE7F40
2FFF7FFE00
0BF80BE400
ENDCHAR
STARTCHAR uni0480
ENCODING 1152
SWIDTH 570 0
DWIDTH 18 0
BBX 16 29 1 -6
BITMAP
001BF900
00BFFF80
03FEAFE0
0BE007F4
1FC001F8
2F4000FC
3F0000BD
3F000069
3E000000
7E000000
7E000000
7E000000
7E000000
7E000000
3E000000
3E000000
3F000000
2F400000
1F800000
0BE00000
03F95000
01FFE000
002FE000
0003E000
0003E000
0003E000
0003E000
0003E000
0003E000
ENDCHAR
STARTCHAR uni0481
ENCODING 1153
SWIDTH 472 0
DWIDTH 15 0
BBX 13 23 1 -6
BITMAP
007F9000
02FFF800
0BE5FD00
1F803F00
2F002F40
3E001F40
7D000000
7D000000
7D000000
7D000000
7D000000
3E000000
3F000000
1F800000
0FE50000
07FF4000
00BF4000
001F4000
001F4000
001F4000
001F4000
001F4000
001F4000
ENDCHAR
STARTCHAR uni0482
ENCODING 1154
SWIDTH 547 0
DWIDTH 18 0
BBX 14 21 2 0
BITMAP
00000B80
00000F40
00402E00
01E03D00
01FDB800
007FF400
000BF400
0003FD00
0007EF80
000F47E0
501F0080
F83D0000
BF7C0000
1FF80000
02F80000
02FF4000
07DBE000
0B82E000
1F005000
2E000000
7D000000
ENDCHAR
STARTCHAR uni0483
ENCODING 1155
SWIDTH 0 0
DWIDTH 0 0
BBX 10 6 -12 19
BITMAP
000150
0003E0
AAABE0
FFFFE0
F40000
F40000
ENDCHAR
STARTCHAR uni0484
ENCODING 1156
SWIDTH 0 0
DWIDTH 0 0
BBX 11 4 -12 20
BITMAP
002F80
06FFF0
BFE0F4
B900B4
ENDCHAR
STARTCHAR uni0485
ENCODING 1157
SWIDTH 0 0
DWIDTH 0 0
BBX 4 5 -9 20
BITMAP
BC
7C
3D
1E
09
ENDCHAR
STARTCHAR uni0486
ENCODING 1158
SWIDTH 0 0
DWIDTH 0 0
BBX 4 5 -8 20
BITMAP
3E
3E
3D
78
60
ENDCHAR
STARTCHAR uni0488
ENCODING 1160
SWIDTH 0 0
DWIDTH 0 0
BBX 31 28 -24 -5
BITMAP
0000001F90000000
00000079B4000000
000000B038000000
0000000000000000
0000000000000000
007F40000006F400
01E6D000001E6E00
02C0E000002D0E00
0000000000000000
0000000000000000
0000000000000000
0000000000000000
1BE0000000001BD0
7DB80000000079B4
742C00000000B038
0000000000000000
0000000000000000
0000000000000000
0000000000000000
0000000000000000
0000000000000000
00BE40000007F400
02E6D000001E6D00
0381D000002C0E00
0000000000000000
0000001FD0000000
00000079B4000000
000000B038000000
ENDCHAR
STARTCHAR uni0489
ENCODING 1161
SWIDTH 0 0
DWIDTH 0 0
BBX 30 30 -24 -7
BITMAP
0000000280000000
0000000380000000
0000000740000000
0014000F40000000
002C001F00000000
001E001900006000
000B4000000BE400
0007C000007F8000
00034000002D0000
0000000000000000
0000000000000000
0000000000000000
0000000000000000
794000000000A400
7FF000000000BF40
06F0000000006BE0
0010000000000050
0000000000000000
0000000000000000
0000000000000000
0000000000000000
0002C000000D0000
001FE000002E0000
00BE4000000F4000
00A4000640078000
0000000B8002C000
0000000B40008000
0000000F00000000
0000001E00000000
0000001D00000000
ENDCHAR
STARTCHAR uni048A
ENCODING 1162
SWIDTH 666 0
DWIDTH 21 0
BBX 18 34 2 -6
BITMAP
00B403D000
00BC0BC000
007FFF4000
000BF90000
0000000000
7D0000FD00
7D0001FD00
7D0003FD00
7D0007FD00
7D000FFD00
7D001FFD00
7D003EBD00
7D007DBD00
7D00F8BD00
7D01F4BD00
7D03E0BD00
7D07D0BD00
7D0F80BD00
7D1F40BD00
7D3E00BD00
7D7D00BD00
7DF800BD00
7FF400BD00
7FE000BD00
7FD000BD00
7F8000BD50
7F4000BFF0
7E0000BFF0
00000002F0
00000003F0
00000003E0
0000000BD0
0000000F80
0000000600
ENDCHAR
STARTCHAR uni048B
ENCODING 1163
SWIDTH 550 0
DWIDTH 18 0
BBX 15 29 2 -6
BITMAP
0B802D00
0BD07D00
03FFF800
00BF9000
00000000
00000000
BC003F00
BC00BF00
BC00FF00
BC02FF00
BC03FF00
BC0BAF00
BC0F6F00
BC2E2F00
BC3D2F00
BC782F00
BCF42F00
BEE02F00
BFD02F00
BF802F00
BF402F54
BE002FFC
BD002FFC
000000FC
000000F8
000001F4
000002F0
000007D0
00000280
ENDCHAR
STARTCHAR uni048C
ENCODING 1164
SWIDTH 551 0
DWIDTH 18 0
BBX 18 23 -1 0
BITMAP
02F4000000
02F4000000
02F4000000
7FFFC00000
7FFFC00000
56F9400000
02F4000000
02F4000000
02F4000000
02FFFFA000
02FFFFFD00
02F956FF00
02F4002F80
02F4000FC0
02F4000BD0
02F4000BD0
02F4000BD0
02F4000BD0
02F4000FC0
02F4002F80
02F956FF00
02FFFFFD00
02FFFF9000
ENDCHAR
STARTCHAR uni048D
ENCODING 1165
SWIDTH 477 0
DWIDTH 15 0
BBX 15 26 -1 0
BITMAP
02F00000
02F00000
02F00000
7FFFF400
7FFFF400
16F55000
02F00000
02F00000
02F00000
02F00000
02F00000
02F00000
02F00000
02F00000
02FFFE00
02FFFFD0
02F55BF0
02F002F4
02F001F8
02F000F8
02F000F8
02F000F8
02F002F4
02F55BF0
02FFFFD0
02FFFE00
ENDCHAR
STARTCHAR uni048E
ENCODING 1166
SWIDTH 557 0
DWIDTH 18 0
BBX 15 23 2 0
BITMAP
BFFFE400
BFFFFF40
BE55BFC0
BD000BE0
BD0003F0
BD0002F4
BD0001F4
BD0001F4
BD0029F4
BD007FF4
BD003FF0
BD002FE0
BFFFFFE0
BFFFFEF4
BE5550B8
BD000020
BD000000
BD000000
BD000000
BD000000
BD000000
BD000000
BD000000
ENDCHAR
STARTCHAR uni048F
ENCODING 1167
SWIDTH 496 0
DWIDTH 16 0
BBX 13 24 2 -7
BITMAP
F8BF8000
FBFFF400
FFABFC00
FE00BD00
FC007E00
F8003F00
F8002F00
F8002F40
F8001F40
F8002F40
F8002F40
F8027F00
FC07FE00
FD02FD00
FF97FC00
FFFFFE00
F8BF9F40
F8000900
F8000000
F8000000
F8000000
F8000000
F8000000
F8000000
ENDCHAR
STARTCHAR uni0490
ENCODING 1168
SWIDTH 479 0
DWIDTH 15 0
BBX 13 29 2 0
BITMAP
00000500
00002F40
00002F40
00002F40
00002F40
00002F40
BFFFFF40
BFFFFF40
BE555500
BD000000
BD000000
BD000000
BD000000
BD000000
BD000000
BD000000
BD000000
BD000000
BD000000
BD000000
BD000000
BD000000
BD000000
BD000000
BD000000
BD000000
BD000000
BD000000
BD000000
ENDCHAR
STARTCHAR uni0491
ENCODING 1169
SWIDTH 395 0
DWIDTH 13 0
BBX 10 22 2 0
BITMAP
0007D0
0007D0
0007D0
0007D0
0007D0
FFFFD0
FFFFD0
FD5540
FC0000
FC0000
FC0000
FC0000
FC0000
FC0000
FC0000
FC0000
FC0000
FC0000
FC0000
FC0000
FC0000
FC0000
ENDCHAR
STARTCHAR uni0492
ENCODING 1170
SWIDTH 487 0
DWIDTH 16 0
BBX 15 23 0 0
BITMAP
07FFFFF4
07FFFFF4
07E55554
07D00000
07D00000
07D00000
07D00000
07D00000
07D00000
07D00000
FFFF8000
FFFF8000
5BE54000
07D00000
07D00000
07D00000
07D00000
07D00000
07D00000
07D00000
07D00000
07D00000
07D00000
ENDCHAR
STARTCHAR uni0493
ENCODING 1171
SWIDTH 371 0
DWIDTH 12 0
BBX 12 17 0 0
BITMAP
0BFFFD
0BFFFD
0BD554
0BC000
0BC000
0BC000
0BC000
BFFF80
BFFF80
5BD540
0BC000
0BC000
0BC000
0BC000
0BC000
0BC000
0BC000
ENDCHAR
STARTCHAR uni0494
ENCODING 1172
SWIDTH 539 0
DWIDTH 17 0
BBX 14 28 2 -5
BITMAP
7FFFFF40
7FFFFF40
7E555540
7D000000
7D000000
7D000000
7D000000
7D000000
7D000000
7D000000
7FFE8000
7FFFF400
7EAAFE00
7D007F40
7D001F80
7D000BC0
7D0007D0
7D0007E0
7D0007E0
7D0003E0
7D0007E0
7D0007D0
7D0007D0
00000BC0
00001F80
0001BF00
0002FD00
0002E000
ENDCHAR
STARTCHAR uni0495
ENCODING 1173
SWIDTH 443 0
DWIDTH 14 0
BBX 11 21 2 -4
BITMAP
FFFFD0
FFFFD0
FD5540
FC0000
FC0000
FC0000
FC0000
FFF900
FFFF80
FEAFE0
FC07F4
FC01F8
FC00F8
FC00BC
FC00BC
FC00F8
FC01F8
0003F0
001FE0
002F80
001900
ENDCHAR
STARTCHAR uni0496
ENCODING 1174
SWIDTH 833 0
DWIDTH 27 0
BBX 25 29 1 -6
BITMAP
BE000BD001FC00
3F400BD002F800
1F800BD007F000
0FD00BD00BD000
07E00BD00FC000
03F00BD02F4000
01F80BD03F0000
00BC0BD0BD0000
007E0BD0F80000
002F0BD2F40000
001FFFFFE00000
001FFFFFF00000
003FABEAF40000
007E0BD1FC0000
00FD0BD0BD0000
01FC0BD07F0000
03F40BD02F8000
07F00BD01FC000
0FD00BD00FE000
2FC00BD007F000
3F400BD003F800
BF000BD001FFC0
FD000BD000FFC0
00000000000BC0
00000000000BC0
00000000000BC0
00000000000BC0
00000000000BC0
00000000000BC0
ENDCHAR
STARTCHAR uni0497
ENCODING 1175
SWIDTH 696 0
DWIDTH 22 0
BBX 21 23 1 -6
BITMAP
BE00BC01FC00
7F00BC03F400
2F80BC07E000
0FC0BC0FD000
0BD0BC1F8000
03F0BC2F0000
01F4BC7E0000
00FFFFFC0000
00BFFFFC0000
01FAFEBD0000
03F0BC3F0000
07E0BC2F8000
0FD0BC0FC000
2F80BC0BE000
3F40BC03F400
BE00BC02FF40
FD00BC01FF40
000000001F40
000000001F40
000000001F40
000000001F40
000000001F40
000000001F40
ENDCHAR
STARTCHAR uni0498
ENCODING 1176
SWIDTH 517 0
DWIDTH 17 0
BBX 14 30 1 -7
BITMAP
00AFE400
07FFFE00
1FEABF80
2F801FD0
7F0007E0
7E0003E0
140003F0
000007E0
00000BD0
00006F80
002FFE00
002FFD00
0015BF80
00000BD0
000003F0
000002F0
680002F0
BD0002F0
7E0007F0
3F400FD0
1FE5BF80
07FFFE00
00BFE400
000F8000
000F8000
000F8000
000F8000
000F8000
000F8000
000F8000
ENDCHAR
STARTCHAR uni0499
ENCODING 1177
SWIDTH 446 0
DWIDTH 14 0
BBX 12 24 1 -7
BITMAP
01BF80
0BFFF4
2FD6FC
3E00BD
7D007D
00007D
0001FC
01FFF4
01FFE0
0056FC
00007D
00003E
BD003E
7E00BD
3F96FC
0FFFF4
01FF80
007E00
007E00
007E00
007E00
007E00
007E00
007E00
ENDCHAR
STARTCHAR uni049A
ENCODING 1178
SWIDTH 617 0
DWIDTH 20 0
BBX 17 29 2 -6
BITMAP
7D0002F800
7D0007F400
7D000FE000
7D002FC000
7D007F4000
7D00FE0000
7D02FC0000
7D07F40000
7D0BE00000
7D1FC00000
7FFF400000
7FFF400000
7EAFC00000
7D0BE00000
7D03F40000
7D02FC0000
7D00FE0000
7D007F4000
7D002F8000
7D000FD000
7D0007F000
7D0002FF40
7D0000FF40
0000001F40
0000001F40
0000001F40
0000001F40
0000001F40
0000001F40
ENDCHAR
STARTCHAR uni049B
ENCODING 1179
SWIDTH 524 0
DWIDTH 17 0
BBX 14 23 2 -6
BITMAP
BC007F00
BC00FD00
BC02F800
BC07F000
BC0FD000
BC2F4000
BC7E0000
BFFC0000
BFFC0000
BEBE0000
BC2F4000
BC0FC000
BC0BE000
BC03F400
BC01FC00
BC00BFE0
BC003FE0
000003E0
000003E0
000003E0
000003E0
000003E0
000003E0
ENDCHAR
STARTCHAR uni049C
ENCODING 1180
SWIDTH 553 0
DWIDTH 18 0
BBX 15 23 2 0
BITMAP
BD0002F8
BD0003F0
BD000BE0
BD000FC0
BD001F80
BD002F00
BDB83E00
BDB8BC00
BDB8F800
BDB9F400
BFFFE000
BFFFF000
BEBAF400
BDB8FC00
BDB8BD00
BDB87E00
BD543F40
BD001F80
BD000FD0
BD000BE0
BD0007F0
BD0003F8
BD0001FC
ENDCHAR
STARTCHAR uni049D
ENCODING 1181
SWIDTH 498 0
DWIDTH 16 0
BBX 14 17 2 0
BITMAP
BC001FC0
BC002F40
BC003F00
BC50BD00
BCB4F800
BCB6F400
BCB7E000
BFFFC000
BFFFD000
BEFBE000
BCB6F400
BCB5F800
BC64BD00
BC007F00
BC003F40
BC001FC0
BC000FD0
ENDCHAR
STARTCHAR uni049E
ENCODING 1182
SWIDTH 570 0
DWIDTH 18 0
BBX 18 23 0 0
BITMAP
03E0001FD0
03E0003F40
03E000BE00
03E001FD00
BFFF83F800
BFFF8BF000
57F55FD000
03E03F8000
03E0BF0000
03E1FD0000
03FFF80000
03FFF80000
03FAFD0000
03E07F0000
03E02F8000
03E01FD000
03E00BE000
03E003F400
03E001FC00
03E000BE00
03E0003F40
03E0001FC0
03E0000BE0
ENDCHAR
STARTCHAR uni049F
ENCODING 1183
SWIDTH 462 0
DWIDTH 15 0
BBX 16 24 -1 0
BITMAP
02F40000
02F40000
02F40000
BFFF8000
BFFF8000
56F94000
02F40000
02F402F8
02F407F0
02F40BD0
02F41F80
02F42F40
02F47E00
02F4BC00
02FFF400
02FFF400
02F9FC00
02F47E00
02F43F40
02F41F80
02F40BD0
02F403F0
02F402F8
02F400FD
ENDCHAR
STARTCHAR uni04A0
ENCODING 1184
SWIDTH 710 0
DWIDTH 23 0
BBX 21 23 1 0
BITMAP
FFFFD0003F80
FFFFD000BF00
555BD001FD00
000BD003F800
000BD00BF000
000BD01FD000
000BD02F8000
000BD07F0000
000BD0FD0000
000BD2F80000
000BFFF00000
000BFFF00000
000BEAF80000
000BD0FD0000
000BD07F0000
000BD02F8000
000BD01FD000
000BD00BF000
000BD003F800
000BD001FD00
000BD000BE00
000BD0003F40
000BD0001FC0
ENDCHAR
STARTCHAR uni04A1
ENCODING 1185
SWIDTH 607 0
DWIDTH 19 0
BBX 18 17 1 0
BITMAP
BFFF400FD0
BFFF402F80
556F407F00
001F40FD00
001F42F400
001F47E000
001F4FC000
001FFF4000
001FFF4000
001FAFC000
001F47E000
001F42F400
001F41FC00
001F40BE00
001F403F40
001F401FC0
001F400BE0
ENDCHAR
STARTCHAR uni04A2
ENCODING 1186
SWIDTH 662 0
DWIDTH 21 0
BBX 18 29 2 -6
BITMAP
BD0000BD00
BD0000BD00
BD0000BD00
BD0000BD00
BD0000BD00
BD0000BD00
BD0000BD00
BD0000BD00
BD0000BD00
BD0000BD00
BFFFFFFD00
BFFFFFFD00
BE5555BD00
BD0000BD00
BD0000BD00
BD0000BD00
BD0000BD00
BD0000BD00
BD0000BD00
BD0000BD00
BD0000BD00
BD0000BFE0
BD0000BFE0
00000003E0
00000003E0
00000003E0
00000003E0
00000003E0
00000003E0
ENDCHAR
STARTCHAR uni04A3
ENCODING 1187
SWIDTH 541 0
DWIDTH 17 0
BBX 15 23 2 -6
BITMAP
BC002F00
BC002F00
BC002F00
BC002F00
BC002F00
BC002F00
BC002F00
BFFFFF00
BFFFFF00
BD557F00
BC002F00
BC002F00
BC002F00
BC002F00
BC002F00
BC002FF4
BC002FF4
000001F4
000001F4
000001F4
000001F4
000001F4
000001F4
ENDCHAR
STARTCHAR uni04A4
ENCODING 1188
SWIDTH 829 0
DWIDTH 27 0
BBX 24 23 2 0
BITMAP
BD0000BFFFFD
BD0000BFFFFD
BD0000BE5554
BD0000BD0000
BD0000BD0000
BD0000BD0000
BD0000BD0000
BD0000BD0000
BD0000BD0000
BD0000BD0000
BFFFFFFD0000
BFFFFFFD0000
BE5555BD0000
BD0000BD0000
BD0000BD0000
BD0000BD0000
BD0000BD0000
BD0000BD0000
BD0000BD0000
BD0000BD0000
BD0000BD0000
BD0000BD0000
BD0000BD0000
ENDCHAR
STARTCHAR uni04A5
ENCODING 1189
SWIDTH 614 0
DWIDTH 20 0
BBX 17 17 2 0
BITMAP
FC003FFF40
FC003FFF40
FC003F5500
FC003E0000
FC003E0000
FC003E0000
FC003E0000
FFFFFE0000
FFFFFE0000
FD557E0000
FC003E0000
FC003E0000
FC003E0000
FC003E0000
FC003E0000
FC003E0000
FC003E0000
ENDCHAR
STARTCHAR uni04A6
ENCODING 1190
SWIDTH 880 0
DWIDTH 28 0
BBX 25 28 2 -5
BITMAP
7FFFFFFD000000
7FFFFFFD000000
7E5555BD000000
7D0000BD000000
7D0000BD000000
7D0000BD000000
7D0000BD000000
7D0000BD000000
7D0000BD000000
7D0000BD000000
7D0000BFFA0000
7D0000BFFFD000
7D0000BEAFF400
7D0000BD01FD00
7D0000BD007E00
7D0000BD003F00
7D0000BD002F40
7D0000BD001F40
7D0000BD001F40
7D0000BD001F80
7D0000BD001F40
7D0000BD001F40
7D0000BD002F40
00000000002F00
00000000007E00
0000000006FC00
000000000BF400
000000000B8000
ENDCHAR
STARTCHAR uni04A7
ENCODING 1191
SWIDTH 755 0
DWIDTH 24 0
BBX 21 21 2 -4
BITMAP
FFFFFE000000
FFFFFE000000
FD557E000000
FC003E000000
FC003E000000
FC003E000000
FC003E000000
FC003FFF9000
FC003FFFF800
FC003FAAFD00
FC003E007F00
FC003E001F80
FC003E000F80
FC003E000FC0
FC003E000FC0
FC003E000F80
FC003E001F80
000000003F00
00000001FE00
00000002F800
000000019000
ENDCHAR
STARTCHAR uni04A8
ENCODING 1192
SWIDTH 641 0
DWIDTH 21 0
BBX 19 23 1 0
BITMAP
006806F800
02F82FFE00
07F87FAF80
0FD0BD0BD0
1F81F807E0
2F01F403E0
3F02F403F0
3E02F002F0
3E02F002F0
7E02F002F0
7E02F002F0
7E02F002F0
7E02F002F0
7E02F403F0
3E02F403F0
3F01F807E0
2F40FC0BD0
1F807E0FC0
0FD03FAF40
07F40FFE00
01FEAFFFA0
007FFFFFF4
000BFA46F4
ENDCHAR
STARTCHAR uni04A9
ENCODING 1193
SWIDTH 528 0
DWIDTH 17 0
BBX 15 17 1 0
BITMAP
01D0BE00
0BD2FF80
1FD7EBD0
2F0BC3E0
3E0F82F0
7E0F82F4
7E1F82F4
7D1F81F4
7D0F82F4
7E0F82F4
3E0FC2F0
2F0BD3F0
2F43FBD0
0FC1FFC0
07FAFFE4
02FFFFFC
006FA1BC
ENDCHAR
STARTCHAR uni04AA
ENCODING 1194
SWIDTH 566 0
DWIDTH 18 0
BBX 15 30 2 -7
BITMAP
006FE800
02FFFF40
0FF9AFC0
2F800BE0
3F0003F0
BD0002F4
BC0001F8
FC0000A4
FC000000
FC000000
F8000000
F8000000
F8000000
F8000000
FC000000
FC0000A4
BC0001F8
BD0002F4
3F0002F0
2F8007E0
0FF9AFC0
02FFFF40
007FE400
000F8000
000F8000
000F8000
000F8000
000F8000
000F8000
000F8000
ENDCHAR
STARTCHAR uni04AB
ENCODING 1195
SWIDTH 461 0
DWIDTH 15 0
BBX 13 24 1 -7
BITMAP
01BF9000
07FFF800
1FE5BE00
2F402F40
3E001F40
7D000F80
7D000000
7D000000
BD000000
7D000000
7D000000
7D000540
3E000F80
2F402F40
1FE5BE00
07FFF800
01BF9000
003E0000
003E0000
003E0000
003E0000
003E0000
003E0000
003E0000
ENDCHAR
STARTCHAR uni04AC
ENCODING 1196
SWIDTH 520 0
DWIDTH 17 0
BBX 15 29 1 -6
BITMAP
FFFFFFF8
FFFFFFF8
556FD554
000F8000
000F8000
000F8000
000F8000
000F8000
000F8000
000F8000
000F8000
000F8000
000F8000
000F8000
000F8000
000F8000
000F8000
000F8000
000F8000
000F8000
000F8000
000FFC00
000FFC00
0000BC00
0000BC00
0000BC00
0000BC00
0000BC00
0000BC00
ENDCHAR
STARTCHAR uni04AD
ENCODING 1197
SWIDTH 424 0
DWIDTH 14 0
BBX 12 23 1 -6
BITMAP
FFFFFE
FFFFFE
55BD55
00BC00
00BC00
00BC00
00BC00
00BC00
00BC00
00BC00
00BC00
00BC00
00BC00
00BC00
00BC00
00BFE0
00BFE0
0007E0
0007E0
0007E0
0007E0
0007E0
0007E0
ENDCHAR
STARTCHAR uni04AE
ENCODING 1198
SWIDTH 524 0
DWIDTH 17 0
BBX 16 23 0 0
BITMAP
7F00007F
3F4000BE
1F8000FC
0FC001F8
0BE002F4
03F007E0
02F40BD0
01F80FC0
00BC1F40
007E2F00
002F7E00
001FFC00
000FF800
0007F400
0003F000
0003E000
0003E000
0003E000
0003E000
0003E000
0003E000
0003E000
0003E000
ENDCHAR
STARTCHAR uni04AF
ENCODING 1199
SWIDTH 444 0
DWIDTH 14 0
BBX 13 24 1 -7
BITMAP
FC001F40
BC002F00
7D003E00
3E007D00
2F00BC00
1F40F800
0F80F800
0BC1F400
07C2F000
07D3E000
03E7D000
02FBC000
01FF8000
00FF4000
00BF0000
007E0000
007E0000
007E0000
007E0000
007E0000
007E0000
007E0000
007E0000
007E0000
ENDCHAR
STARTCHAR uni04B0
ENCODING 1200
SWIDTH 524 0
DWIDTH 17 0
BBX 16 23 0 0
BITMAP
7F00007F
3F4000BE
1F8000FC
0FC001F8
07E002F4
03F007E0
02F40BD0
00F80F80
00BC1F40
003E2F00
002F7D00
001FFC00
00BFFF80
00BFFF80
0057F540
0003E000
0003E000
0003E000
0003E000
0003E000
0003E000
0003E000
0003E000
ENDCHAR
STARTCHAR uni04B1
ENCODING 1201
SWIDTH 444 0
DWIDTH 14 0
BBX 13 24 1 -7
BITMAP
FC001F40
BD002F00
7D003E00
3E007D00
2F00BC00
1F40F800
0F81F400
0BC1F000
07D2E000
03E3E000
02E7D000
01FBC000
01FF8000
00FF4000
05BF5400
0FFFF800
0FFFF800
007E0000
007E0000
007E0000
007E0000
007E0000
007E0000
007E0000
ENDCHAR
STARTCHAR uni04B2
ENCODING 1202
SWIDTH 559 0
DWIDTH 18 0
BBX 17 29 1 -6
BITMAP
BE0000FD00
3F4002F800
2F8003F400
0FD00BE000
07E00FC000
03F42F8000
01F83F0000
00FDBE0000
007EFC0000
003FF80000
001FF00000
000FE00000
001FF00000
003FF80000
007EFD0000
00FC7E0000
02F83F4000
03F01F8000
0BE00FD000
0FD007E000
2F8003F400
3F4002FF40
BE0000FF40
0000002F40
0000002F40
0000002F40
0000002F40
0000002F40
0000002F40
ENDCHAR
STARTCHAR uni04B3
ENCODING 1203
SWIDTH 465 0
DWIDTH 15 0
BBX 13 23 1 -6
BITMAP
BD007E00
7E00FD00
2F41F800
1F82F000
0BD7E000
03EBC000
02FF4000
00FF0000
00BE0000
00FF0000
02FF8000
07EBC000
0BC3E000
1F82F400
2F41F800
7E00BFC0
FD007FC0
00000BC0
00000BC0
00000BC0
00000BC0
00000BC0
00000BC0
ENDCHAR
STARTCHAR uni04B4
ENCODING 1204
SWIDTH 781 0
DWIDTH 25 0
BBX 22 28 1 -5
BITMAP
FFFFFF807E00
FFFFFF807E00
557F55407E00
003E00007E00
003E00007E00
003E00007E00
003E00007E00
003E00007E00
003E00007E00
003E00007E00
003E00007E00
003E00007E00
003E00007E00
003E00007E00
003E00007E00
003E00007E00
003E00007E00
003E00007E00
003E00007E00
003E00007E00
003F5555BE90
003FFFFFFFE0
003FFFFFFFE0
0000000007D0
0000000007D0
0000000007D0
0000000007D0
0000000007D0
ENDCHAR
STARTCHAR uni04B5
ENCODING 1205
SWIDTH 587 0
DWIDTH 19 0
BBX 18 22 0 -5
BITMAP
7FFFF03E00
7FFFF03E00
15FD503E00
00BC003E00
00BC003E00
00BC003E00
00BC003E00
00BC003E00
00BC003E00
00BC003E00
00BC003E00
00BC003E00
00BC003E00
00BC003E00
00BD557F50
00BFFFFFE0
00BFFFFFE0
00000003D0
00000003D0
00000003D0
00000003D0
00000003D0
ENDCHAR
STARTCHAR uni04B6
ENCODING 1206
SWIDTH 638 0
DWIDTH 20 0
BBX 17 29 2 -6
BITMAP
BC0001F800
BC0001F800
BC0001F800
BC0001F800
BC0001F800
BC0001F800
BC0001F800
BC0001F800
BC0001F800
BD0001F800
7E0001F800
3F801AF800
1FFFFFF800
07FFFEF800
005551F800
000001F800
000001F800
000001F800
000001F800
000001F800
000001F800
000001FFC0
000001FFC0
0000000BC0
0000000BC0
0000000BC0
0000000BC0
0000000BC0
0000000BC0
ENDCHAR
STARTCHAR uni04B7
ENCODING 1207
SWIDTH 512 0
DWIDTH 16 0
BBX 15 23 1 -6
BITMAP
7D002F00
7D002F00
7D002F00
7D002F00
7D002F00
7D002F00
7E002F00
3F002F00
2F807F00
0FFFFF00
06FFFF00
00152F00
00002F00
00002F00
00002F00
00002FF4
00002FF4
000001F4
000001F4
000001F4
000001F4
000001F4
000001F4
ENDCHAR
STARTCHAR uni04B8
ENCODING 1208
SWIDTH 595 0
DWIDTH 19 0
BBX 15 23 2 0
BITMAP
BC0001F8
BC0001F8
BC0001F8
BC0001F8
BC0001F8
BC0001F8
BC0001F8
BC0681F8
BC07C1F8
BD07C1F8
7E07C1F8
3F47C6F8
1FFFFFF8
07FFFFF8
006BD5F8
0007C1F8
0007C1F8
0007C1F8
000141F8
000001F8
000001F8
000001F8
000001F8
ENDCHAR
STARTCHAR uni04B9
ENCODING 1209
SWIDTH 483 0
DWIDTH 15 0
BBX 12 17 2 0
BITMAP
F8007D
F8007D
F8007D
F8007D
F8147D
F8787D
F8787D
BC787D
7EB8BD
2FFFFD
0BFFFD
01BD7D
00787D
00647D
00007D
00007D
00007D
ENDCHAR
STARTCHAR uni04BA
ENCODING 1210
SWIDTH 595 0
DWIDTH 19 0
BBX 15 23 2 0
BITMAP
F8000000
F8000000
F8000000
F8000000
F8000000
F8000000
F8000000
F8000000
F8000000
FDBFF900
FFFFFF80
FFEAAFD0
FC0007E0
F80002F0
F80002F4
F80001F4
F80001F4
F80001F4
F80001F4
F80001F4
F80001F4
F80001F4
F80001F4
ENDCHAR
STARTCHAR uni04BB
ENCODING 1211
SWIDTH 482 0
DWIDTH 15 0
BBX 12 24 2 0
BITMAP
F80000
F80000
F80000
F80000
F80000
F80000
F80000
F86F90
FEFFF4
FFEBF8
FE00FC
FC00BD
F8007D
F8007D
F8007D
F8007D
F8007D
F8007D
F8007D
F8007D
F8007D
F8007D
F8007D
F8007D
ENDCHAR
STARTCHAR uni04BC
ENCODING 1212
SWIDTH 674 0
DWIDTH 22 0
BBX 19 23 1 0
BITMAP
00002FE400
0001FFFE00
0007FABF80
000BD00BD0
001F8003F0
002F0002F4
A43E0001F4
B87E0000F8
7C7D0000F8
3EBD0000F8
1FFFFFFFF8
06FFFFFFF8
007E555550
007D000000
007D000000
007E000000
003E000000
003F000000
001F800000
000FE00040
0007FE6BD0
0001FFFFD0
00001BFA40
ENDCHAR
STARTCHAR uni04BD
ENCODING 1213
SWIDTH 518 0
DWIDTH 17 0
BBX 15 17 0 0
BITMAP
0006FE00
001FFFC0
007F5BE0
50FC02F4
F1F400F8
F6F000BC
BFF000BC
3FFFFFFC
0BFFFFFC
03E55554
03E00000
02F00000
01F40010
00FD00B8
007F96F4
002FFFE0
0006FE40
ENDCHAR
STARTCHAR uni04BE
ENCODING 1214
SWIDTH 674 0
DWIDTH 22 0
BBX 19 30 1 -7
BITMAP
00002FE400
0001FFFE00
0007FABF80
000BD00BD0
001F8003F0
002F0002F4
A43E0001F4
B87E0000F8
7C7D0000F8
3EBD0000F8
1FFFFFFFF8
06FFFFFFF8
007E555550
007D000000
007D000000
007E000000
003E000000
003F000000
001F800000
000FE00040
0007FE6BD0
0001FFFFD0
00001FFA40
000003E000
000003E000
000003E000
000003E000
000003E000
000003E000
000003E000
ENDCHAR
STARTCHAR uni04BF
ENCODING 1215
SWIDTH 518 0
DWIDTH 17 0
BBX 15 24 0 -7
BITMAP
0006FE00
001FFFC0
007F5BE0
50FC02F4
F1F400F8
F6F000BC
BFF000BC
3FFFFFFC
0BFFFFFC
03E55554
03E00000
02F00000
01F40010
00FD00B8
007F96F4
002FFFE0
0006FE40
0000BC00
0000BC00
0000BC00
0000BC00
0000BC00
0000BC00
0000BC00
ENDCHAR
STARTCHAR uni04C0
ENCODING 1216
SWIDTH 250 0
DWIDTH 8 0
BBX 4 23 2 0
BITMAP
7D
7D
7D
7D
7D
7D
7D
7D
7D
7D
7D
7D
7D
7D
7D
7D
7D
7D
7D
7D
7D
7D
7D
ENDCHAR
STARTCHAR uni04C1
ENCODING 1217
SWIDTH 791 0
DWIDTH 25 0
BBX 24 28 1 0
BITMAP
0002D00F4000
0002F02F0000
0000FFFE0000
00002FE40000
000000000000
BE000BD001FC
3F400BD002F8
1F800BD007F0
0FD00BD00BD0
07E00BD00FC0
03F00BD02F40
01F80BD03F00
00BC0BD0BD00
007E0BD0F800
002F0BD2F400
001FFFFFE000
001FFFFFF000
003FABEAF400
007E0BD1FC00
00FD0BD0BD00
01FC0BD07F00
03F40BD02F80
07F00BD01FC0
0FD00BD00FE0
2FC00BD007F0
3F400BD003F8
BF000BD001FC
FD000BD000FE
ENDCHAR
STARTCHAR uni04C2
ENCODING 1218
SWIDTH 662 0
DWIDTH 21 0
BBX 20 23 1 0
BITMAP
003D00F000
003E02F000
001FFFD000
0006FE4000
0000000000
0000000000
BE00BC01FC
7F00BC03F4
2F80BC07E0
0FC0BC0FD0
0BD0BC1F80
03F0BC2F00
01F4BC7E00
00FFFFFC00
00BFFFFC00
01FAFEBD00
03F0BC3F00
07E0BC2F80
0FD0BC0FC0
2F80BC0BE0
3F40BC03F4
BE00BC02F8
FD00BC01FD
ENDCHAR
STARTCHAR uni04C3
ENCODING 1219
SWIDTH 553 0
DWIDTH 18 0
BBX 15 28 2 -5
BITMAP
BD0003F4
BD000BE0
BD001FC0
BD003F40
BD00BE00
BD01FC00
BD03F400
BD0BE000
BD1FC000
BD3F4000
BFFF9000
BFFFFD00
BEAAFF40
BD002FC0
BD000BE0
BD0003F0
BD0002F4
BD0001F4
BD0001F4
BD0001F8
BD0001F4
BD0001F4
BD0002F4
000003F0
00000BE0
00006FC0
0000FF40
0000B800
ENDCHAR
STARTCHAR uni04C4
ENCODING 1220
SWIDTH 481 0
DWIDTH 15 0
BBX 12 21 2 -4
BITMAP
BC007F
BC00FD
BC02F4
BC07E0
BC1FC0
BC3F40
BCBD00
BFFE40
BFFFE0
BEABF8
BC00BD
BC003E
BC002F
BC002F
BC002F
BC002F
BC003E
0000BD
0006F8
0007E0
000340
ENDCHAR
STARTCHAR uni04C5
ENCODING 1221
SWIDTH 662 0
DWIDTH 21 0
BBX 19 29 1 -6
BITMAP
00FFFFFF00
00FFFFFF00
00FD557F00
00F8002F00
00F8002F00
00F8002F00
00F8002F00
00F8002F00
01F8002F00
01F8002F00
01F8002F00
01F8002F00
01F4002F00
01F4002F00
01F4002F00
02F4002F00
02F0002F00
03F0002F00
03E0002F00
0BD0002F00
AFC0002F54
FF40002FFC
F900002FFC
00000000FC
00000000F8
00000001F8
00000002F0
00000003E0
0000000180
ENDCHAR
STARTCHAR uni04C6
ENCODING 1222
SWIDTH 551 0
DWIDTH 18 0
BBX 16 23 1 -6
BITMAP
03FFFFC0
03FFFFC0
03F55FC0
03E00BC0
03E00BC0
03E00BC0
03E00BC0
03E00BC0
07D00BC0
07D00BC0
07D00BC0
07D00BC0
0BC00BC0
0F800BC0
BF400BD5
FE000BFF
F8000BFF
0000003F
0000003E
0000007D
000000BC
000001F4
00000060
ENDCHAR
STARTCHAR uni04C7
ENCODING 1223
SWIDTH 620 0
DWIDTH 20 0
BBX 16 30 2 -7
BITMAP
7D0000BD
7D0000BD
7D0000BD
7D0000BD
7D0000BD
7D0000BD
7D0000BD
7D0000BD
7D0000BD
7D0000BD
7FFFFFFD
7FFFFFFD
7E5555BD
7D0000BD
7D0000BD
7D0000BD
7D0000BD
7D0000BD
7D0000BD
7D0000BD
7D0000BD
7D0000BD
7D0000BD
000000BD
000000BD
000000BC
000000FC
00001AF8
00002FF0
00002F80
ENDCHAR
STARTCHAR uni04C8
ENCODING 1224
SWIDTH 498 0
DWIDTH 16 0
BBX 12 24 2 -7
BITMAP
FC003E
FC003E
FC003E
FC003E
FC003E
FC003E
FC003E
FFFFFE
FFFFFE
FD557E
FC003E
FC003E
FC003E
FC003E
FC003E
FC003E
FC003E
00003E
00003E
00003E
00007E
0005FD
000FF8
000FD0
ENDCHAR
STARTCHAR uni04C9
ENCODING 1225
SWIDTH 671 0
DWIDTH 22 0
BBX 19 29 2 -6
BITMAP
BD0000BD00
BD0000BD00
BD0000BD00
BD0000BD00
BD0000BD00
BD0000BD00
BD0000BD00
BD0000BD00
BD0000BD00
BD0000BD00
BFFFFFFD00
BFFFFFFD00
BE5555BD00
BD0000BD00
BD0000BD00
BD0000BD00
BD0000BD00
BD0000BD00
BD0000BD00
BD0000BD00
BD0000BE50
BD0000BFF4
BD0000BFF4
00000002F4
00000002F0
00000003E0
00000007D0
0000000F80
0000000600
ENDCHAR
STARTCHAR uni04CA
ENCODING 1226
SWIDTH 550 0
DWIDTH 18 0
BBX 15 23 2 -6
BITMAP
BC002F00
BC002F00
BC002F00
BC002F00
BC002F00
BC002F00
BC002F00
BFFFFF00
BFFFFF00
BD557F00
BC002F00
BC002F00
BC002F00
BC002F00
BC002F54
BC002FFC
BC002FFC
000000F8
000000F8
000001F4
000002F0
000007D0
00000280
ENDCHAR
STARTCHAR uni04CB
ENCODING 1227
SWIDTH 600 0
DWIDTH 19 0
BBX 15 29 2 -6
BITMAP
BC0001F8
BC0001F8
BC0001F8
BC0001F8
BC0001F8
BC0001F8
BC0001F8
BC0001F8
BC0001F8
BD0001F8
7E0001F8
3F801AF8
1FFFFFF8
07FFFEF8
005551F8
000001F8
000001F8
000001F8
000001F8
000001F8
000001F8
00002FF8
00002FF8
00002F00
00002F00
00002F00
00002F00
00002F00
00002F00
ENDCHAR
STARTCHAR uni04CC
ENCODING 1228
SWIDTH 479 0
DWIDTH 15 0
BBX 12 23 1 -6
BITMAP
7D002F
7D002F
7D002F
7D002F
7D002F
7D002F
7E002F
3F002F
2F807F
0FFFFF
06FFFF
00152F
00002F
00002F
00002F
0007FF
0007FF
0007E0
0007E0
0007E0
0007E0
0007E0
0007E0
ENDCHAR
STARTCHAR uni04CD
ENCODING 1229
SWIDTH 801 0
DWIDTH 26 0
BBX 23 29 2 -6
BITMAP
BF400000FE00
BF800001FE00
BFC00002FE00
BFD00003FE00
BFE00007FE00
BFF0000BFE00
BEF4000FBE00
BDF8001F7E00
BCF8002F3E00
BDBC003E3E00
BD7D007D3E00
BD3E00BC3E00
BD2F00F83E00
BD1F41F43E00
BD0F82F03E00
BD0BC3E03E00
BD07D7D03E00
BD03EBC03E00
BD02FF803E00
BD01FF403E00
BD00FF003F54
BD00BE003FF4
BD007D003FF4
0000000001F4
0000000002F4
0000000002F0
0000000007E0
000000000BC0
000000000240
ENDCHAR
STARTCHAR uni04CE
ENCODING 1230
SWIDTH 687 0
DWIDTH 22 0
BBX 20 23 2 -6
BITMAP
BF00007F40
BF4000BF40
BF8000FF40
BFC001FF40
BFD002FF40
BEE003FF40
BDF007EF40
BCF40B9F40
BCB80F5F40
BC7C1F1F40
BC3D2E1F40
BC2E3D1F40
BC1FBC1F40
BC0FF81F40
BC07F41F94
BC03F01FFD
BC02D01FFD
00000000BD
00000000BC
00000000F8
00000001F4
00000003E0
0000000180
ENDCHAR
STARTCHAR uni04CF
ENCODING 1231
SWIDTH 250 0
DWIDTH 8 0
BBX 4 23 2 0
BITMAP
7D
7D
7D
7D
7D
7D
7D
7D
7D
7D
7D
7D
7D
7D
7D
7D
7D
7D
7D
7D
7D
7D
7D
ENDCHAR
STARTCHAR uni04D0
ENCODING 1232
SWIDTH 576 0
DWIDTH 18 0
BBX 18 28 0 0
BITMAP
007C01E000
003E03E000
002FFFC000
0006FE0000
0000000000
0000F80000
0001FC0000
0002FD0000
0003FE0000
0007EF0000
000B9F4000
000F4F8000
001F0BC000
002F07C000
003E03D000
007D02E000
00BC01F000
00F800F400
01F400B800
02FFFFFC00
03FFFFFD00
07E5557E00
0BC0002F00
0F80001F40
1F80000F80
2F40000BC0
3F00000BD0
7E000007E0
ENDCHAR
STARTCHAR uni04D1
ENCODING 1233
SWIDTH 479 0
DWIDTH 15 0
BBX 13 23 1 0
BITMAP
0B802E00
07D07D00
02FFF800
006F9000
00000000
00000000
00BF9000
07FFF800
0FE5FE00
2F403F00
3F002F00
00002F00
00002F00
00AFFF00
07FFFF00
1FE42F00
3F002F00
3E002F00
7E002F00
3F007F00
2FEAFF40
1FFFAF40
02FE1F80
ENDCHAR
STARTCHAR uni04D2
ENCODING 1234
SWIDTH 576 0
DWIDTH 18 0
BBX 18 29 0 0
BITMAP
0014004000
007D02F000
00BE03F400
007D02E000
0000000000
0000000000
0000F80000
0001FC0000
0002FD0000
0003FE0000
0007EF0000
000B9F4000
000F4F8000
001F0BC000
002F07C000
003E03D000
007D02E000
00BC01F000
00F800F400
01F400B800
02FFFFFC00
03FFFFFD00
07E5557E00
0BC0002F00
0F80001F40
1F80000F80
2F40000BC0
3F00000BD0
7E000007E0
ENDCHAR
STARTCHAR uni04D3
ENCODING 1235
SWIDTH 479 0
DWIDTH 15 0
BBX 13 23 1 0
BITMAP
01000400
0BC03E00
0FD07F00
0B802E00
00000000
00000000
00BF9000
07FFF800
0FE5FE00
2F403F00
3F002F00
00002F00
00002F00
00AFFF00
07FFFF00
1FE42F00
3F002F00
3E002F00
7E002F00
3F007F00
2FEAFF40
1FFFAF40
02FE1F80
ENDCHAR
STARTCHAR uni04D4
ENCODING 1236
SWIDTH 812 0
DWIDTH 26 0
BBX 26 23 0 0
BITMAP
000002FFFFFF40
000007FFFFFF40
00000BFE555500
00001FFD000000
00002F7D000000
00007E7D000000
0000BC7E000000
0001F87E000000
0002F47E000000
0007E03E000000
000BD03FFFFD00
001FC03FFFFD00
002F403E555400
007F003E000000
00BD003E000000
01FFFFFE000000
02FFFFFF000000
07FAAABF000000
0BE0003F000000
1FC0002F000000
2F80002F555540
7F00002FFFFFD0
BE00002FFFFFD0
ENDCHAR
STARTCHAR uni04D5
ENCODING 1237
SWIDTH 728 0
DWIDTH 23 0
BBX 21 17 1 0
BITMAP
01BF806FE000
0BFFF5FFFD00
2FE6FFF9BF00
3F00BFC01F40
7E007F400F80
00003F000BC0
00003F000BC0
02BFFFFFFFC0
1FFFFFFFFFC0
3F957E555540
7E003E000000
BD003F000000
BC003F400000
BD00BFD00200
7F9BFBF96F80
2FFFE1FFFF40
06FE402FE800
ENDCHAR
STARTCHAR uni04D6
ENCODING 1238
SWIDTH 496 0
DWIDTH 16 0
BBX 13 28 2 0
BITMAP
0F407C00
0F80BC00
07FFF400
01BF9000
00000000
BFFFFF80
BFFFFF80
BE555540
BD000000
BD000000
BD000000
BD000000
BD000000
BD000000
BD000000
BFFFFD00
BFFFFD00
BE555400
BD000000
BD000000
BD000000
BD000000
BD000000
BD000000
BD000000
BE555540
BFFFFF80
BFFFFF80
ENDCHAR
STARTCHAR uni04D7
ENCODING 1239
SWIDTH 468 0
DWIDTH 15 0
BBX 13 23 1 0
BITMAP
0B403D00
0BC0BC00
03FFF800
00BF9000
00000000
00000000
00BF9000
07FFF800
0FE6FE00
2F402F00
3E001F40
7D000F80
7D000F80
7FFFFF80
7FFFFF80
7E555540
7D000000
7D000000
3E000000
2F400A00
1FE5BF40
07FFFE00
00BFE400
ENDCHAR
STARTCHAR uni04D8
ENCODING 1240
SWIDTH 597 0
DWIDTH 19 0
BBX 17 23 1 0
BITMAP
01AFE40000
07FFFF4000
07EABFD000
020007F400
000001FC00
000000BD00
0000007E00
0000003F00
0000002F00
0000002F40
0000002F40
BFFFFFFF40
BFFFFFFF40
BD55556F40
BD00002F00
7D00003F00
7E00007E00
3E0000BD00
2F4001FC00
0FD007F400
07FAAFE000
01FFFF4000
002BF80000
ENDCHAR
STARTCHAR uni04D9
ENCODING 1241
SWIDTH 465 0
DWIDTH 15 0
BBX 13 17 1 0
BITMAP
02FE4000
1FFFF000
2F96FC00
1800BE00
00003F00
00002F40
00001F40
00001F80
7FFFFF80
7FFFFF80
7E556F40
7D002F40
3E003F00
2F407D00
1FE6FC00
07FFF000
01BF8000
ENDCHAR
STARTCHAR uni04DA
ENCODING 1242
SWIDTH 597 0
DWIDTH 19 0
BBX 17 28 1 0
BITMAP
0040040000
07E02F4000
0BE02F8000
03D01F4000
0000000000
01AFE40000
07FFFF4000
07EABFD000
020007F400
000001FC00
000000BD00
0000007E00
0000003F00
0000002F00
0000002F40
0000002F40
BFFFFFFF40
BFFFFFFF40
BD55556F40
BD00002F00
7D00003F00
7E00007E00
3E0000BD00
2F4001FC00
0FD007F400
07FAAFE000
01FFFF4000
002BF80000
ENDCHAR
STARTCHAR uni04DB
ENCODING 1243
SWIDTH 465 0
DWIDTH 15 0
BBX 13 23 1 0
BITMAP
01001400
1F807D00
1FC0BE00
0B407D00
00000000
00000000
02FE4000
1FFFF000
2F96FC00
1800BE00
00003F00
00002F40
00001F40
00001F80
7FFFFF80
7FFFFF80
7E556F40
7D002F40
3E003F00
2F407D00
1FE6FC00
07FFF000
01BF8000
ENDCHAR
STARTCHAR uni04DC
ENCODING 1244
SWIDTH 791 0
DWIDTH 25 0
BBX 24 29 1 0
BITMAP
000040010000
0003E01F8000
0007F02F8000
0002E01F4000
000000000000
000000000000
BE000BD001FC
3F400BD002F8
1F800BD007F0
0FD00BD00BD0
07E00BD00FC0
03F00BD02F40
01F80BD03F00
00BC0BD0BD00
007E0BD0F800
002F0BD2F400
001FFFFFE000
001FFFFFF000
003FABEAF400
007E0BD1FC00
00FD0BD0BD00
01FC0BD07F00
03F40BD02F80
07F00BD01FC0
0FD00BD00FE0
2FC00BD007F0
3F400BD003F8
BF000BD001FC
FD000BD000FE
ENDCHAR
STARTCHAR uni04DD
ENCODING 1245
SWIDTH 662 0
DWIDTH 21 0
BBX 20 23 1 0
BITMAP
0004004000
007E01F400
007F02F800
002D01F400
0000000000
0000000000
BE00BC01FC
7F00BC03F4
2F80BC07E0
0FC0BC0FD0
0BD0BC1F80
03F0BC2F00
01F4BC7E00
00FFFFFC00
00BFFFFC00
01FAFEBD00
03F0BC3F00
07E0BC2F80
0FD0BC0FC0
2F80BC0BE0
3F40BC03F4
BE00BC02F8
FD00BC01FD
ENDCHAR
STARTCHAR uni04DE
ENCODING 1246
SWIDTH 517 0
DWIDTH 17 0
BBX 14 29 1 0
BITMAP
01000400
0BD02F00
0BE03F40
07D02E00
00000000
00000000
00AFE400
07FFFE00
1FEABF80
2F801FD0
7F0007E0
7E0003E0
140003F0
000007E0
00000BD0
00006F80
002FFE00
002FFD00
0015BF80
00000BD0
000003F0
000002F0
680002F0
BD0002F0
7E0007F0
3F400FD0
1FE5BF80
07FFFE00
00AFE400
ENDCHAR
STARTCHAR uni04DF
ENCODING 1247
SWIDTH 446 0
DWIDTH 14 0
BBX 12 23 1 0
BITMAP
040010
2F40FC
3F40FD
1F00B8
000000
000000
01BF80
0BFFF4
2FD6FC
3E00BD
7D007D
00007D
0001FC
01FFF4
01FFE0
0056FC
00007D
00003E
BD003E
7E00BD
3F96FC
0FFFF4
01BF80
ENDCHAR
STARTCHAR uni04E0
ENCODING 1248
SWIDTH 510 0
DWIDTH 16 0
BBX 14 23 1 0
BITMAP
2FFFFF80
2FFFFF80
15557F40
00007E00
0001F800
0003F000
000BD000
001F8000
003E0000
007FA000
007FFD00
0015BF40
00001F80
00000FC0
00000BD0
000007D0
690007D0
7E000BD0
3F000FC0
2F802F80
1FE6BF40
07FFFD00
00BFA000
ENDCHAR
STARTCHAR uni04E1
ENCODING 1249
SWIDTH 510 0
DWIDTH 16 0
BBX 14 23 1 -6
BITMAP
2FFFFF80
2FFFFF80
15557F40
0000BD00
0001F800
0003F000
000BD000
001F8000
007F0000
007F9000
007FFD00
0055BF00
00001F80
00000BC0
000007D0
000007D0
690007D0
7E0007D0
3F000BC0
2F801F80
0FE5BF00
07FFFD00
00BFA000
ENDCHAR
STARTCHAR uni04E2
ENCODING 1250
SWIDTH 619 0
DWIDTH 20 0
BBX 16 29 2 0
BITMAP
00555500
02FFFF80
02FFFF80
00000000
00000000
00000000
7D0000FD
7D0001FD
7D0003FD
7D0007FD
7D000FFD
7D001FFD
7D003EBD
7D007DBD
7D00F8BD
7D01F4BD
7D03E0BD
7D07D0BD
7D0F80BD
7D1F40BD
7D3E00BD
7D7D00BD
7DF800BD
7FF400BD
7FE000BD
7FD000BD
7F8000BD
7F4000BD
7E0000BD
ENDCHAR
STARTCHAR uni04E3
ENCODING 1251
SWIDTH 509 0
DWIDTH 16 0
BBX 12 24 2 0
BITMAP
055554
1FFFF8
1FFFF8
000000
000000
000000
000000
BC003F
BC00BF
BC00FF
BC02FF
BC03FF
BC0BAF
BC0F6F
BC2E2F
BC3D2F
BC782F
BCF42F
BEE02F
BFD02F
BF802F
BF402F
BE002F
BD002F
ENDCHAR
STARTCHAR uni04E4
ENCODING 1252
SWIDTH 619 0
DWIDTH 20 0
BBX 16 29 2 0
BITMAP
00400100
03F00F80
03F41FC0
02E00B80
00000000
00000000
7D0000FD
7D0001FD
7D0003FD
7D0007FD
7D000FFD
7D001FFD
7D003EBD
7D007DBD
7D00F8BD
7D01F4BD
7D03E0BD
7D07D0BD
7D0F80BD
7D1F40BD
7D3E00BD
7D7D00BD
7DF800BD
7FF400BD
7FE000BD
7FD000BD
7F8000BD
7F4000BD
7E0000BD
ENDCHAR
STARTCHAR uni04E5
ENCODING 1253
SWIDTH 509 0
DWIDTH 16 0
BBX 12 23 2 0
BITMAP
040010
2F40FC
3F40FD
1F00B8
000000
000000
BC003F
BC00BF
BC00FF
BC02FF
BC03FF
BC0BAF
BC0F6F
BC2E2F
BC3D2F
BC782F
BCF42F
BEE02F
BFD02F
BF802F
BF402F
BE002F
BD002F
ENDCHAR
STARTCHAR uni04E6
ENCODING 1254
SWIDTH 600 0
DWIDTH 19 0
BBX 16 29 2 0
BITMAP
00400500
03E01F40
07F02F80
02E01F40
00000000
00000000
006FE400
02FFFF40
0FFABFD0
2F800BF0
3F0002F4
7D0001F8
BC0000FC
FC0000BC
FC0000BD
F80000BD
F80000BD
F80000BD
F80000BD
F80000BD
FC0000BD
FC0000BC
BC0000FC
BD0001F8
3F0002F4
2F800BF0
0FFABFD0
02FFFF40
006FE400
ENDCHAR
STARTCHAR uni04E7
ENCODING 1255
SWIDTH 501 0
DWIDTH 16 0
BBX 14 23 1 0
BITMAP
01000400
0FC07E00
0FD07F00
0B802D00
00000000
00000000
00AFA000
07FFFD00
0FE5BF00
2F802F80
3F000FC0
7E0007D0
7D0007D0
7D0007E0
BD0007E0
BD0007E0
7D0007D0
7E0007D0
3F000BC0
2F801F80
0FE5BF00
07FFFD00
00AFE000
ENDCHAR
STARTCHAR uni04E8
ENCODING 1256
SWIDTH 593 0
DWIDTH 19 0
BBX 16 23 1 0
BITMAP
001BF900
00BFFF80
03FEAFE0
0BE007F4
0F8000FC
2F4000BD
2F00007E
3E00003E
7E00002F
7D00002F
7FFFFFFF
7FFFFFFF
7E55557F
7E00002F
7E00003F
3E00003F
2F00007E
2F4000BD
1FC001FC
0BE007F4
03FEAFE0
00BFFF80
001BF900
ENDCHAR
STARTCHAR uni04E9
ENCODING 1257
SWIDTH 497 0
DWIDTH 16 0
BBX 14 17 1 0
BITMAP
006F9000
02FFF800
0BE5BE00
1F802F40
3F000FC0
3E000BD0
7D0007D0
7FFFFFE0
7FFFFFE0
7E555BD0
7D0007D0
3E000BD0
3F000FC0
1F802F40
0BE5BE00
02FFFC00
006F9000
ENDCHAR
STARTCHAR uni04EA
ENCODING 1258
SWIDTH 593 0
DWIDTH 19 0
BBX 16 29 1 0
BITMAP
00100040
00FC07E0
01FC0BE0
00B807D0
00000000
00000000
001BF900
00BFFF80
03FEAFE0
0BE007F4
0F8000FC
2F4000BD
2F00007E
3E00003E
7E00002F
7D00002F
7FFFFFFF
7FFFFFFF
7E55557F
7E00002F
7E00003F
3E00003F
2F00007E
2F4000BD
1FC001FC
0BE007F4
03FEAFE0
00BFFF80
001BF900
ENDCHAR
STARTCHAR uni04EB
ENCODING 1259
SWIDTH 497 0
DWIDTH 16 0
BBX 14 23 1 0
BITMAP
01001400
0F807D00
1FC0BE00
0B807D00
00000000
00000000
006F9000
02FFF800
0BE5BE00
1F802F40
3F000FC0
3E000BD0
7D0007D0
7FFFFFE0
7FFFFFE0
7E555BD0
7D0007D0
3E000BD0
3F000FC0
1F802F40
0BE5BE00
02FFFC00
006F9000
ENDCHAR
STARTCHAR uni04EC
ENCODING 1260
SWIDTH 589 0
DWIDTH 19 0
BBX 16 29 2 0
BITMAP
01400400
07E02F40
0BE03F40
07D01F00
00000000
00000000
006FE400
07FFFE00
0FFABF80
2F800BD0
3F0003F0
7E0001F4
BD0000F8
680000FC
000000BC
000000BC
003FFFFC
003FFFFD
001555FC
000000BC
000000BC
540000FC
BD0001F8
7E0002F4
3F0003F0
2F800BE0
0FF9BF80
03FFFE00
006FE400
ENDCHAR
STARTCHAR uni04ED
ENCODING 1261
SWIDTH 472 0
DWIDTH 15 0
BBX 13 23 1 0
BITMAP
01001000
1F80BD00
2F80BE00
0F407D00
00000000
00000000
01BE4000
0BFFE000
1FE6F800
3F00BD00
7D003E00
14002F00
00002F40
007FFF40
007FFF40
00156F40
00002F40
7D002F00
7D003E00
3F00BD00
1FD6F800
0BFFE000
01BE4000
ENDCHAR
STARTCHAR uni04EE
ENCODING 1262
SWIDTH 547 0
DWIDTH 18 0
BBX 16 29 1 0
BITMAP
00555500
02FFFF40
02FFFF40
00000000
00000000
00000000
7E0000FD
3F0001FC
2F4002F8
1FC003F4
0FD007F0
0BE00BD0
03F00FC0
02F41F80
01F82F40
00FC3F00
00BD7E00
007EBD00
003FFC00
002FF800
001FF400
000BF000
0007E000
000BD000
000FC000
001F8000
01BF0000
03FD0000
03E40000
ENDCHAR
STARTCHAR uni04EF
ENCODING 1263
SWIDTH 416 0
DWIDTH 13 0
BBX 13 31 0 -7
BITMAP
01555400
0BFFFE00
0BFFFE00
00000000
00000000
00000000
00000000
7E001F80
3F002F40
2F403F00
1F403E00
0F807D00
0FC0BC00
0BD0FC00
07D0F800
03E1F400
02F2F000
01F7E000
00FBD000
00BFC000
00BFC000
007F8000
003F4000
002F0000
002E0000
003D0000
007D0000
00B80000
1BF40000
2FE00000
2F800000
ENDCHAR
STARTCHAR uni04F0
ENCODING 1264
SWIDTH 547 0
DWIDTH 18 0
BBX 16 29 1 0
BITMAP
00400100
03F01F80
07F01FC0
02E00F40
00000000
00000000
7E0000FD
3F0001FC
2F4002F8
1FC003F4
0FD007F0
0BE00BD0
03F00FC0
02F41F80
01F82F40
00FC3F00
00BD7E00
007EBD00
003FFC00
002FF800
001FF400
000BF000
0007E000
000BD000
000FC000
001F8000
01BF0000
03FD0000
03E40000
ENDCHAR
STARTCHAR uni04F1
ENCODING 1265
SWIDTH 416 0
DWIDTH 13 0
BBX 13 30 0 -7
BITMAP
01000400
0BC03E00
0FD07F00
0B802E00
00000000
00000000
7E001F80
3F002F40
2F403F00
1F403E00
0F807D00
0FC0BC00
0BD0FC00
07D0F800
03E1F400
02F2F000
01F7E000
00FBD000
00BFC000
00BFC000
007F8000
003F4000
002F0000
002E0000
003D0000
007D0000
00B80000
1BF40000
2FE00000
2F800000
ENDCHAR
STARTCHAR uni04F2
ENCODING 1266
SWIDTH 547 0
DWIDTH 18 0
BBX 16 30 1 0
BITMAP
000BC7E0
001F8FC0
002F2F40
007D7E00
00686C00
00000000
00000000
7E0000FD
3F0001FC
2F4002F8
1FC003F4
0FD007F0
0BE00BD0
03F00FC0
02F41F80
01F82F40
00FC3F00
00BD7E00
007EBD00
003FFC00
002FF800
001FF400
000BF000
0007E000
000BD000
000FC000
001F8000
01BF0000
03FD0000
03E40000
ENDCHAR
STARTCHAR uni04F3
ENCODING 1267
SWIDTH 416 0
DWIDTH 13 0
BBX 13 31 0 -7
BITMAP
002F4FC0
003E2F40
00BC7E00
00F8F800
01B1B000
00000000
00000000
7E001F80
3F002F40
2F403F00
1F403E00
0F807D00
0FC0BC00
0BD0FC00
07D0F800
03E1F400
02F2F000
01F7E000
00FBD000
00BFC000
00BFC000
007F8000
003F4000
002F0000
002E0000
003D0000
007D0000
00B80000
1BF40000
2FE00000
2F800000
ENDCHAR
STARTCHAR uni04F4
ENCODING 1268
SWIDTH 600 0
DWIDTH 19 0
BBX 15 29 2 0
BITMAP
01400400
07D02F40
0BE03F40
07D01E00
00000000
00000000
BC0001F8
BC0001F8
BC0001F8
BC0001F8
BC0001F8
BC0001F8
BC0001F8
BC0001F8
BC0001F8
BD0001F8
7E0001F8
3F801AF8
1FFFFFF8
07FFFEF8
005551F8
000001F8
000001F8
000001F8
000001F8
000001F8
000001F8
000001F8
000001F8
ENDCHAR
STARTCHAR uni04F5
ENCODING 1269
SWIDTH 479 0
DWIDTH 15 0
BBX 12 23 1 0
BITMAP
050010
2F40BC
2F80FD
1F40B8
000000
000000
7D002F
7D002F
7D002F
7D002F
7D002F
7D002F
7E002F
3F002F
2F807F
0FFFFF
06FFFF
00152F
00002F
00002F
00002F
00002F
00002F
ENDCHAR
STARTCHAR uni04F6
ENCODING 1270
SWIDTH 487 0
DWIDTH 16 0
BBX 13 29 2 -6
BITMAP
7FFFFF40
7FFFFF40
7E555540
7D000000
7D000000
7D000000
7D000000
7D000000
7D000000
7D000000
7D000000
7D000000
7D000000
7D000000
7D000000
7D000000
7D000000
7D000000
7D000000
7D000000
7D000000
7FE00000
7FE00000
03E00000
03E00000
03E00000
03E00000
03E00000
03E00000
ENDCHAR
STARTCHAR uni04F7
ENCODING 1271
SWIDTH 371 0
DWIDTH 12 0
BBX 10 23 2 -6
BITMAP
BFFFD0
BFFFD0
BD5540
BC0000
BC0000
BC0000
BC0000
BC0000
BC0000
BC0000
BC0000
BC0000
BC0000
BC0000
BC0000
BFD000
BFD000
07D000
07D000
07D000
07D000
07D000
07D000
ENDCHAR
STARTCHAR uni04F8
ENCODING 1272
SWIDTH 755 0
DWIDTH 24 0
BBX 20 29 2 0
BITMAP
0004001000
002F40FC00
003F41FC00
002E00B800
0000000000
0000000000
7D0000007D
7D0000007D
7D0000007D
7D0000007D
7D0000007D
7D0000007D
7D0000007D
7D0000007D
7D0000007D
7FFFF8007D
7FFFFF407D
7E55AFD07D
7D0007F07D
7D0002F47D
7D0001F47D
7D0001F87D
7D0001F87D
7D0001F47D
7D0003F47D
7D0007F07D
7E55AFD07D
7FFFFF407D
7FFFF8007D
ENDCHAR
STARTCHAR uni04F9
ENCODING 1273
SWIDTH 679 0
DWIDTH 22 0
BBX 17 23 2 0
BITMAP
0010014000
01F807D000
01FC0BE000
00B407D000
0000000000
0000000000
BC00000BC0
BC00000BC0
BC00000BC0
BC00000BC0
BC00000BC0
BC00000BC0
BFFF900BC0
BFFFF40BC0
BD56FC0BC0
BC00BE0BC0
BC003E0BC0
BC003E0BC0
BC003E0BC0
BC007E0BC0
BD56FC0BC0
BFFFF40BC0
BFFF900BC0
ENDCHAR
STARTCHAR uni04FA
ENCODING 1274
SWIDTH 520 0
DWIDTH 17 0
BBX 15 30 1 -7
BITMAP
07FFFFF4
07FFFFF4
07E55554
07E00000
07E00000
07E00000
07E00000
07E00000
07E00000
BFFF8000
BFFF8000
5BF54000
07E00000
07E00000
07E00000
07E00000
07E00000
07E00000
07E00000
07E00000
07F50000
07FF0000
07FF0000
002F0000
002F0000
003F0000
007E0000
06FD0000
0BF80000
0BE00000
ENDCHAR
STARTCHAR uni04FB
ENCODING 1275
SWIDTH 410 0
DWIDTH 13 0
BBX 12 24 1 -7
BITMAP
07FFFE
07FFFE
07E555
07D000
07D000
07D000
BFFF80
BFFF80
5FE540
07D000
07D000
07D000
07D000
07D000
07E500
07FE00
07FE00
003E00
003E00
003E00
007E00
0AFD00
0FF800
0FD000
ENDCHAR
STARTCHAR uni04FC
ENCODING 1276
SWIDTH 570 0
DWIDTH 18 0
BBX 17 30 1 -7
BITMAP
BE0000FD00
3F4002F800
2F8003F400
0FD00BE000
07E00FC000
03F42F8000
01F83F0000
00FDBE0000
007EFC0000
003FF80000
001FF00000
000FE00000
001FF00000
003FF80000
007EFD0000
00FC7E0000
02F83F4000
03F01F8000
0BE00FD000
0FD007E000
2F8003F940
3F4002FF80
BE0000FF80
0000000F80
0000001F80
0000001F80
0000002F40
000002BF00
000003FD00
000003E400
ENDCHAR
STARTCHAR uni04FD
ENCODING 1277
SWIDTH 476 0
DWIDTH 15 0
BBX 14 24 1 -7
BITMAP
BD007E00
7E00FD00
2F41F800
1F82F000
0BD7E000
03EBC000
02FF4000
00FF0000
00BE0000
00FF0000
02FF8000
07EBC000
0BC3E000
1F82F400
2F41FD40
7E00BFD0
FD007FD0
000007D0
000007D0
000007D0
00000BC0
0000AFC0
0001FF40
0001F900
ENDCHAR
STARTCHAR uni04FE
ENCODING 1278
SWIDTH 550 0
DWIDTH 18 0
BBX 16 23 1 0
BITMAP
BE0000FD
3F4002F8
2F8003F4
0FD00BE0
07E00FC0
03F42F80
01F83F00
00FDBE00
007EFC00
002FF800
01FFFF00
01FFFF00
006FF900
003FF800
00BEFD00
00FC7E00
02F83F40
03F01F80
0BE00FD0
0FD007E0
2F8003F4
3F4002F8
BE0000FD
ENDCHAR
STARTCHAR uni04FF
ENCODING 1279
SWIDTH 438 0
DWIDTH 14 0
BBX 12 17 1 0
BITMAP
BD007E
7E00FD
2F41F8
0F82F0
0BD7E0
03EBC0
01FF40
1FFFF4
1FFFF4
06FF50
02FF80
07EBD0
0BC3E0
1F82F4
2F41F8
7E00BD
FD007F
ENDCHAR
STARTCHAR uni0500
ENCODING 1280
SWIDTH 555 0
DWIDTH 18 0
BBX 15 23 1 0
BITMAP
000001F8
000001F8
000001F8
000001F8
000001F8
000001F8
000001F8
000001F8
000001F8
00BFFFF8
07FFFFF8
1FE956F8
2F8001F8
3F0001F8
7E0001F8
7D0001F8
7D0001F8
7E0001F8
3F0001F8
2F8001F8
1FE956F8
07FFFFF8
00BFFFF8
ENDCHAR
ENDFONT
